<?xml version="1.0" encoding="utf-8"?>
<!-- Generator: Adobe Illustrator 27.0.0, SVG Export Plug-In . SVG Version: 6.00 Build 0)  -->
<svg version="1.1" id="Capa_1" xmlns="http://www.w3.org/2000/svg" xmlns:xlink="http://www.w3.org/1999/xlink" x="0px" y="0px"
	 viewBox="0 0 1080 1350" style="enable-background:new 0 0 1080 1350;" xml:space="preserve">
<style type="text/css">
	.st0{fill:#FFFFFF;stroke:#FFFFFF;stroke-miterlimit:10;}
	.st1{fill:#D18730;}
	.st2{fill:#FF9498;}
	.st3{fill:#284565;}
	.st4{fill:#284566;}
	.st5{fill:#FFFFFF;}
	.st6{fill:#FFBD59;}
</style>
<g>
	<path class="st5" d="M234.33,368.3C448.47,310.91,664.2,260,881.5,215.58"/>
	<path class="st5" d="M236.88,377.6c83.52-22.38,167.29-43.78,251.3-64.2s168.26-39.84,252.76-58.26
		c47.64-10.29,95.35-20.37,143.15-30.25c5.14-1.42,8.15-6.73,6.73-11.86c-1.42-5.14-6.73-8.15-11.86-6.73
		c-84.73,17.31-169.23,35.61-253.5,54.91s-168.3,39.59-252.11,60.89c-47.3,12.01-94.51,24.32-141.6,36.92
		C219.79,362.2,224.88,380.84,236.88,377.6L236.88,377.6z"/>
	<path class="st5" d="M237.11,374.74l-10.73,61.23c-1.47,10.98-4.26,21.75-8.3,32.06"/>
	<path class="st5" d="M227.77,372.19l-8.33,47.69c-2.51,14.31-3.86,29.79-9.68,43.29c-2.51,4.62-0.99,10.41,3.47,13.2
		c4.61,2.64,10.48,1.1,13.2-3.47c6.25-14.78,8.57-30.37,11.31-46.07l8.68-49.5c1.25-5.12-1.71-10.34-6.75-11.88
		C234.52,364.08,229.24,367.08,227.77,372.19L227.77,372.19z"/>
	<path class="st5" d="M218.75,468.15c40.78,0.39,80.18-13.43,118.92-26.16c159.77-52.47,324.39-88.79,491.41-108.42"/>
	<path class="st5" d="M218.75,477.8c41.09,0,80.29-12.96,118.88-25.66c38.58-12.69,78.02-24.66,117.49-35.57
		c78.27-21.63,157.5-39.45,237.68-53.44c45.27-7.87,90.7-14.51,136.28-19.91c5.27-0.14,9.5-4.38,9.65-9.65
		c-0.02-5.32-4.33-9.62-9.65-9.65c-81.52,9.62-162.46,23.11-242.85,40.47c-79.41,17.21-157.86,38.26-235.36,63.16
		c-42.94,13.77-86.35,31.14-132.15,30.87c-12.39,0-12.42,19.29,0,19.29L218.75,477.8z"/>
	<path class="st5" d="M881.5,215.58c27.9-7.45,48.04-12.85,53.4-14.58c1.94-0.64,4.04-0.64,5.98,0c2.31,0.94,4.2,2.68,5.32,4.9
		c28.98,49.77,43.48,74.66,32.72,91.02c-6.95,10.49-20.37,12.66-32.06,14.55c-34.3,5.63-76.7,13.16-134.47,24.35"/>
	<path class="st5" d="M242.78,481.31c2.16,43.18,0.81,86.46-4.05,129.41"/>
	<path class="st5" d="M233.14,481.31c2.12,43.18,0.77,86.45-4.05,129.41c0.04,5.31,4.34,9.6,9.65,9.65c5.28-0.1,9.54-4.36,9.65-9.65
		c4.82-42.96,6.18-86.23,4.05-129.41C251.85,468.96,232.56,468.89,233.14,481.31z"/>
	<path class="st5" d="M247.64,473.59l205.54,15.43"/>
	<path class="st5" d="M247.64,483.24l205.54,15.43c5.33,0,9.65-4.32,9.65-9.65c0-5.33-4.32-9.65-9.65-9.65l-205.54-15.43
		c-5.33,0-9.65,4.32-9.65,9.65C238,478.92,242.32,483.24,247.64,483.24z"/>
	<path class="st5" d="M453.26,488.91c107.11,20.58,216.71,40.02,328.81,58.34c62.74,10.29,124.86,19.94,186.36,28.94"/>
	<path class="st5" d="M450.67,498.21c65.82,12.63,131.74,24.69,197.74,36.19c67.6,11.81,135.29,23.03,203.07,33.68
		c38.1,5.97,76.23,11.77,114.4,17.4c5.1,1.23,10.28-1.7,11.85-6.71c1.39-5.13-1.6-10.42-6.71-11.88
		c-67.91-9.98-135.7-20.55-203.38-31.72c-67.03-11.03-133.91-22.61-200.64-34.73c-37.04-6.71-74.04-13.62-111.01-20.72
		c-5.12-1.28-10.34,1.67-11.88,6.71c-1.34,5.14,1.65,10.4,6.75,11.88L450.67,498.21z"/>
	<path class="st5" d="M240.12,612.73c134.09-0.97,267.74,15.37,397.65,48.62c70.96,18.13,144.92,41.44,216.07,23.61"/>
	<path class="st5" d="M240.12,622.37c81.69-0.61,163.31,5.24,244.08,17.48c40.31,6.17,80.36,13.89,120.15,23.15
		c39.47,9.22,78.36,20.99,118.11,29.05c44.1,8.99,89.67,13,133.81,2.12c12.04-2.97,6.95-21.61-5.13-18.6
		c-77.94,19.29-157.42-10.96-232.58-29.05c-79.29-19.07-159.94-31.97-241.23-38.58c-45.66-3.7-91.39-5.39-137.2-5.05
		c-12.39,0-12.42,19.29,0,19.29V622.37z"/>
	<path class="st5" d="M936.72,708.18l31.72-132"/>
	<path class="st5" d="M946.01,710.73l31.72-131.96c2.89-12.08-15.7-17.21-18.6-5.13L927.42,705.6
		C924.52,717.67,943.12,722.81,946.01,710.73z"/>
	<path class="st5" d="M232.6,618.09c-14.66,98.31-25.94,197.06-33.84,296.25c-4.13,51.74-7.41,104.18-22.8,153.72"/>
	<path class="st5" d="M223.3,615.54c-8.85,59.45-16.5,119.07-22.96,178.88c-3.22,29.79-6.11,59.6-8.68,89.44
		c-2.51,29.05-4.4,58.18-7.33,87.2c-2.78,31.99-8.72,63.63-17.71,94.45c-3.63,11.88,14.97,16.98,18.6,5.09
		c17.09-55.48,19.6-114.02,24.39-171.51c4.96-59.68,11.16-119.25,18.6-178.72c4.17-33.29,8.72-66.52,13.66-99.7
		c1.26-5.11-1.68-10.32-6.71-11.88c-5.14-1.38-10.44,1.63-11.88,6.75H223.3z"/>
	<path class="st5" d="M174.57,1068.02c30.21,1,59.65,9.07,89.24,15.01c58.8,11.85,118.84,15.43,178.68,19.29l417.05,25.77"/>
	<path class="st5" d="M174.57,1077.66c21.6,1.4,43.03,4.7,64.05,9.88c21.61,4.67,43.21,8.91,65.09,12.04
		c43.56,6.17,87.43,9.18,131.19,11.92l271.9,16.78l152.79,9.45c12.39,0.77,12.35-18.52,0-19.29l-270.98-16.75l-136.47-8.45
		c-44.02-2.7-88.13-5.25-131.92-10.77c-24.19-3.05-48.11-7.41-71.92-12.58c-23.81-5.17-48.73-10.57-73.7-11.58
		c-12.42-0.46-12.39,18.83,0,19.29L174.57,1077.66z"/>
	<path class="st5" d="M797.31,705.33c42.33-1.23,84.69,1.35,126.56,7.72c5.36-0.62,10.2,3.22,10.82,8.57
		c0.21,1.78-0.08,3.58-0.83,5.2c-22.38,133.24-47.16,266.05-74.35,398.42"/>
	<path class="st5" d="M797.31,714.97c35.38-0.99,70.78,0.65,105.91,4.9l11.58,1.54c3.58,0.05,7.12,0.62,10.53,1.7
		c-0.85-0.46,0-1.35-0.58,0c-0.32,1.26-0.52,2.56-0.58,3.86c-0.81,4.71-1.58,9.41-2.39,14.12c-2.96,17.59-5.98,35.19-9.07,52.78
		c-12.27,70.3-25.21,140.48-38.82,210.55c-7.72,39.43-15.59,78.81-23.61,118.14c-1.27,5.12,1.7,10.33,6.75,11.85
		c5.14,1.36,10.42-1.64,11.88-6.75c15.05-73.34,29.36-146.82,42.94-220.47c6.79-36.65,13.38-73.35,19.75-110.08
		c3.24-18.52,6.43-37.05,9.57-55.6c1.35-8.06,4.55-17.79,1.85-25.85c-3.05-9.11-11.85-11.38-20.3-12.62
		c-41.49-6.13-83.43-8.65-125.36-7.52c-12.39,0.31-12.46,19.6,0,19.29L797.31,714.97z"/>
	<path class="st5" d="M710.34,545.32c15.43,41.16,29.8,82.71,43.1,124.66"/>
	<path class="st5" d="M701.05,547.87c15.43,41.16,29.8,82.72,43.1,124.7c3.86,11.81,22.34,6.75,18.6-5.13
		c-13.2-41.98-27.56-83.55-43.1-124.7c-1.53-5.04-6.73-8-11.85-6.75C702.69,537.44,699.68,542.73,701.05,547.87L701.05,547.87z"/>
	<path class="st5" d="M814.83,555.93c0.96,13.23,5.71,25.85,10.11,38.39c9.83,27.77,18.15,56.06,24.93,84.73"/>
	<path class="st5" d="M805.3,555.93c1.85,21.8,11.19,42.1,17.79,62.74c6.6,20.64,12.46,41.71,17.48,62.85
		c2.86,12.08,21.45,6.98,18.6-5.09c-4.86-20.58-10.49-40.96-16.9-61.16c-3.16-9.92-6.56-19.72-9.99-29.52
		c-3.81-9.58-6.4-19.6-7.72-29.83c-0.1-5.28-4.36-9.54-9.65-9.65c-5.31,0.04-9.6,4.34-9.65,9.65L805.3,555.93z"/>
	<path class="st5" d="M461.67,502.92c19.86,43.73,39.15,87.65,57.88,131.76"/>
	<path class="st5" d="M453.34,507.78c19.88,43.73,39.18,87.66,57.88,131.8c2.72,4.55,8.6,6.08,13.2,3.43
		c4.5-2.76,6.03-8.58,3.47-13.2c-18.7-44.19-37.99-88.11-57.88-131.76c-2.71-4.57-8.59-6.11-13.2-3.47
		C452.33,497.36,450.8,503.16,453.34,507.78z"/>
	<path class="st5" d="M591.04,513.37c6.11,46.39,15.95,92.21,29.44,137.01"/>
	<path class="st5" d="M581.24,513.37c6.21,47.25,16.17,93.93,29.79,139.6c3.55,11.85,22.19,6.79,18.6-5.13
		c-13.23-43.98-22.96-88.95-29.09-134.47c-0.16-5.26-4.39-9.49-9.65-9.65C586.22,503.73,580.55,508.16,581.24,513.37L581.24,513.37z
		"/>
	<path class="st5" d="M343.72,487.25c3.24,40.4,16.09,79.29,28.86,117.76"/>
	<path class="st5" d="M334.07,487.25c3.47,41.48,16.17,81.03,29.21,120.34c3.86,11.58,22.49,6.67,18.6-5.13
		c-12.46-37.54-25.2-75.59-28.51-115.21c-0.12-5.28-4.37-9.52-9.65-9.65C338.4,477.63,334.09,481.93,334.07,487.25L334.07,487.25z"
		/>
	<path class="st5" d="M762.35,627.77c11.03-1.58,21.91-4.05,32.53-7.41c1.85-0.37,3.48-1.47,4.51-3.05c0.56-1.53,0.56-3.21,0-4.75
		l-5.59-22.26c-0.84-4.57-2.52-8.95-4.94-12.93c-5.79-8.41-17.05-10.76-27.24-11.85s-21.22-1.77-28.94-8.49
		c10.19,24.6,18.18,50.05,23.88,76.05c1.93,11.43,5.02,22.64,9.22,33.45c0.57,1.61,1.67,2.97,3.13,3.86
		c1.44,0.51,2.98,0.61,4.48,0.31c15.2-1.77,30.59-0.97,45.53,2.35c-2.1-31.77-14.02-62.11-34.11-86.81
		c-1.77-2.81-4.67-4.72-7.95-5.25c-3.89,0.4-6.94,3.51-7.25,7.41c-0.22,3.79,0.49,7.58,2.08,11.04l18.56,51.12
		c6.1-3.49,10.34-9.51,11.58-16.44c1.13-6.87,1.23-13.86,0.31-20.76c-1.31-15.78-2.66-31.6-5.52-47.23"/>
	<path class="st5" d="M767.49,646.37c7.35-1.06,14.64-2.52,21.84-4.36c9.88-2.55,19.76-4.98,25.89-13.77
		c6.13-8.8,2.86-20.1,0.39-29.98c-1.45-7.17-3.33-14.24-5.63-21.18c-5.8-15.29-19.32-26.32-35.46-28.94
		c-3.86-0.77-8.14-1.27-12.19-1.74l-4.36-0.42c-0.58,0-5.56-0.73-2.59-0.27c2.97,0.46-2.01-0.39-2.55-0.5
		c-1.47-0.31-2.86-0.62-4.28-1.04c-0.69-0.19-1.38-0.42-2.04-0.69c2.16,1,2.59,1.16,1.31,0.54c-1.27-0.62-5.17-3.59-1.47-0.54
		c-6.44-5.29-15.74-7.95-23.38-3.01c-6.6,4.24-12.15,13.77-8.87,21.8c11.17,27.95,19.89,56.81,26.04,86.27
		c3.86,17.13,9.49,42.44,31.75,41.86c7.22-0.19,14.35-1.23,21.65-1c3.67,0,7.29,0.42,10.96,0.77h0.31c0.93,0,1.81,0.27,2.7,0.46
		c2.12,0.35,4.21,0.77,6.29,1.23c11.58,2.43,25.35-5.4,24.42-18.6c-2.28-36.81-16.21-71.94-39.78-100.32
		c-8.49-10.03-23.15-14.47-34.73-7.22c-12.46,7.72-15.7,22.76-11.58,36.08c5.56,18.29,13.12,36.23,19.64,54.02
		c3.07,10.38,13.97,16.31,24.35,13.24c1.38-0.41,2.71-0.97,3.97-1.67c18.33-9.99,23.15-31.14,21.76-50.39
		c-1.19-18.7-3.36-37.32-6.52-55.79c-1.77-9.95-14.43-16.51-23.73-13.5c-10.08,3.08-16,13.5-13.47,23.73
		c0.66,3.63,1.23,7.22,1.77,10.84c0.85,5.98-0.46-3.86,0.23,2.12c0.23,1.81,0.46,3.63,0.66,5.44c0.77,7.29,1.39,14.58,2.01,21.88
		c0.31,3.51,0.66,6.98,0.73,10.49c0,1.74,0,3.47,0,5.21c0,3.86,1-2.43,0,1.74c-0.31,1-0.42,3.32-1.2,3.86c1.31-1.12,1.39-2.78,0,0
		c-0.34,0.6-0.71,1.18-1.12,1.74c1.49-1.85,1.76-2.28,0.81-1.27c-1.04,1-0.58,0.73,1.31-0.77c-0.76,0.52-1.56,0.99-2.39,1.39
		l28.36,11.58l-15.67-43.18c-1.35-3.67-2.82-7.29-3.86-11.04c-0.39-1.27-0.58-5.59-0.42-1.23c-0.01,2.43-0.98,4.76-2.7,6.48
		l-9.22,3.86c-2.81,0.2-5.58-0.71-7.72-2.55c0.5,0,2.7,3.13,2.89,3.4c2.62,3.16-1.66-2.47,0.89,1.2c0.93,1.35,1.89,2.62,2.78,3.86
		c3.62,5.31,6.9,10.84,9.84,16.55c1.47,2.86,2.82,5.79,4.13,8.72c-1.77-3.86,0,0.42,0.5,1.35c0.5,0.93,1.16,2.97,1.7,4.51
		c2.12,6.06,3.87,12.25,5.25,18.52c0.73,3.4,1.27,6.83,1.85,10.26c0.19,1.43,0,1.08-0.19-1.16c0,0.81,0.19,1.62,0.27,2.39
		c0.19,1.89,0.35,3.86,0.46,5.63l24.42-18.64c-14.82-3.32-30.03-4.51-45.18-3.55c-1.77,0-3.86,0.23-5.48,0.54h-1.5
		c9.61,8.26,13.16,9.92,10.57,5.09l0.62,1.39c-0.35-0.81-0.62-1.62-0.93-2.43c-0.58-1.66-1.12-3.28-1.62-4.94
		c-1.89-6.4-3.24-12.96-4.63-19.48c-5.8-27.16-14.03-53.75-24.58-79.44l-32.26,18.75c7.71,6.5,17.05,10.76,27.01,12.31
		c5.09,0.81,10.3,1.43,15.43,1.85c2.16,0.27,1.85,0.19-0.93,0c0.96,0,1.89,0.27,2.82,0.46c1.66,0.31,3.28,0.66,4.9,1.12l2.01,0.58
		c2.04,0.73,1.77,0.62-0.69-0.42c0.8,0.39,1.61,0.81,2.43,1.27c1.75,1.16,1.56,0.93-0.58-0.69c0.69,0.58,1.33,1.21,1.93,1.89
		c-1.54-2.19-1.7-2.34-0.46-0.46c1,1.93,1,1.77,0-0.42c0.35,0.96,0.69,1.93,0.96,2.93c1.35,4.55,2.35,9.22,3.47,13.81l1.85,7.41
		l0.93,3.86c0.98,4.84,1.53,2.43,1.66-7.22l6.91-6.91c-3.13,2.28,2.78-0.35,0,0c-1.47,0.27-2.97,0.89-4.44,1.31
		c-2.97,0.85-5.94,1.62-8.95,2.35c-6.02,1.43-12.12,2.55-18.21,3.47c-10.03,1.47-16.44,14.62-13.5,23.73
		c3.55,10.92,13,15.05,23.73,13.47L767.49,646.37z"/>
	<path class="st5" d="M482.35,513.14l51.55,99.93c1.15,2.81,3.06,5.24,5.52,7.02c2.8,1.22,5.83,1.81,8.87,1.74
		c14.62,1.47,26.55,12.46,40.78,16.17c1.7,0.42,3.86,0.58,4.82-0.93c0.38-0.85,0.48-1.79,0.31-2.7
		c-3.47-36.55-7.55-73.03-12.23-109.42c-0.07-1.9-0.73-3.74-1.89-5.25c-1.1-0.95-2.43-1.6-3.86-1.89
		c-25.16-7.06-54.02,2.12-77.17-10.11l51.16,84.88c1.89,3.65,4.51,6.87,7.72,9.45c3.44-25.51,2.5-51.43-2.78-76.63
		c-4.65,4.38-10.62,7.09-16.98,7.72"/>
	<path class="st5" d="M465.68,522.9l40.2,77.86l9.61,18.64c3.11,7.49,8.51,13.8,15.43,18.02c4.94,2.29,10.3,3.51,15.74,3.59
		c4.9,0.35-3.86-1.31,0.85,0.19c0.93,0.31,1.93,0.46,2.89,0.77c1.46,0.35,2.89,0.86,4.24,1.5c-4.24-2.32,0,0,0.89,0.54
		c2.78,1.35,5.48,2.78,8.22,4.21c5.93,3.26,12.15,5.93,18.6,7.99c12.19,3.47,26.01-0.93,30.02-14.01c2.2-7.25,0.27-15.43-0.46-22.96
		s-1.54-15.09-2.35-22.65c-1.54-14.46-3.18-28.93-4.9-43.41c-0.85-6.92-1.71-13.83-2.59-20.72c-1.39-11.27-1.7-22.53-12.39-29.44
		c-7.72-4.9-17.29-5.9-26.08-6.83c-6.98-0.73-14.01-0.73-21.03-0.77c-7.02-0.04-13.93,0-20.87-0.73c-3.86-0.31,0,0,0.42,0
		c-2.09-0.15-4.15-0.56-6.13-1.23c-1.5-0.39-2.97-0.93-4.48-1.31c-1.5-0.39-1.97-0.69,0.23,0.23l-2.86-1.39
		c-9.2-5.38-21.01-2.28-26.39,6.92c-3.52,6.01-3.52,13.46,0,19.47l30.52,50.51l14.78,24.42c5.94,9.88,11.19,19.29,20.6,26.16
		c6,3.57,13.48,3.57,19.48,0c5.78-3.57,9.4-9.8,9.65-16.59c3.42-27.26,2.25-54.89-3.47-81.76c-3.09-15.05-22.19-17.56-32.26-8.53
		c-1.54,1.43-1.16,0.69,0.23,0c-1.16,0.62-2.32,1.31-3.43,1.97c-2.01,1.16,2.51-0.42,0.19,0c-0.89,0-4.82,0.93-0.31,0.39
		c-9.95,1.23-19.79,7.99-19.29,19.29c0.42,9.38,8.57,20.6,19.29,19.29c11.39-1.04,22.13-5.74,30.64-13.39l-32.1-8.76
		c0.62,3.01,1.2,5.98,1.7,8.99c0.31,1.81,0.58,3.63,0.85,5.44c-0.31-2.01,0-1.2,0,0.35c0.73,6.37,1.23,12.77,1.47,19.29
		c0.36,12.53-0.28,25.07-1.93,37.5l29.05-16.67c1.85,1.47,2.04,1.47,0.5,0c1.39,1.89,1.5,1.93,0.27,0c-1.23-1.93-2.08-3.4-3.13-5.09
		l-7.37-12.23l-13.81-22.8l-28.55-47.23l-26.39,26.39c14.6,6.8,30.59,10.09,46.69,9.61c7.02,0,14.04,0,21.11,0.31l4.82,0.35
		c0.96,0,5.71,0,1.23,0c1.6,0.09,3.18,0.39,4.71,0.89l3.09,0.77c-2.28-1.23-2.55-1.23-0.81,0l-6.95-6.95
		c-0.69-2.62-0.77-2.89-0.27-0.77c-0.31-2.47-0.31-2.43,0,0s0.66,5.02,0.96,7.72l1.62,13.2c1.16,9.72,2.32,19.48,3.4,29.21
		c1.08,9.72,2.08,18.87,3.05,28.32c0.5,4.71,0.96,9.45,1.47,14.16c0.23,2.55,0.5,5.05,0.73,7.72l0.35,3.86
		c0,2.7,0.31,2.51,0.58-0.54l4.94-8.49l2.32-1.93l9.72-2.62c-3.28,0.35,4.24,1.66,0.46,0c-0.46-0.19-5.94-2.12-3.4-1.12
		c2.55,1-2.08-0.96-2.59-1.23c-1.62-0.77-3.2-1.62-4.78-2.43c-6.37-3.48-12.98-6.48-19.79-8.99c-4.03-1.25-8.18-2.08-12.39-2.47
		c-1.53-0.01-3.05-0.15-4.55-0.42c1.38-0.05,2.73,0.36,3.86,1.16c1.08,0.53,1.98,1.34,2.62,2.35c0.93,1.31,0.93,1.23,0-0.19
		c-0.31-0.58-0.66-1.16-0.93-1.74c-1-1.85-1.97-3.86-2.93-5.63l-5.25-10.19l-43.72-84.65c-5.38-9.19-17.2-12.29-26.39-6.91
		c-9,5.53-12.04,17.16-6.91,26.39L465.68,522.9z"/>
	<path class="st5" d="M258.41,496.16l56.91,5.63c3.73-0.34,7.04,2.4,7.41,6.13l28.59,88.74c0.23,0.6,0.23,1.26,0,1.85
		c-0.42,0.85-1.58,0.96-2.51,0.93l-87.74-1.43l7.72-86.58c2.41,22.32,12.25,43.18,27.93,59.23c3.51,3.59,8.41,7.14,13.12,5.4
		c5.79-2.12,6.25-10.07,5.32-16.17c-2.06-13.53-6.09-26.68-11.96-39.05"/>
	<path class="st5" d="M258.41,515.46l39.86,3.86l9.49,0.93l4.75,0.5l2.82,0.27l-2.66-0.35l-7.72-5.75c-1-2.24-1.2-2.59-0.66-1.04
		c0.54,1.54,1,3.05,1.47,4.55l3.2,9.95l11.96,37.12c3.86,12.27,8.84,24.62,11.92,37.12v-10.26v0.93l4.94-8.49l-0.62,0.62l8.53-4.98
		c3.86-0.31,4.32-0.42,1.35-0.39h-1.93h-5.71l-11.58-0.19l-21.99-0.31l-44.76-0.81l19.29,19.29l7.72-86.58H249.5
		c1.6,16.3,6.39,32.12,14.08,46.57c7.41,13.7,18.48,29.36,33.22,35.57c12.08,5.03,26.03,0.67,33.11-10.34
		c3.94-6.68,5.6-14.48,4.71-22.19c-1.97-17.43-6.9-34.39-14.58-50.16c-4.32-9.14-18.21-12.23-26.43-6.91
		c-8.95,5.57-11.98,17.16-6.91,26.39c0,0,2.12,4.55,1.16,2.39s0.81,2.01,0.96,2.47c1,2.57,1.93,5.27,2.78,8.1
		c1.69,5.47,3.05,11.04,4.09,16.67l0.58,3.4c0.89,5.05,0.23-2.51,0-0.46c-0.1,1.01-0.1,2.03,0,3.05c0,3.51,0.58-3.2,0-1
		c-0.42,1.43,0,0.73,0.93-2.04l1.74-2.2c2.86-2.82,7.03-3.86,10.88-2.7c6.56,1.74-0.69-1.58,2.86,1.16
		c-1.01-0.81-1.95-1.7-2.82-2.66c-1.62-1.66-3.2-3.4-4.67-5.17c0,0-2.93-3.86-1.39-1.7s-0.96-1.39-1.23-1.81
		c-2.91-4.28-5.48-8.76-7.72-13.43c-0.23-0.46-2.04-4.44-0.93-1.93c1.12,2.51-0.73-1.97-0.77-2.01c-0.89-2.43-1.7-4.9-2.43-7.37
		c-0.73-2.47-1.2-4.51-1.66-6.79c-0.27-1.27-0.46-2.55-0.73-3.86c-0.85-4.13,0.35,3.51,0-1.04c-1.16-9.99-8.06-19.79-19.29-19.29
		c-10.55,0.24-19.05,8.74-19.29,19.29l-7.72,86.58c-0.93,10.49,9.57,19.29,19.29,19.29l55.37,0.81l28.67,0.42
		c7.02,0,14.04-0.58,19.29-5.9c5.73-5.83,7.73-14.38,5.17-22.15c-4.86-17.67-11.27-35.07-16.9-52.51l-8.45-26.24
		c-3.86-12.04-7.72-24.62-21.38-28.32c-5.62-1.1-11.33-1.76-17.05-1.97l-15.16-1.5l-32.26-3.2c-10.07-1-19.72,9.57-19.29,19.29
		c0.28,10.54,8.76,19.01,19.29,19.29L258.41,515.46z"/>
	<path class="st5" d="M244.4,442.84c17.94-11.07,31.14-28.17,45.8-43.37c15.89-15.77,32.7-30.57,50.35-44.33
		c-7.49,20.57-26.39,34.42-39.51,51.93c-8.95,11.96-16.09,26.51-29.56,32.91c-1.87,1.01-3.98,1.49-6.1,1.39
		c-2.36-0.52-4.61-1.41-6.67-2.66c-5.19-2.33-11.13-2.33-16.32,0c-1.04-16.59,12-30.87,14.04-47.38c0.04-2.52,0.63-4.99,1.74-7.25
		c1.41-1.94,3.34-3.45,5.56-4.36c13.16-6.79,27.24-11.64,41.79-14.39"/>
	<path class="st5" d="M254.13,459.51c18.87-11.88,32.87-28.67,48.04-44.64c16.33-16.47,33.71-31.86,52.05-46.07l-32.26-18.75
		c-1.74,4.59,1.89-3.55-0.35,0.81c-0.69,1.31-1.35,2.62-2.08,3.86c-1.34,2.34-2.79,4.6-4.36,6.79c-1.27,1.74-1.47,2.32,0,0.23
		c-0.88,1.2-1.82,2.34-2.82,3.43c-1.97,2.32-3.86,4.55-5.98,6.75c-8.58,8.94-16.59,18.39-24,28.32c-3.09,4.36-6.21,8.8-9.18,13.27
		c-0.85,1.12-0.58,0.77,0.81-1c-0.42,0.58-0.89,1.12-1.35,1.7s-1.54,1.81-2.35,2.7c-0.81,0.89-1.97,2.04-3.01,3.01l-1.62,1.39
		c-1.08,0.89-0.69,0.62,1.12-0.89c-0.39,0.89-2.93,1.81-3.63,2.24l-1.31,0.62c1.3-0.95,2.97-1.25,4.51-0.81c2.08,0,6.87,1.81,2.86,0
		c-2.17-1.09-4.39-2.04-6.68-2.86c-8.21-2.68-17.1-2.45-25.16,0.66l24.42,18.6c-0.06-1-0.06-2.01,0-3.01c0-2.2,0-1.97-0.23,0.73
		c0.15-1.98,0.6-3.92,1.35-5.75c0.58-1.93,1.31-3.86,2.01-5.67c0.69-1.81,0.77-1.89,0,0.39c0.39-0.93,0.81-1.85,1.23-2.78
		c4.1-8.05,7.15-16.6,9.07-25.43c0.31-1.97,0.54-3.86,0.81-5.86s0.23-2.01,0,0.62c-0.23,2.62-7.99,7.52-2.2,4.4
		c2.08-1.12,4.24-2.12,6.4-3.09l3.24-1.47c-1.89,0.81-1.77,0.77,0.31,0c8.87-3.28,17.97-5.86,27.24-7.72
		c10.28-2.81,16.33-13.43,13.51-23.7c0-0.01,0-0.02-0.01-0.03c-3.06-10.11-13.52-16.04-23.77-13.47
		c-10.45,2.05-20.67,5.13-30.52,9.18c-13,5.36-28.2,11.19-31.52,26.58c-0.44,2.19-0.75,4.41-0.93,6.64c-0.31,2.78,1.04-4.59,0,0
		c-0.54,2.2-1.08,4.36-1.81,6.52c-0.31,0.96-0.69,1.93-1.04,2.89c-0.77,1.97-0.73,2.78,0,0.35c-0.74,2.17-1.67,4.28-2.78,6.29
		c-4.71,10.76-8.95,21.49-8.49,33.49c0.42,11.15,12.23,23.61,24.42,18.6c0.93-0.39,3.24-1.7,4.36-1.39
		c-2.62,0.27-2.82,0.39-0.58,0.31c-2.32-0.42-2.78-0.5-1.35-0.19c0.75,0.15,1.49,0.37,2.2,0.66c-2.08-0.89-2.47-1.04-1.23-0.42
		c2.29,1.31,4.73,2.36,7.25,3.13c9.7,2.38,19.96,0.3,27.97-5.67c11.96-8.1,19.68-19.95,27.74-31.64c0.85-1.23,1.7-2.43,2.55-3.59
		l1.27-1.77c-1.35,1.74-1.58,2.04-0.73,0.96c2.12-2.51,4.17-5.02,6.37-7.41c3.86-4.51,8.18-8.84,12.23-13.35
		c10.11-10.65,18.13-23.11,23.61-36.73c2.31-8.43-1.33-17.35-8.87-21.76c-7.64-4.08-17.02-2.87-23.38,3.01
		c-17.9,13.89-34.91,28.89-50.93,44.91c-6.98,7.25-13.54,14.85-20.53,22.03c-3.4,3.51-6.87,6.91-10.53,10.11l-3.05,2.62
		c-0.69,0.54-3.86,2.7-0.54,0.46c-2.24,1.54-4.4,3.09-6.68,4.55c-9.58,4.66-13.57,16.21-8.91,25.79
		c4.66,9.58,16.21,13.57,25.79,8.91c0.84-0.41,1.64-0.87,2.41-1.4L254.13,459.51z"/>
	<path class="st5" d="M516.61,311.73c-22.37,21.55-42.03,45.74-58.57,72.04c16.4-8.3,35.42-9.07,53.79-10.53
		c27.86-2.24,55.53-6.44,82.8-12.58c1.74-0.25,3.41-0.9,4.86-1.89c2-2.12,3.27-4.82,3.63-7.72c7.1-28.47,39.16-45.64,45.61-74.31
		c-48.12,19.12-98.35,32.42-149.63,39.63c7.22,2.4,12.83,8.15,15.05,15.43c1.7,7.33-2.66,16.09-10.03,17.52l68.29-2.78
		c1.39,0.1,2.77-0.32,3.86-1.2c0.66-0.91,1.03-2,1.04-3.13l3.47-31.1c-15.29,7.29-31.61,12.2-48.38,14.55"/>
	<path class="st5" d="M502.99,298.07c-23.52,22.78-44.25,48.29-61.73,75.97c-4.3,7.61-3.01,17.15,3.16,23.34
		c6.34,5.92,15.75,7.14,23.38,3.01c0.96-0.5,1.97-0.96,3.01-1.43c-0.73,0.31-3.43,1.23,0,0c1.81-0.62,3.63-1.23,5.52-1.77
		c4.28-1.2,8.64-1.89,13-2.78c2.93-0.58-3.13,0.35,0,0l2.51-0.31l6.6-0.58l13.43-1.04c20.26-1.66,40.51-4.24,60.54-7.72
		c9.38-1.62,18.83-3.28,28.05-5.63c6.82-1.6,12.76-5.74,16.63-11.58c2.23-3.94,3.85-8.19,4.82-12.62c0.39-1.47,0.96-2.89,1.39-4.36
		c0.81-2.47-1.62,3.36-0.42,1.04l1.12-2.32c1.61-3.08,3.41-6.06,5.4-8.91c0.7-1.41,1.61-2.71,2.7-3.86
		c-2.51,1.89-1.62,2.04-0.58,0.73l1.66-2.08c2.28-2.78,4.59-5.48,6.91-8.22c11.58-13.5,22.84-27.59,27.01-45.22
		c1.78-6.69-0.12-13.82-4.98-18.75c-4.85-5-12.06-6.91-18.75-4.98c-48.13,19.11-98.36,32.46-149.63,39.78
		c-7.95,1.16-14.51,10.96-14.16,18.64c0.37,8.55,6.02,15.96,14.16,18.6c-4.51-1.89-0.58,0,0.46,0.58c3.86,2.12-2.66-2.51,0.54,0.5
		c3.2,3.01-1.85-3.24,0.42,0.46c2.28,3.7-0.62-3.47,0,0.54l-0.35-2.66c0,2.16,0,1.7,0.42-1.35l-0.31,1.23
		c-0.66,1.97-0.46,1.62,0.54-1.12c-1.39,3.09,1.89-2.04,0.42-0.5c-1.47,1.54-0.54,0.62,1.5-1.16c2.82-1,3.2-1.23,1.2-0.66
		c-10.27,2.83-16.3,13.46-13.47,23.73c2.31,8.37,9.92,14.16,18.6,14.16l61.73-2.51c6.71-0.27,13.74,0,19.68-3.86
		c8.1-4.86,10.22-12.35,11.27-21.03c1.2-10.07,2.24-20.14,3.36-30.21c0.1-6.87-3.55-13.25-9.53-16.63c-6.06-3.37-13.43-3.37-19.48,0
		c-0.62,0.31-7.18,3.16-3.4,1.58c-1.62,0.69-3.24,1.31-4.86,1.93c-3.86,1.43-7.72,2.74-11.58,3.86c-7.84,2.29-15.83,4-23.92,5.13
		c-10.03,1.47-16.4,14.7-13.47,23.77c3.55,10.96,12.96,15.01,23.73,13.47c18.47-2.78,36.43-8.3,53.28-16.36l-29.05-16.67
		l-1.85,16.48l-0.81,7.33c0,1.5-0.39,3.05-0.5,4.55s0,1.23,0,0c0.1-1.37,0.52-2.69,1.23-3.86l6.91-6.95
		c1.62-1.08,9.49-1.58,3.09-1.31h-3.86l-8.53,0.35l-18.02,0.73l-35.11,1.43l5.09,37.89c15.34-4.34,25.54-18.82,24.46-34.73
		c-1.62-17.63-13.85-28.98-29.48-35.42V335c51.28-7.33,101.52-20.69,149.67-39.82l-23.73-23.73c-0.39,1.5-0.77,2.97-1.23,4.4
		c-0.27,0.85-0.58,1.62-0.85,2.43c-0.66,2.01,0.66-1.58,0.69-1.62c-1.86,2.91-3.53,5.93-4.98,9.07c-0.85,1.27-1.7,2.55-2.59,3.86
		c-0.89,1.31-1.04,1.43-1.58,2.12c-1.2,1.74,1-1.23,1-1.27c-2.47,2.47-4.51,5.59-6.79,8.3c-9.07,10.73-18.87,21.53-24.62,34.73
		c-1.92,4.06-3.48,8.28-4.67,12.62c-0.2,0.61-0.35,1.23-0.46,1.85c-0.31,1.31-1.58,2.43,0,0.69c1.33-2.03,2.9-3.9,4.67-5.56
		c3.13-2.16,1.85-0.96,0-0.54c-9.11,2.08-18.25,3.86-27.43,5.44c-4.28,0.73-8.57,1.47-12.85,2.08l-6.48,0.96
		c-3.86,0.54-1.23,0-0.39,0l-3.86,0.46c-9.18,1.13-18.39,2.06-27.63,2.78c-21.38,1.7-42.44,3.51-61.73,13.08l26.39,26.39
		c3.96-6.33,8.12-12.54,12.46-18.64c2.35-3.28,4.75-6.48,7.18-9.68c3.43-4.55-2.35,2.89,1.2-1.54c1.27-1.58,2.51-3.16,3.86-4.71
		c9.63-11.79,19.93-23.01,30.87-33.61c7.4-7.66,7.19-19.88-0.47-27.28c-7.48-7.22-19.33-7.22-26.81,0L502.99,298.07z"/>
	<path class="st5" d="M788.4,251.62l-31.14,33.88c-3.87,3.83-7.15,8.21-9.72,13c-3.51,7.37-4.05,16.82-10.65,21.61l75.97-2.2
		c5.08,0.25,10.16-0.68,14.82-2.74c4.17-2.65,7.69-6.19,10.3-10.38l56.29-77.86c-35.39,6.19-70.23,15.23-104.18,27.01
		c-3.55,0.97-6.93,2.51-9.99,4.55c-4.23,3.91-7.75,8.53-10.38,13.66c-11.58,17.63-31.25,29.36-40.05,48.5l84.34-9.18
		c2.61,0.25,4.92-1.67,5.17-4.28c0.07-0.71-0.03-1.42-0.27-2.09c-0.58-18.75,2.7-38.58,14.51-53.17
		c-17.3,7.96-33.67,17.81-48.81,29.36"/>
	<path class="st5" d="M774.74,237.96c-11.11,12.08-22.42,24-33.34,36.27c-6.15,6.64-10.92,14.43-14.04,22.92
		c-0.93,2.62-1.7,5.32-2.59,7.95c-1.39,3.86,1.62-3.05-0.27,0.31c-1.12,1.77-0.89,1.5,0.73-0.73c-0.61,0.65-1.28,1.25-2.01,1.77
		c-5.9,4.78-6.68,14.66-3.86,21.07c2.91,7.14,9.8,11.86,17.52,12l55.1-1.58c18.64-0.54,39.55,1.62,54.02-12.54
		c6.08-6.76,11.59-14.01,16.48-21.68l15.74-21.8l32.64-45.14c4.48-6.17,2.82-15.86-1.5-21.41c-4.81-6.07-12.73-8.79-20.26-6.95
		c-18.91,3.32-37.7,7.37-56.26,12.27c-18.59,4.47-36.84,10.22-54.63,17.21c-9.65,4.31-17.64,11.63-22.76,20.87
		c-1.04,1.66-2.04,3.28-3.13,4.9c-0.62,0.89-2.89,4.75-0.5,0.81c-2.25,3.2-4.84,6.15-7.72,8.8c-11.27,11.58-23.81,22.8-30.87,37.7
		c-3.36,6.06-3.36,13.42,0,19.48c3.41,5.97,9.79,9.62,16.67,9.53l43.14-4.71c15.43-1.66,31.21-2.32,46.3-5.17
		c11.15-2.27,19.14-12.12,19.06-23.5c0.23-5.75,0-11.58,0.5-17.21c0.5-5.63-0.81,3.86,0-1.12c0.31-1.54,0.58-3.09,0.93-4.63
		c0.55-2.54,1.23-5.05,2.04-7.52c0.54-1.66,1.62-4.24,0.27-1.2c0.62-1.43,1.31-2.82,2.01-4.17c0.69-1.35,1.5-2.7,2.35-3.86
		s3.32-4.59,0.62-1.16c5.98-7.72,7.72-17.09,1.5-25.31c-5.96-7.53-16.49-9.64-24.89-4.98c-17.28,8.04-33.66,17.89-48.85,29.4
		c-8.03,6.06-13,16.9-6.91,26.39c5.09,7.91,17.79,13.43,26.39,6.91c15.19-11.49,31.55-21.35,48.81-29.4l-23.34-30.29
		c-8.16,10.02-13.99,21.74-17.05,34.3c-1.43,6.35-2.37,12.8-2.82,19.29c-0.23,2.62-0.35,5.29-0.35,7.72c0,1.31,0,2.6,0,3.86v1.54
		c0,3.47,0.31,1.97,1.23-4.51l6.95-6.91c1.04-0.62,6.83-1.54,2.39-1.08c-1.93,0-3.86,0.42-5.75,0.62l-9.61,1.04l-22.03,2.39
		l-43.14,4.71l16.67,29.05c1.69-3.49,3.66-6.83,5.9-9.99c2.74-3.86-2.62,2.93,0.58-0.69c1.27-1.47,2.55-2.97,3.86-4.4
		c4.67-5.09,9.72-9.84,14.51-14.82c5.96-6.07,11.31-12.71,15.97-19.83c1.04-1.66,2.01-3.32,3.05-4.94l0.81-1.2
		c1.23-1.74,1.12-1.58-0.39,0.5c0.61-0.73,1.28-1.4,2.01-2.01c-1.97,1.47-2.04,1.62-0.19,0.42c1.85-1.2,1.85-0.93-0.31,0l2.2-0.81
		c34.17-11.9,69.28-20.94,104.95-27.01l-21.8-28.36l-30.4,42.06l-14.62,20.22l-6.75,9.34l-4.51,6.25l-0.85,1.2
		c-1.27,1.7-1.2,1.58,0.27-0.39c-0.9,1.16-1.92,2.23-3.05,3.16c2.04-1.47,2.12-1.62,0.35-0.5c2.08-0.77,2.47-0.96,1.12-0.54
		c-5.17,0.73,2.55,0.27-1.62,0.46h-4.59l-24.69,0.73l-51.24,1.58l13.66,32.95c6.01-5.69,10.28-12.97,12.31-20.99
		c0.42-1.31,0.81-2.66,1.27-3.86c0.46-1.2,0.58-1.74,0.93-2.62c-1.04,2.32-1.2,2.78-0.5,1.39c0.69-1.39,1.89-3.28,3.01-4.82
		c-1.97,2.7,0.23,0,1.16-1.16c10.92-12.23,22.19-24.19,33.3-36.27c6.83-7.41,7.91-20.03,0-27.28c-7.59-7.39-19.69-7.39-27.28,0
		L774.74,237.96z"/>
	<path class="st5" d="M650.31,915.88c-17.32-16.98-35.81-34.73-59.3-40.55c-13.77-3.43-28.32-2.59-42.1-6.02
		c-13.77-3.43-26.58-11.19-39.05-18.44c-40.5-23.61-82.92-43.75-126.83-60.19c84.54,8.68,168.42,22.57,252.26,36.46
		c11.66,1.34,23.05,4.46,33.76,9.26c17.44,8.95,29.25,26.58,35.03,45.3s6.29,38.58,6.02,58.22
		c-50.16,9.68-101.24,19.29-151.83,12.93c-31.87-4.09-62.74-14.47-94.72-17.21c-22-1.88-44.17-0.1-65.59,5.25"/>
	<path class="st5" d="M766.25,799.94c-6.25-6.13-12.58-12.27-19.29-17.94c-13.66-11.58-28.09-22.49-42.44-33.07
		c-3.6-2.64-7.35-5.06-11.23-7.25c-1.81-1-3.67-1.97-5.52-2.86c-14.16-6.71-28.94-12.69-43.48-18.4c-4.25-1.67-8.64-2.96-13.12-3.86
		c-23.69-4.82-47.84-6.25-71.77-9.22l43.56,5.86c-8.08-1.07-15.98-3.21-23.5-6.37l39.16,16.51c-12.85-5.67-24.69-13.35-36.92-20.22
		c-12.23-6.87-25.31-13.81-38.24-20.22c-38.07-18.68-77.07-35.43-116.83-50.16l-43.56,322.1c25.2,2.59,50.39,5.67,75.55,9.03
		l-43.6-5.86c35.19,4.75,70.3,10.11,105.37,15.74c17.52,2.83,35.05,5.7,52.59,8.6c15.97,2.66,32.8,4.21,48,10.26l-39.2-16.51
		c4.68,1.97,9.11,4.5,13.2,7.52l-33.18-25.62c4.59,3.61,8.74,7.75,12.35,12.35l-25.66-33.18c4.48,5.94,8.19,12.42,11.04,19.29
		l-16.51-39.16c3.71,9.37,6.21,19.17,7.45,29.17l-5.71-43.95c1.39,12.41,1.92,24.9,1.58,37.39l120.38-158.19
		c-21.11,4.09-42.21,8.06-63.51,11l43.41-5.63c-29.84,4.52-60.14,5.09-90.13,1.7l43.6,5.83c-27.01-3.86-53.28-11.58-80.29-15.43
		c-27.01-3.86-54.6-9.03-81.95-7.72c-20.69,1.46-41.3,3.95-61.73,7.49c-7.29,1.04-14.51,2.39-21.68,4.13
		c-20.81,4.8-40.02,14.92-55.75,29.36c-17.86,11.45-32.47,27.3-42.44,46.03c-11.74,18.24-18.4,39.29-19.29,60.96
		c-4.9,21.66-3.88,44.23,2.93,65.36l16.51,39.2c14.26,24.31,34.52,44.56,58.84,58.8l39.16,16.55c28.54,7.79,58.66,7.79,87.2,0
		c7.14-1.77,14.36-3.17,21.65-4.17l-43.6,5.86c18.22-2.39,36.68-2.39,54.9,0l-43.6-5.86c15.43,2.12,30.37,5.56,45.45,8.87
		c28.63,6.08,57.58,10.6,86.7,13.54c45.49,4.9,91.87-2.93,136.63-9.65c18.13-2.74,36.11-6.21,54.02-9.65l39.16-16.55
		c18.68-9.91,34.52-24.45,45.99-42.21c10.08-10.09,17.36-22.63,21.11-36.38c10.25-19.44,15.12-41.25,14.12-63.2
		c0.39-28.13-3.4-54.56-7.72-82.76c-0.9-6.45-2.31-12.83-4.21-19.06c-0.89-2.82-1.89-5.56-3.01-8.33
		c-6.13-15.43-12.04-31.18-19.64-45.88c-8.41-16.21-23.46-33.1-33.57-45.61c-3.64-4.58-7.78-8.73-12.35-12.39
		c-13.39-10.73-29.32-25.62-46.3-33.18c-12.85-5.71-27.55-12.27-40.71-17.13c-1.54-0.58-3.13-1.16-4.71-1.66
		c-3.47-1.08-7.02-1.93-10.57-2.66c-27.63-5.75-55.87-9.45-83.77-13.93c-28.47-4.58-57-8.93-85.58-13.04
		c-46.3-6.52-92.6-12.81-138.9-17.59c-21.95-1-43.77,3.88-63.2,14.12c-20.29,6.5-38.53,18.18-52.94,33.88l-25.62,33.18
		c-11.73,18.25-18.39,39.29-19.29,60.96c-3.9,14.27-3.9,29.33,0,43.6c0.9,21.67,7.56,42.72,19.29,60.96l25.62,33.26
		c20.07,20.09,45.01,34.62,72.38,42.17c10.69,3.86,21.26,8.26,31.79,12.69l-39.16-16.55c28.77,12.18,56.84,25.95,84.07,41.25
		c6.68,3.86,13.27,7.72,19.95,11.58c18.66,10,38,18.66,57.88,25.93c7.05,2.76,14.41,4.66,21.92,5.67c21.57,3.13,43.18,5.4,64.78,8.1
		l-43.52-5.98c7.16,0.92,14.17,2.74,20.87,5.4l-39.2-16.55c8.15,3.58,15.82,8.15,22.84,13.62l-33.18-25.66
		c9.13,7.32,17.84,15.15,26.08,23.46c14.34,15.69,32.52,27.37,52.74,33.92c19.42,10.24,41.23,15.11,63.16,14.12
		c21.95,0.99,43.76-3.89,63.2-14.12c20.22-6.55,38.4-18.23,52.74-33.92l25.66-33.18c14.7-25.1,22.43-53.67,22.38-82.76l-5.86-43.6
		c-7.54-27.36-22.08-52.3-42.17-72.34H766.25z"/>
	<path class="st5" d="M762.63,747.73c41.84,9.34,85.13,10.25,127.33,2.66c-19.52,55.6-26.12,114.75-32.56,173.32
		c-3.47,31.66-6.96,63.34-10.46,95.03"/>
	<path class="st5" d="M749.82,794.23c50.19,11.65,102.27,12.56,152.83,2.66l-59.34-59.34c-24.39,70.03-29.75,145.27-37.81,218.5
		l-6.91,62.54c-1.23,11.58,6.33,26.28,14.16,34.11c18.81,18.83,49.33,18.84,68.15,0.03c0.01-0.01,0.02-0.02,0.03-0.03l7.72-9.76
		c4.33-7.38,6.59-15.79,6.56-24.35c5.56-50.39,10.42-100.94,17.09-151.25l-1.7,12.85c5.32-39.7,12.69-79.25,25.89-117.14
		c5.56-15.94-0.85-35.38-12.42-46.92c-5.89-5.92-13.21-10.2-21.26-12.42c-8.4-2.28-17.26-2.28-25.66,0
		c-4.78,0.85-9.61,1.62-14.43,2.28l12.81-1.74c-28.45,3.76-57.28,3.76-85.73,0l12.85,1.74c-9.07-1.23-18.1-2.86-27.01-4.82
		c-12.57-3.15-25.86-1.41-37.2,4.86c-22.99,13.45-30.73,42.99-17.29,65.98c6.36,10.85,16.7,18.79,28.82,22.15L749.82,794.23z"/>
	<path class="st5" d="M847.09,1021.91l-5.25,35.27c-0.29,4.91-1.92,9.65-4.71,13.7c-6.1,7.49-17.59,6.48-27.01,4.67
		c-129.53-24.58-255.35-74.66-387.15-76.4"/>
	<path class="st5" d="M800.59,1009.1l-3.86,24.15c-0.58,7.18-1.96,14.27-4.13,21.14l4.86-11.58c-0.62,1.36-1.37,2.65-2.24,3.86
		l7.72-9.76c-0.85,0.94-1.78,1.8-2.78,2.59l9.76-7.72c-1.03,0.7-2.13,1.3-3.28,1.77l11.58-4.86c-1.58,0.6-3.23,1.02-4.9,1.27
		l12.81-1.7c-3.58,0.41-7.19,0.41-10.76,0l12.81,1.7c-25.43-3.43-50.78-10.26-75.66-16.32c-25.74-6.29-51.32-13.08-76.94-19.72
		c-50.7-13.2-101.63-26.01-153.49-33.8c-32.82-5.26-65.97-8.32-99.2-9.14c-12.77,0.14-24.99,5.22-34.11,14.16
		c-18.84,18.8-18.87,49.32-0.06,68.15c9.06,9.07,21.35,14.16,34.17,14.15c25.06,0.46,50.06,2.4,74.89,5.79l-12.81-1.74
		c54.6,7.45,108.04,20.72,161.47,34.73c26.78,6.95,53.55,14.04,80.41,20.6c29.09,7.1,58.69,14.89,88.51,18.1
		c3.14,0.36,6.3,0.45,9.45,0.27c6.46-0.28,12.86-1.34,19.06-3.16c20.11-5.99,35.88-21.67,41.98-41.75
		c2.07-6.9,3.45-13.98,4.13-21.14l3.86-24.15c2-6.24,2.29-12.9,0.85-19.29c-0.29-6.38-2.26-12.57-5.71-17.94
		c-13.46-23-43.01-30.73-66.02-17.29c-9.84,6.33-20.3,16.71-22.15,28.82L800.59,1009.1z"/>
	<path class="st5" d="M299.46,1032.67c-22.93-1.73-46,0.18-68.33,5.67c24.69-34.73,35.11-77.4,39.9-119.61s4.59-84.88,10.61-127.02"
		/>
	<path class="st5" d="M299.46,984.44c-27.23-1.72-54.56,0.78-81.03,7.41l54.44,70.84c10.61-15.77,19.33-32.73,25.97-50.54
		c5.76-14.66,10.21-29.81,13.27-45.26c7.72-36.77,9.84-74.35,12.12-111.89c1.23-19.95,2.62-39.9,5.25-59.73l-1.74,12.85
		c0.19-1.27,0.35-2.51,0.54-3.86c2.84-12.57,1.12-25.74-4.86-37.16c-13.46-23-43.01-30.73-66.02-17.29
		c-9.76,6.29-20.45,16.75-22.15,28.82c-3.86,27.01-6.13,53.82-7.72,81.03c-1.39,22.96-2.74,45.95-5.83,68.76l1.74-12.81
		c-3.1,25.28-9.43,50.06-18.83,73.73l4.86-11.58c-5.3,12.66-11.95,24.72-19.83,35.96l-4.86,11.58l-1.74,12.81
		c0.11,10.63,3.74,20.92,10.34,29.25c11.83,15.33,31.61,22.19,50.39,17.48c7.72-1.83,15.43-3.28,23.15-4.36l-12.85,1.7
		c14.99-1.93,30.14-2.36,45.22-1.27c11.58,0.81,25.93-5.98,34.11-14.16c18.83-18.81,18.84-49.33,0.02-68.15
		c-0.01-0.01-0.02-0.02-0.02-0.03c-9.32-8.63-21.42-13.64-34.11-14.12H299.46z"/>
	<path class="st5" d="M236.07,972.56c18.8-101.74,32.13-204.42,39.93-307.59c25.65-5.81,52.05-7.57,78.25-5.21"/>
	<path class="st5" d="M282.37,985.41c15.43-83.3,27.24-167.34,35.65-251.61c2.29-22.92,4.3-45.86,6.02-68.83l-35.42,46.53
		c7.18-1.62,14.35-2.89,21.65-3.86l-12.85,1.74c18.79-2.47,37.8-2.89,56.68-1.23c11.58,1.04,26.08-6.1,34.07-14.12
		c18.83-18.75,18.89-49.22,0.13-68.04c-0.04-0.04-0.09-0.09-0.13-0.13l-9.76-7.72c-7.37-4.32-15.76-6.6-24.31-6.6
		c-30.52-2.34-61.21,0-91.02,6.95l-11.58,4.86c-5.5,2.92-10.16,7.2-13.54,12.42c-6.42,8.41-10.04,18.63-10.34,29.21
		c-4.24,56-10.1,111.83-17.56,167.49l1.7-12.85c-6.33,46.87-13.77,93.58-22.34,140.14c-2.39,12.96-2.01,25.43,4.86,37.16
		c13.4,22.99,42.91,30.77,65.9,17.37c0.03-0.01,0.05-0.03,0.08-0.04c10.03-6.48,19.91-16.63,22.15-28.82L282.37,985.41z"/>
	<path class="st5" d="M330.21,784.62c12.81-11.19,32.22-10.42,48.5-5.52c16.28,4.9,31.68,13.23,48.54,15.24
		c27.01,3.16,53.59-10.46,81.03-10.84c30.29-0.39,58.07,15.43,85.31,28.51s58.45,24.58,87.24,15.12
		c24.42-8.03,45.95-30.48,71.19-25.7"/>
	<path class="st5" d="M331.95,786.32c23.73-19.87,56.18,0,80.64,7.33c13.48,3.82,27.67,4.44,41.44,1.81
		c15.43-2.55,30.13-7.45,45.61-9.03c61.04-6.33,107.22,54.02,168.5,45.95c14.89-1.93,27.63-8.95,40.51-16.17
		c12.89-7.22,27.01-15.09,42.44-12.46c3.01,0.54,4.32-4.13,1.27-4.63c-27.01-4.59-47.42,16.9-71.11,25.23
		c-30.87,10.84-63.62-3.01-91.29-16.63c-26.2-12.89-53.63-27.59-83.69-26.58c-15.12,0.5-29.75,4.75-44.45,7.72
		c-15.94,3.43-31.45,4.78-47.3,0.23c-27.01-7.72-60.15-28.13-86.16-6.33c-2.39,2.01,1.04,5.4,3.43,3.4L331.95,786.32z"/>
	<path class="st5" d="M331.49,867.38c12.73-3.09,23.34-11.92,35.81-15.86c24.58-7.72,50.47,4.21,74.43,13.77
		c42.02,16.75,87.51,26.43,132.61,22.92c47.3-3.67,94.57-21.57,141.02-12c31.68,6.52,61.73,25.62,93.87,20.95"/>
	<path class="st5" d="M332.11,869.73c14.16-3.86,25.7-13.74,39.97-17.02c16.09-3.86,32.72,0.96,47.84,6.52s30.06,12.19,45.57,17.13
		c15.6,5.08,31.57,8.95,47.77,11.58c31.83,4.67,64.22,4.05,95.84-1.85c32.95-5.63,66.75-13.85,100.32-8.45s64.74,26.7,99.82,21.99
		c3.01-0.39,3.05-5.21,0-4.82c-31.87,4.28-60.62-13.5-90.79-20.33c-31.95-7.22-64.63-1.31-96.46,4.4
		c-16.6,3.33-33.37,5.72-50.24,7.14c-16.32,1-32.7,0.46-48.92-1.62c-33.53-4.24-64.51-15.43-95.8-27.63
		c-15.97-6.21-33.18-11.92-50.58-9.68c-16.78,2.16-29.48,13.77-45.53,17.98c-1.26,0.48-1.89,1.88-1.41,3.13
		c0.41,1.09,1.54,1.73,2.68,1.53L332.11,869.73z"/>
	<path class="st5" d="M333.22,936.64c54.02-10.11,108.04-20.26,162.71-24.5c26.39-2.04,53.59-2.62,78.48,6.33
		c29.63,10.65,52.9,33.61,79.37,50.7c9.07,5.83,19.02,11.15,29.79,11.31c9.95,0,19.29-4.09,28.44-8.3l113.51-52.55"/>
	<path class="st5" d="M333.88,938.95c35.65-6.68,71.3-13.39,107.26-18.37c18.21-2.55,36.46-4.63,54.79-6.06
		c16.68-1.61,33.48-1.61,50.16,0c16.86,1.96,33.13,7.37,47.81,15.9c13.01,7.93,25.53,16.63,37.5,26.04
		c11.85,8.8,24.12,18.6,38.08,23.73c15.74,5.79,30.02,0.39,44.49-6.33l112.59-52.13c2.82-1.27,0.39-5.44-2.43-4.17l-99.51,46.07
		c-15.7,7.29-32.91,18.17-50.82,12.93c-14.78-4.36-27.78-15.43-39.97-24.27c-24.93-18.56-49.54-36.69-81.03-41.67
		c-33.57-5.36-68.8-0.46-102.21,3.86c-39.63,5.13-78.94,12.5-118.22,19.83c-3.05,0.58-1.74,5.25,1.31,4.67L333.88,938.95z"/>
	<path class="st5" d="M755.64,707.45c28.29-0.51,56.59-1.8,84.88-3.86"/>
	<path class="st5" d="M755.64,717.1c28.29-0.54,56.59-1.83,84.88-3.86c5.28-0.1,9.54-4.36,9.65-9.65c-0.06-5.3-4.34-9.58-9.65-9.65
		c-28.29,1.98-56.59,3.27-84.88,3.86C743.26,698.04,743.22,717.33,755.64,717.1z"/>
	<path class="st5" d="M244.1,635.99h15.43c2.56-0.04,5-1.06,6.83-2.86c3.75-3.76,3.75-9.86,0-13.62c-1.83-1.78-4.28-2.78-6.83-2.82
		H244.1c-2.54,0.01-4.98,1.03-6.79,2.82c-3.76,3.68-3.83,9.72-0.14,13.48c0.05,0.05,0.09,0.1,0.14,0.14
		C239.12,634.92,241.55,635.94,244.1,635.99z"/>
	<path class="st5" d="M700.39,1118.91h47.07c5.33,0,9.65-4.32,9.65-9.65s-4.32-9.65-9.65-9.65h-47.07c-5.33,0-9.65,4.32-9.65,9.65
		S695.06,1118.91,700.39,1118.91z"/>
</g>
</svg>
