<?xml version="1.0" encoding="utf-8"?>
<!-- Generator: Adobe Illustrator 27.0.0, SVG Export Plug-In . SVG Version: 6.00 Build 0)  -->
<svg version="1.1" id="Capa_1" xmlns="http://www.w3.org/2000/svg" xmlns:xlink="http://www.w3.org/1999/xlink" x="0px" y="0px"
	 viewBox="0 0 1080 1350" style="enable-background:new 0 0 1080 1350;" xml:space="preserve">
<style type="text/css">
	.st0{fill:#FFFFFF;stroke:#FFFFFF;stroke-miterlimit:10;}
	.st1{fill:#D18730;}
	.st2{fill:#FF9498;}
	.st3{fill:#284565;}
	.st4{fill:#284566;}
	.st5{fill:#FFFFFF;}
	.st6{fill:#FFBD59;}
</style>
<path class="st5" d="M1078.3,417c-51.44,8.28-102.99,16.15-154.65,23.59c-40.99,5.91-81.91,11.52-122.77,16.85
	c-0.21-0.79-0.59-1.54-1.19-2.17c-1.94-1.9-5.04-1.9-6.97,0c-0.64,0.75-1.18,1.57-1.63,2.44l-5.06-0.94
	c-0.23-0.38-0.48-0.75-0.7-1.13c-2.15-3.59-3.86-7.41-5.11-11.4c-1.26-3.97-2.02-8.08-2.28-12.24c-0.26-4.38-0.13-8.83-2.62-12.69
	c-2.37-3.19-5.58-5.65-9.28-7.1c-4.04-2.24-8.51-3.6-13.11-3.98c-0.06,0-0.11,0.01-0.17,0.01c-3.17-5.77-10.35-8.28-16.76-9.02
	c-18.35-2.12-39.32,0.86-54.62,11.51c-4.99,3.42-9.29,7.68-12.76,12.55c-3.3-3.12-9.73-2.71-13.68-2.04
	c-10.15,1.83-18.37,9.26-21.23,19.16c-0.2,0.74-0.24,1.43-0.14,2.06c-0.96,0.78-1.97,1.47-3.01,2.11l-13.48,4.89
	c-6.05,1.13-12.38,1.33-18.26,1.53c-1.92,0.06-3.25,1.02-4.01,2.31c0.64-20.82,1.26-41.63,1.84-62.45c0.35,0.15,0.73,0.27,1.17,0.3
	l-0.03-0.16c29.88,2.02,59.45-4.04,88.15-11.77c29.36-7.86,58.45-16.57,87.89-24.17c15.22-3.93,30.49-7.7,45.79-11.32l168.59-33.43
	c21.84-3.51,43.73-6.73,65.66-9.58c4.12-0.55,4.17-7.1,0-6.55c-60.44,8.02-120.52,18.32-180.23,30.9
	c-53.42,11.3-106.25,24.8-158.77,39.43l-103.15,20.45c-4.62,0.06-9.26-0.04-13.9-0.36c-0.37-0.03-0.69,0.02-1,0.09
	c0.09-3.33,0.2-6.66,0.29-10c1.61-60.29,0.02-120.62-4.71-180.74c10.93-2.74,22.03-4.74,33.23-5.94c6.01-0.63,12.02-1.03,18.03-1.21
	c5.4-0.18,11.27,0.63,16.59-0.29c2.28-0.27,4.34-1.48,5.69-3.33c1.13-2.23,1.5-4.74,1.17-7.19c3.38-1.69,6.81-3.31,10.26-4.88
	l96.38-21.15c1.87-0.18,3.74-0.33,5.6-0.56c12.99-1.76,25.79-4.72,38.24-8.83c0.72-0.23,1.45-0.47,2.17-0.7l220.87-48.47
	c6.64-0.45,13.29-0.82,19.94-1.1c4.19-0.16,4.22-6.71,0-6.55c-53.67,2.26-106.96,10.17-158.97,23.59
	c-26.21,6.74-51.43,15.41-76.93,24.04c-12.62,4.5-25.57,8-38.74,10.48c-13.68,2.36-27.6,2.62-41.39,3.83
	c-13.73,1.23-27.08,4.08-40.09,8.11c-0.03-0.12-0.03-0.23-0.07-0.35l-7.68-25.71c-2.16-8.01-4.78-15.89-7.86-23.59
	c-6.4-14.81-18.35-24.04-31.87-32.11c-2.62-1.55-6.55-3.04-8.15-5.74c-1.6-2.7-2.33-6.16-4.25-8.99
	c-3.91-5.79-9.54-10.2-16.09-12.61c-15.15-5.58-32.24,2.44-44.93,10.48c-14.83,9.39-27.31,21.93-39.36,34.55
	c-4.43-3.92-9.7-8.48-15.85-7.16c-6.34,1.36-8.6,7.86-7.86,13.66c0.29,2.23,1.78,5.77,0.84,7.86c-0.44,0.75-1.02,1.42-1.7,1.97
	c-0.87,0.88-1.64,1.84-2.36,2.84c-66.52,3.33-129.93,26.06-191.32,50.44c-65.95,26.21-131.84,52.71-196.93,81.02
	c-14.03,6.1-27.99,12.34-41.9,18.65l-60.65,20.48c-2.3-0.03-4.61-0.2-6.93-0.55c-4.14-0.63-5.9,5.69-1.76,6.32h0.1
	c16.57,2.62,32.29-2.62,47.31-9.12c16.22-7.05,32.27-14.73,48.47-21.89c14.63-6.47,29.32-12.8,44.03-19.06l353.72-119.43
	c1.12-0.08,2.25-0.16,3.37-0.23c-0.35,3.83,0.87,7.73,3.64,10.65c4.72,5.56,12.58,6.42,19.4,5.9c1.41-0.34,2.89-0.34,4.3,0
	c0.39,0.18,0.84,1.02,1.13,1.52c1.18,2.65,2.79,5.09,4.74,7.23c1.94,1.87,5.01,1.87,6.95,0c1.91-1.92,1.91-5.02,0-6.95l0.08,0.05
	c-2.5-2.2-3.37-5.73-5.61-8.25c5.06-0.3,10-1.74,14.42-4.28c3.01-1.78,4.59-5.26,3.93-8.7c-1.11-3.07-3.18-5.71-5.9-7.52
	l-10.21-8.94c0.26-0.28,0.53-0.55,0.78-0.83l141.39,56.93l1.12,3.72c0.09,0.29,0.21,0.54,0.32,0.79c-9.8,3.49-19.4,7.6-28.81,12.19
	c-0.01-0.06-0.01-0.12-0.02-0.18l-0.23-2.65c0.01-2.58-0.48-5.13-1.44-7.52c-2.62-5.24-8.13-5.24-13.11-3.91l-18.35,4.59
	l-41.46,10.29c0.04-0.41,0.08-0.82,0.13-1.22c0-0.63,0.58-4.06,0-1.13c0.18-1.18,0.34-2.33,0.55-3.49c0.47-2.62,1.02-5.24,1.68-7.99
	c1.36-5.35-0.74-10.75-4.89-13.87c-0.57-0.88-1.38-1.54-2.33-1.92c-1.88-3.64-7.64-3.76-9-0.31c-2.82,0.62-5.65,1.19-8.47,1.68
	c-0.41,0-4.14,0.62-3.38,0.56l-3.59,0.41c-6.02,0.59-12.07,0.83-18.11,0.73c-1.18,0-2.3,0.21-3.39,0.5
	c-2.82-2.07-7.96-0.83-8.01,3.77l0.08-0.05l-0.02,2.44c-1.09,1.91-1.76,4.09-1.76,6.45c0,2.27,0.63,4.38,1.65,6.24l-1.62,180.39
	l-0.02,1.86c-7.22-0.98-14.47-1.65-21.72-2.01l7.39-16.94c1.52-2.53,3.04-5.07,4.57-7.6c2.75-4.56,5.53-9.15,8.34-13.71
	c0.91-1.56,0.38-3.57-1.18-4.48c-1.56-0.91-3.57-0.38-4.48,1.18c-8.34,13.68-16.62,27.42-24.77,41.25
	c-27.34-0.28-54.64,3.79-80.86,12.2c-0.98,0.31-1.7,0.84-2.25,1.47c-2.69-2.95-5.97-5.48-9.91-6.55
	c-11.01-2.8-21.14,7.7-24.11,18.21L245.9,412.55l-143.51,46.94c-26.21,8.57-52.42,18.64-79.45,23.59c-4.17,0.73-2.41,7.05,1.73,6.32
	v0.03c24.19-4.32,47.47-13.11,70.77-20.63l71.45-23.43l143.48-47.18l71.12-23.34c0.36,5.69,3.09,10.98,7.59,14.53
	c2.09,1.69,4.54,2.88,7.16,3.49c0.41,0.08,0.84,0.11,1.25,0.16l-6.06,16.22c-0.73-0.03-1.46-0.04-2.19-0.08
	c-6.32-0.26-6.32,9.57,0,9.83l0.31,0.21c0.43,0.02,0.86,0.02,1.3,0.04c-0.59,3.46-0.43,7.25-0.67,10.57
	c-0.31,4.32,4.3,5.53,7.39,4.22l7.2-3.03c0.18,0.35,0.34,0.72,0.49,1.11c-0.53,2.94-1.12,5.88-1.81,8.79c-0.94,4.4,4.8,8.81,8.2,4.8
	c2.84-3.19,4.24-7.41,3.88-11.66c-0.04-0.52-0.16-1.03-0.24-1.55c0.35-1.91,0.67-3.82,0.95-5.74c9.81,4.52,19.72,8.81,29.72,12.87
	c-10.78,21.25-21.07,42.74-31.03,64.42c-26.52,7.05-53.01,14.23-79.43,21.69c-68.13,19.22-135.85,39.8-203.17,61.73
	c-18.48,6.03-36.91,12.27-55.38,18.35c-18.48,6.08-37.12,11.59-56.43,13.53c-4.17,0.42-4.19,7,0,6.55v-0.03
	c34.34-3.49,67.02-16.8,99.6-27.5c33.81-11.13,67.74-21.91,101.78-32.34c6.15-1.89,12.32-3.7,18.48-5.57l170.85-48.28
	c-1.59,3.51-3.22,7-4.8,10.52c-16.83,37.67-32.34,75.07-47.18,113.15c-14.84,38.09-29.17,76.77-43.01,115.33
	c-13.84,38.56-27.44,77.98-40.86,117.01c-1.64,4.82-3.3,9.65-4.98,14.5c-1.36,3.98,4.95,5.69,6.32,1.73
	c4.46-12.95,8.94-25.9,13.41-38.86l148.87-341.11c30.31-7.91,60.67-15.55,91.09-22.93l-0.51,56.85l-0.6,67.45l-92.98,133.51
	c-7.13,10.23-14.24,20.45-21.35,30.67c-3.82,0.86-7.45,2.27-10.39,5.08c-4.1,3.95-5.32,10.03-3.07,15.26
	c0.51,1.3,1.32,2.41,2.27,3.38c-36.6,62.07-73.05,124.26-109.35,186.58c-16.99,29.25-33.93,58.54-50.83,87.84
	c-53.06,14.95-106,30.37-158.78,46.36c-22.28,6.76-44.52,13.61-66.73,20.55c-4.04,1.23-2.31,7.58,1.73,6.32l0-0.08
	c72.73-22.71,145.78-44.35,219.11-65.04c-17.47,30.32-34.9,60.66-52.27,91.04c-20.24,35.37-40.36,70.77-60.37,106.21
	c-0.84,1.6-0.23,3.58,1.37,4.43c1.49,0.79,3.34,0.31,4.27-1.1h-0.08c35.67-62.91,71.57-125.75,107.7-188.54
	c2.81-4.88,5.64-9.73,8.44-14.61c3.72-1.05,7.44-2.12,11.16-3.16c22.42-6.27,44.87-12.45,67.34-18.53c0.53-0.15,0.97-0.45,1.34-0.8
	c0.59,0.23,1.29,0.26,2.09-0.06l-0.08,0.08c37.42-15.31,73.51-33.62,107.94-54.69c-0.06,2.51,1.5,5.21,4.69,5.5
	c27.09,2.45,54.02,6.44,80.65,11.95c2.12,0.44,3.81-0.4,4.89-1.72l-0.25,94.88c-0.03,0.17-0.07,0.34-0.08,0.52l0.08,0.13
	c-1.75,35.96-3.59,71.92-5.53,107.86c-0.55,10.48-1.07,20.76-1.68,31.11c-0.5,8.36-2.44,18.22,3.64,25.08
	c6.08,6.87,16.36,6.34,24.77,6.68l36.91,1.57c2.71-0.03,4.9-2.22,4.93-4.93c-4.81-81.31-7.73-162.69-8.78-244.13
	c-0.77-64.38-0.24-128.75,1.6-193.13c2.28-78.19,5.24-156.33,7.16-234.51c1.15-48.31,2.68-96.6,4.17-144.9
	c0.72,1.39,2.09,2.4,4.17,2.33l0.1,0.13c11.48-0.39,23.25-1.24,33.51-6.19c0.06,1.85,0.12,3.69,0.28,5.54
	c0.71,4.77,4.27,7.08,8.54,8.44c2.89,0.88,5.85,1.42,8.82,1.67c-5.11,1.05-10.14,2.5-15.03,4.33l-22.2,0.76
	c-4.12-1.49-8.26-2.93-12.43-4.27c-6.05-1.94-8.62,7.55-2.62,9.46c6.87,2.23,13.68,4.61,20.42,7.21c3.28,1.26,6.53,2.62,9.75,3.91
	l4.05,1.74c-0.24,0.1-0.48,0.21-0.72,0.3l-6.66,3.46c-2.32,1.45-3.02,4.51-1.56,6.83c0.88,1.4,2.4,2.27,4.05,2.32
	c5.24-0.28,10.41-0.49,15.49-0.63c2.69,0.2,5.39,0.14,8.07-0.16c0.4-0.1,0.85,0.05,1.07,0.06c0.08,0.48,0.08,1.05,0.11,1.31
	c0.11,4.22,0.65,8.42,1.6,12.53c1.32,4.55,3.4,8.85,6.13,12.71c1.49,2.33,4.58,3.01,6.91,1.52c0.99-0.63,1.72-1.59,2.08-2.7
	c2.2-7.05,3.14-14.42,2.84-21.78l2.61-0.1c2.69-0.08,4.85-2.24,4.93-4.93c0.52-8.78,2.39-17.42,5.53-25.63
	c0.04-0.15,0.05-0.3,0.07-0.45c32.09-3.76,64.15-7.71,96.2-11.8c0.99,1.31,2.03,2.59,3.13,3.83c2.75,3.09,6.68,4.93,10.62,2.62
	c1.86-1.21,3.26-2.99,3.98-5.09c0.33-0.83,0.39-2.4,0.6-3.71c12.79-1.66,25.57-3.34,38.35-5.05
	c51.86-6.94,103.55-14.27,155.07-21.99c29.2-4.42,58.38-8.98,87.55-13.68C1084.2,422.64,1082.44,416.35,1078.3,417z M533.8,108.53
	c-0.42-1.71-0.73-3.44-0.8-5.2c-0.06-0.97-0.03-1.93,0-2.9c0.29,0.29,0.63,0.54,0.89,0.86c1.06,1.11,1.61,2.61,1.52,4.14
	C535.25,106.59,534.63,107.61,533.8,108.53z M528.17,827.55l-0.25,101.59c-0.95-1.64-3.4-2.67-5.36-1.12
	c-7.22,5.68-14.47,11.31-21.78,16.87l-151.17,90.59c-7.19,3.22-14.44,6.33-21.75,9.31c-0.59,0.24-1.03,0.61-1.38,1.02
	c-0.64-0.25-1.34-0.36-2.06-0.16c-24.05,6.52-48.06,13.18-72.06,19.91c31.58-54.75,63.3-109.41,95.23-163.94
	c20.52-35.01,41.1-69.99,61.73-104.94c2.23,0.2,4.39-1.14,5.12-3.36c0.31-0.94,0.31-1.91,0.08-2.8c5.48-3.51,9.6-8.92,11.37-15.37
	c0.34-1.21,0.16-2.48-0.42-3.57l86.18-123.71c5.67-8.23,11.44-16.46,17.18-24.68l-0.22,24.99c0,0,0,0,0,0v0.03L528.17,827.55z
	 M403.96,375.74c0.78,0.2,1.61,0.2,2.41,0.04c1.65,2.81,3.5,5.51,5.59,8.02c4.27,4.46,12.84,4.4,14.73-2.41
	c1.48-5.31-1.74-12.49-4.72-17.56c7.54-2.41,15.17-4.44,22.86-6.1l47.45-3.04c-10.93,18.8-21.58,37.77-31.78,56.95
	c-3.39,6.39-6.69,12.82-9.99,19.25c-7.61-3.07-15.16-6.25-22.66-9.6l1.2-0.51c2.1-0.89,2.69-3.19,2.21-5.26
	c4.55-1.74,3.46-10.12-1.9-9.44c-0.52,0.07-1.04,0.15-1.56,0.22l-0.04-0.27c-1.46,0.32-2.92,0.61-4.39,0.88
	c-2,0.27-4.01,0.54-6.01,0.83c-0.08-1.42-0.18-2.84-0.35-4.26c-0.71-5.61-1.7-13.53-5.95-17.69c-2.81-2.76-6.48-2.02-10.05-2.16
	L403.96,375.74z M530.22,467.62l-0.06,7.16c-29.33,7.1-58.61,14.43-87.82,22.02l21.86-50.1
	C485.84,454.76,507.87,461.74,530.22,467.62z M531.24,354.57l-0.92,102.94c-21.04-5.6-41.79-12.22-62.18-19.8l36.58-83.83
	l13.13-0.84C522.32,353.42,526.78,353.94,531.24,354.57z M525.45,1004.48c-26.85-5.57-53.99-9.61-81.29-12.13
	c13.99-8.77,27.71-17.98,41.11-27.66c14.23-10.3,28.05-21.18,41.94-32.03c0.31-0.25,0.53-0.52,0.71-0.79l-0.18,73.78
	C527.17,1005.11,526.43,1004.68,525.45,1004.48z M660.73,469.92c1.96-0.34,3.9-0.8,5.81-1.42c6.63-2.15,19.48-7.86,17.61-16.78
	c-0.94-4.56-5.56-7.02-9.46-8.78c-2.1-0.96-4.3-1.71-6.55-2.23c-1.14-0.24-2.25-0.42-3.46-0.57c0.27-0.39,0.51-0.75,0.68-1.03
	l0.1-0.17c0.31,0.16,0.63,0.3,0.98,0.4c2.57,0.71,5.22-0.77,6-3.3c0.05-0.13,0.12-0.25,0.18-0.38l101.12,18.82
	c0.94,2.08,2.01,4.09,3.17,6.06c-2.64,0.34-5.28,0.69-7.91,1.02c-29.09,3.67-58.2,7.21-87.31,10.62c-0.41,0.05-0.77,0.17-1.1,0.32
	c-0.28-0.05-0.55-0.11-0.84-0.11c-5.7-0.21-11.4-0.14-17.08,0.15C662.32,471.46,661.65,470.54,660.73,469.92z"/>
</svg>
