<?xml version="1.0" encoding="utf-8"?>
<!-- Generator: Adobe Illustrator 27.0.0, SVG Export Plug-In . SVG Version: 6.00 Build 0)  -->
<svg version="1.1" id="Capa_1" xmlns="http://www.w3.org/2000/svg" xmlns:xlink="http://www.w3.org/1999/xlink" x="0px" y="0px"
	 viewBox="0 0 1080 1350" style="enable-background:new 0 0 1080 1350;" xml:space="preserve">
<style type="text/css">
	.st0{fill:#FFFFFF;stroke:#FFFFFF;stroke-miterlimit:10;}
	.st1{fill:#D18730;}
	.st2{fill:#FF9498;}
	.st3{fill:#284565;}
	.st4{fill:#284566;}
	.st5{fill:#FFFFFF;}
	.st6{fill:#FFBD59;}
</style>
<g>
	<path class="st4" d="M240.07,55.73c6.3-2.45,12.94-3.95,19.68-4.45c6.74-0.18,13.92,1.75,18.51,6.64c2.08,2.54,4.01,5.19,5.79,7.95
		c1.81,2.76,4.55,4.78,7.71,5.71c3.29,0.83,6.68-0.98,7.81-4.18c0.91-3.82-2.76-7.5-2.25-11.39c0.54-4.26,5.59-6.26,9.94-6.66
		c5.58-0.37,11.19,0.12,16.62,1.45c12.21,2.72,23.77,7.78,34.06,14.89c4.99,3.46,9.82,7.62,12.21,13.18s1.69,12.88-3.04,16.68
		c-0.63,0.57-1.42,0.93-2.27,1.03c-3.08,0.14-3.56-4.49-5.81-6.58c-2.9-2.7-7.83-0.18-9.94,3.26c-2.11,3.44-2.62,7.66-5.21,10.66
		c-0.59,0.79-1.44,1.34-2.41,1.53c-0.57,0.04-1.15-0.06-1.67-0.3c-4.1-1.57-5.97-6.54-10.08-8.25c-3.04-1.08-6.4-0.68-9.11,1.07
		c-2.64,1.75-5.07,3.8-7.24,6.1c-5.8,5.52-12.33,10.21-19.43,13.92c-2.09,1.36-4.58,1.97-7.06,1.73c-1.88-0.55-3.57-1.58-4.93-2.98
		c-18.97-16.83-33.27-38.28-41.5-62.28"/>
	<path class="st4" d="M241.15,59.31c10.6-3.56,25.49-8.23,34.56,1.25c4.26,4.43,6.34,10.56,12.13,13.48
		c4.73,2.41,11.29,1.65,14.3-3.12c1.41-2.37,1.76-5.22,0.95-7.85c-0.52-1.99-2.55-4.73-1.99-6.82c0.5-1.77,2.96-2.49,4.53-2.86
		c3.28-0.62,6.64-0.69,9.94-0.22c13.13,1.6,25.72,6.17,36.82,13.36c4.83,3.02,9.94,6.5,13.04,11.45c2.45,3.98,3.5,9.6,0.42,13.54
		c-0.26,0.34-0.68,0.62-0.91,0.95l-0.28,0.24c-0.5,0.26-0.3,0.38,0.62,0.32c-0.25-0.54-0.54-1.06-0.87-1.55
		c-1.02-2.52-2.94-4.58-5.39-5.77c-5.01-1.99-10.48,1.43-13.06,5.67c-1.55,2.51-2.19,5.45-3.52,7.95c-0.34,0.66-0.78,1.23-1.13,1.87
		c-0.64,1.17-0.12,0.34-0.44,0.24c-1.16-0.65-2.17-1.53-2.96-2.6c-3.98-4.31-8.25-7.42-14.5-5.97c-6.56,1.49-10.92,7.22-15.77,11.39
		c-4.73,4.09-9.93,7.6-15.49,10.46c-1.25,0.82-2.7,1.29-4.2,1.35c-1.75-0.2-3.3-1.99-4.51-3.1c-2.43-2.23-4.79-4.52-7.08-6.88
		c-4.73-4.9-9.1-10.14-13.08-15.67c-8.13-11.35-14.58-23.81-19.15-37c-1.55-4.49-8.75-2.56-7.18,1.99
		c4.37,12.78,10.42,24.91,17.99,36.09c3.75,5.46,7.83,10.69,12.23,15.65c4.28,5.1,9.06,9.76,14.26,13.92
		c6.4,4.77,12.96,1.23,18.95-2.37c6.01-3.65,11.59-7.97,16.64-12.86c2.06-2.42,4.66-4.31,7.6-5.53c3.18-0.93,5.05,0.7,7.1,2.92
		c4.18,4.49,10.34,8.95,15.35,2.72c1.73-2.47,3.07-5.2,3.98-8.07c0.8-1.99,2.17-5.13,4.71-5.29c1.39,0,2.15,2.82,3,4.14
		c1.39,2.49,4.18,3.87,7,3.44c5.83-1.11,8.89-7.95,9.33-13.3c0.26-6.4-2.16-12.62-6.68-17.16c-4.69-4.79-10.1-8.81-16.03-11.93
		c-6.09-3.45-12.52-6.26-19.19-8.39c-6.9-2.33-14.1-3.67-21.37-3.98c-5.81-0.12-12.94,0.7-16.56,5.97c-1.88,2.89-2.22,6.51-0.91,9.7
		c0.58,1.67,2.76,4.95,0.87,6.36c-5.13,3.82-10.92-8.09-13.26-10.92c-10.8-13-29.07-9.01-42.89-4.37c-4.53,1.51-2.58,8.71,1.99,7.18
		L241.15,59.31z"/>
	<path class="st4" d="M377.27,82.41c3.1-6.17,8.81-10.63,15.55-12.13c0.97-0.29,2.01-0.29,2.98,0c1.83,0.74,2.39,2.94,3.04,4.79
		c2.49,6.92,8.99,11.43,14.93,15.75c5.95,4.31,12.11,9.64,13.24,16.9c0.06,2.15,0.49,4.28,1.27,6.28c0.83,1.3,1.92,2.43,3.2,3.3
		c11.21,8.88,22.48,17.67,33.8,26.37"/>
	<path class="st4" d="M380.55,84.3c1.55-3.14,3.91-5.81,6.84-7.73c1.36-0.88,2.82-1.59,4.35-2.11c0.76-0.32,1.57-0.53,2.39-0.62
		c0.22,0,0.36,0,0.14-0.2c0.3,0.18,0.42,0.74,0.54,1.01c1.26,3.41,3.04,6.61,5.27,9.48c2.63,2.88,5.57,5.45,8.77,7.68
		c5.47,3.98,12.51,8.41,14.34,15.45c1.07,4.18,0.64,7.95,3.98,11.21c3.37,3.02,6.91,5.84,10.6,8.45c8.58,6.72,17.19,13.39,25.85,20
		c1.77,1.03,4.05,0.43,5.09-1.33c0.99-1.78,0.41-4.03-1.33-5.09c-8.27-6.34-16.51-12.72-24.72-19.15l-5.73-4.53
		c-1.63-1.27-4.33-2.74-5.29-4.65c-0.55-1.75-0.85-3.57-0.89-5.41c-0.39-2.15-1.12-4.23-2.19-6.14
		c-3.98-7.34-11.27-11.53-17.58-16.54c-3.27-2.31-5.98-5.31-7.95-8.79c-1.75-3.52-2.33-7.79-6.88-8.77
		c-4.55-0.97-9.66,1.65-13.1,3.98c-3.76,2.52-6.82,5.94-8.93,9.94c-2.19,4.26,4.26,7.95,6.44,3.76V84.3z"/>
	<path class="st4" d="M466.75,144.45c8.2,1.22,16.55-0.79,23.3-5.61c8.21-5.97,13.04-15.29,19.31-23.22s15.63-15.07,25.59-13.3
		c10.38,1.85,16.52,12.21,22.71,20.74"/>
	<path class="st4" d="M465.69,148.05c8.06,1.24,16.3-0.24,23.42-4.22c6.9-3.98,11.93-10.2,16.34-16.56
		c7.18-10.1,19.25-27.84,33.8-19.35c6.56,3.84,10.7,11.02,15.03,17.02c1.12,1.67,3.32,2.25,5.11,1.33c1.76-1.06,2.35-3.33,1.33-5.11
		c-4.18-5.79-8.09-12.13-13.64-16.74c-5.74-5.16-13.65-7.16-21.16-5.35c-16.84,4.31-22.85,21.69-33.8,32.97
		c-6.29,6.65-15.37,9.92-24.46,8.81c-1.97-0.42-3.94,0.7-4.59,2.6C462.55,145.44,463.71,147.49,465.69,148.05L465.69,148.05z"/>
	<path class="st4" d="M560.8,124.64l92.72,44.72c9.25,4.47,18.85,9.21,25.13,17.34c10.08,13.02,9.21,31.32,6.26,47.54"/>
	<path class="st4" d="M558.93,127.87l69.97,33.8c10.86,5.25,22.03,10.1,32.55,15.91c9.13,5.11,16.62,11.93,19.7,22.17
		c3.26,10.82,2.13,22.53,0.18,33.48c-0.84,4.69,6.34,6.7,7.18,1.99c1.99-10.64,2.98-21.55,1.07-32.27
		c-1.92-10.83-7.95-20.5-16.84-26.98c-9.62-7.18-21.32-11.73-32.05-16.92l-36.55-17.52l-41.46-19.88c-4.29-2.09-8.09,4.33-3.76,6.42
		V127.87z"/>
	<path class="st4" d="M686.26,236.57c53.07,40.46,79.79,105.74,104.17,167.84"/>
	<path class="st4" d="M684.37,239.79c41.12,31.48,66.13,78.56,86.12,125.27c5.71,13.34,11.06,26.84,16.34,40.34
		c0.6,1.94,2.61,3.08,4.59,2.6c1.98-0.56,3.14-2.61,2.6-4.59c-9.72-24.74-19.59-49.45-31.38-73.29
		c-11.79-23.84-25.35-46.35-42.49-66.41c-9.59-11.21-20.32-21.39-32.03-30.36c-1.78-1.02-4.05-0.42-5.09,1.35
		C682.05,236.48,682.63,238.73,684.37,239.79L684.37,239.79z"/>
	<path class="st4" d="M793.18,405.98l46.11,115.56c0.45,0.81,0.56,1.77,0.3,2.66c-0.41,0.69-1.05,1.22-1.81,1.49
		c-12.27,5.93-25.17,10.46-38.45,13.5c-3.93,1.23-8.12,1.37-12.13,0.4c-12.47-4.14-12.96-25.39-25.85-28.1
		c-8.79-1.85-16.01,6.64-20.96,14.14c-3.04,4.59-6.16,9.37-7.04,14.79s1.11,11.75,5.97,14.18"/>
	<path class="st4" d="M789.58,406.91l25.13,62.83l12.55,31.67l6.22,15.59l1.47,3.68c0.18,0.64,0.42,1.25,0.74,1.83l0.24,0.66
		l0.5-0.99c-2.49,0.97-4.92,2.1-7.28,3.36c-9.63,4.15-19.61,7.43-29.83,9.8c-4.14,0.95-8.85,2.11-12.73-0.2
		c-2.2-1.48-4.03-3.46-5.33-5.77c-3.4-5.41-5.69-11.53-10.04-16.28c-4.95-5.56-13.01-7.11-19.66-3.78
		c-4.21,2.26-7.85,5.46-10.64,9.35c-3.34,4.09-6.21,8.55-8.55,13.28c-3.98,8.59-4.29,20.72,5.27,25.85
		c4.24,2.27,7.95-4.18,3.76-6.44c-8.19-4.37-3.16-15.29,0.42-20.94c3.58-5.65,9.35-15.47,17.2-15.47c5.79,0,8.93,5.77,11.35,10.2
		c3.02,5.57,5.79,11.57,11,15.47c7.5,5.59,17.12,2.78,25.33,0.6c10.18-2.74,20.11-6.33,29.69-10.72c2.04-0.69,3.94-1.76,5.59-3.14
		c1.62-1.88,2-4.52,0.97-6.78c-1.83-5.11-3.98-10.1-5.97-15.15l-12.33-30.78l-27.84-69.71c-0.6-1.95-2.61-3.1-4.59-2.6
		c-1.98,0.56-3.14,2.61-2.6,4.59H789.58z"/>
	<path class="st4" d="M738.89,555.22c6.7,1.99,9.29,9.94,10.4,16.86c1.11,6.92,2.31,14.81,8.25,18.49
		c1.67-5.53,3.46-11.25,7.38-15.49c3.92-4.24,10.68-6.42,15.61-3.42c-9.93,24.45-21.45,48.22-34.5,71.16
		c-3.24,5.71-7.66,12.03-14.2,12.25c-2.35,0.1-4.83-0.64-6.96,0.34c-4.97,2.33-2.86,10.94-7.3,14.18c-4.95,3.6-10.92-3-13.48-8.57
		c-5.33,2.9-1.99,11.25-4.14,16.94c-1.68,4.5-6.68,6.78-11.18,5.1c-4.5-1.68-6.78-6.68-5.1-11.18c0.78-2.09,2.34-3.81,4.35-4.78
		c1.65-0.78,3.68-1.17,4.59-2.74c0.91-1.57,0-4.12-1.07-5.97c-18.24-30.83-41.32-58.53-68.36-82.04
		c-4.41-3.84-8.91-11.21-4.08-14.48"/>
	<path class="st4" d="M737.9,558.82c6.14,1.99,7.2,10.62,8.07,15.91c1.19,7.3,3.16,14.69,9.68,18.99c1.82,1.03,4.12,0.38,5.15-1.43
		c0.15-0.26,0.26-0.53,0.34-0.81c1.47-4.89,2.98-10.3,6.66-14.06c2.72-2.78,7.2-4.65,10.86-2.6l-1.73-4.22
		c-7.81,19.2-16.61,37.97-26.39,56.25c-2.51,4.71-5.07,9.4-7.73,14.04c-1.66,3.39-4.01,6.4-6.9,8.83
		c-3.56,2.57-7.36,0.68-11.31,1.77c-3.36,1.15-5.88,3.98-6.62,7.46c-0.58,1.99-0.72,7.1-3.08,7.81c-1.29,0.4-2.8-1.07-3.64-1.89
		c-1.65-1.69-3-3.65-3.98-5.81c-1.05-1.77-3.33-2.36-5.11-1.33c-5.03,3.08-5.07,8.61-5.15,13.92c0.24,2.05-0.14,4.13-1.09,5.97
		c-1.31,1.54-3.33,2.3-5.33,1.99c-3.74-0.54-4.45-5.37-2.37-7.95c1.51-1.99,4.35-1.99,6.14-3.62c2.44-2.44,3.04-6.17,1.47-9.25
		c-1.36-2.82-2.92-5.53-4.67-8.11c-1.98-3.18-4-6.33-6.08-9.44c-3.67-5.53-7.52-10.93-11.53-16.21
		c-8.36-11.07-17.39-21.62-27.04-31.6c-5.21-5.38-10.6-10.58-16.19-15.61c-2.6-2.05-5.02-4.34-7.22-6.82
		c-0.62-0.78-3.54-4.75-2.13-5.83c1.72-1.08,2.3-3.31,1.33-5.09c-1.04-1.77-3.31-2.37-5.09-1.33c0,0,0,0,0,0
		c-5.59,4.26-4.31,10.88-0.56,16.01c2.1,2.64,4.48,5.05,7.1,7.18c2.8,2.51,5.57,5.03,8.27,7.64c10.86,10.35,21.01,21.42,30.38,33.15
		c9.35,11.69,17.87,24.02,25.49,36.9c0.59,0.74,1.04,1.58,1.31,2.49c0,0.85,0.38,0-0.18,0.6c-0.85,0.89-2.8,1.09-3.88,1.83
		c-2.38,1.64-4.13,4.06-4.93,6.84c-1.83,5.6,0.59,11.7,5.75,14.53c6.12,2.85,13.4,0.6,16.84-5.21c1.33-3.02,1.92-6.31,1.71-9.6
		c0-1.99-0.56-5.59,1.45-6.8l-5.11-1.35c3.34,6.98,13.2,16.7,20.46,8.25c2.41-2.82,2.76-6.46,3.76-9.94
		c0.26-0.95,0.54-1.99,1.49-2.51c0.95-0.21,1.93-0.21,2.88,0c1.46,0.13,2.94,0.09,4.39-0.12c9.56-1.55,14.44-12.07,18.63-19.63
		c5.55-10.02,10.82-20.2,15.79-30.54c5.67-11.74,10.98-23.67,15.91-35.79c0.45-1.63-0.25-3.36-1.71-4.22
		c-5.97-3.36-13.12-1.79-18.33,2.37c-5.71,4.59-8.09,11.93-10.14,18.77l5.47-2.23c-5.97-3.98-5.71-13.02-7.1-19.23
		c-1.57-7.1-5.09-14.1-12.43-16.5c-4.57-1.49-6.52,5.71-1.99,7.2L737.9,558.82z"/>
	<path class="st4" d="M620.17,562.16c-2.91-7.33-8.01-13.58-14.61-17.9c-0.9-0.71-2.02-1.09-3.16-1.07
		c-2.49,0.3-3.14,3.52-3.68,5.97c-0.54,2.45-3.02,5.31-5.01,3.78l-16.11-33.36c-0.86-2.08-2.08-4-3.6-5.67
		c-4.69-4.59-12.96-3.16-17.8,1.29c-4.83,4.45-7.12,10.94-9.27,17.14c-0.78,2.96-2.13,5.73-3.98,8.17
		c-1.88,1.88-4.01,3.48-6.34,4.75c-12.29,7.82-22.25,18.81-28.81,31.81c-4.49-3.15-7.22-8.24-7.38-13.72
		c-5.21,0.41-9.11,4.96-8.7,10.17c0.03,0.4,0.09,0.79,0.17,1.18c0.84,3.18,3.06,7.32,0.28,9.07c-1.09,0.54-2.33,0.69-3.52,0.44
		l-15.65-1.53c-4.26-0.42-9.94-4.12-7.24-7.36c-5.27,2.53-9.19,7.62-14.81,9.23c-5.63,1.61-13.2-4.51-9.6-9.13
		c1.33-1.73,3.72-2.35,5.23-3.98c3.5-3.68-1.53-10.94-6.2-8.97c6.93-13.89,10.01-29.38,8.91-44.86c-6.16-0.47-12.36,0.1-18.33,1.69"
		/>
	<path class="st4" d="M623.83,561.17c-2.33-5.94-5.96-11.29-10.62-15.65c-4.16-3.82-11.77-9.62-16.11-2.72
		c-1.08,2-1.84,4.16-2.25,6.4l-0.2,0.34c-0.66,0.7,0,0.95,1.99,0.72c-0.34-0.91-0.76-1.79-1.27-2.62l-2.96-6.14l-9.9-20.18
		c-2.84-5.97-5.63-12.11-12.71-13.52c-5.88-1-11.89,0.8-16.24,4.87c-4.79,4.33-7.34,10.6-9.42,16.54c-0.76,2.89-1.91,5.65-3.44,8.21
		c-1.83,2.53-4.81,3.98-7.36,5.61c-12.22,8.11-22.15,19.24-28.81,32.31l5.09-1.33c-3.33-2.48-5.36-6.35-5.51-10.5
		c-0.03-2.05-1.69-3.71-3.74-3.74c-4.49,0.26-8.55,2.78-10.76,6.7c-2.51,4.37-1.61,8.33-0.28,12.86c0.22,0.61,0.37,1.24,0.44,1.89
		c0-0.3,0.74-0.36,0.3-0.5c-0.66-0.1-1.32-0.15-1.99-0.14c-3.1-0.28-6.2-0.6-9.31-0.91c-2.5-0.04-4.98-0.38-7.4-1.01
		c-0.8-0.38-1.57-0.81-2.33-1.27l-0.48-0.54c0.66-0.24-0.84,2.09,0.32,0.52c2.39-3.26-2.11-6.62-5.11-5.11
		c-2.47,1.35-4.81,2.94-6.98,4.73c-2.02,1.83-4.38,3.23-6.96,4.12c-1.66,0.3-3.36-0.17-4.63-1.27c-1.19-0.97-1.49-1.49-0.48-2.47
		c1.01-0.97,2.15-1.29,3.08-1.99c3.26-2.24,4.46-6.48,2.86-10.1c-1.73-4.47-6.56-7.85-11.39-6.16l4.2,5.49
		c7.21-14.48,10.46-30.61,9.4-46.75c-0.05-2.03-1.69-3.67-3.72-3.72c-6.46-0.52-12.95,0-19.25,1.53c-4.67,1.11-2.7,8.31,1.99,7.18
		c5.66-1.34,11.49-1.76,17.28-1.25l-3.74-3.74c1.06,14.81-1.84,29.64-8.39,42.97c-1.31,2.68,0.91,6.64,4.22,5.49
		c1.19-0.42,2.19,0.52,2.53,1.71c0.5,1.75-1.99,2.31-3.1,3.16c-3.97,2.47-5.19,7.7-2.72,11.67c0.34,0.54,0.73,1.04,1.18,1.5
		c3.36,3.74,8.58,5.21,13.4,3.76c5.73-1.99,9.68-6.68,14.99-9.37l-5.11-5.11c-3.82,5.21,1.69,10.26,6.3,11.93
		c2.94,0.88,5.98,1.35,9.05,1.41c3.7,0.38,7.42,0.84,11.13,1.09c2.87,0.42,5.73-0.87,7.32-3.3c1.13-2.47,1.18-5.29,0.14-7.79
		c-0.66-2.13-1.63-3.98-0.7-6.22c0.78-1.95,2.55-3.32,4.63-3.58l-3.76-3.66c0.25,6.78,3.66,13.04,9.21,16.94
		c1.79,1.03,4.07,0.42,5.11-1.35c5.28-10.51,12.87-19.69,22.19-26.86c4.69-3.56,10.6-5.97,13.92-11.08
		c3.32-5.11,4.2-11.15,6.84-16.44c2.29-4.59,5.75-8.97,11.17-9.72c6.26-0.87,8.21,4.41,10.52,9.19l9.33,19.33l4.24,8.77
		c1.49,3.1,3.36,5.77,7.3,4.67c2.95-1.1,5.14-3.62,5.81-6.7c0.28-1.03,0.66-2.15,0.85-3.18c0.32-1.67,0.26,0.22,0-0.1
		c-0.36,0.25-0.16,0.45,0.6,0.6l1.29,0.87c5.15,3.75,9.16,8.85,11.59,14.73c0.6,1.93,2.6,3.07,4.57,2.6
		c1.99-0.55,3.15-2.61,2.6-4.59H623.83z"/>
	<path class="st4" d="M440.3,518.98l-20.94,0.28c-2.16-0.15-4.32,0.22-6.3,1.07c-2.32,1.62-4.12,3.86-5.21,6.46
		c-4.28,7.9-9.52,15.25-15.59,21.87c-1.57,1.93-3.55,3.48-5.81,4.53c-3.98,1.51-8.43-0.1-12.41-1.71c-1.68-0.49-3.17-1.49-4.26-2.86
		c-1.23-1.99-0.58-4.55,0-6.8l15.91-52.25c-5.64-0.34-11.29-0.04-16.86,0.91c-1.36,0.14-2.66,0.6-3.82,1.33
		c-2.49,1.83-2.56,5.41-2.84,8.49c-0.28,3.08-1.75,6.8-4.83,6.96c-3.08,0.16-5.13-3.88-4.79-7.14s1.99-6.36,1.55-9.62
		c-2.94-0.59-5.9,0.86-7.24,3.54c-1.24,2.64-1.86,5.52-1.83,8.43l-1.57,24.1"/>
	<path class="st4" d="M440.3,515.34l-14.75,0.18c-4.41,0-9.5-0.54-13.64,1.35c-4.14,1.89-5.97,5.97-8.11,9.64
		c-2.2,3.91-4.65,7.68-7.32,11.29c-2.55,3.62-5.42,7.01-8.59,10.1c-3.56,3.32-7.5,2.17-11.63,0.56c-1.39-0.52-3.38-0.93-3.42-2.66
		c0.27-2.3,0.88-4.55,1.79-6.68l4.47-14.73l10.2-33.8c0.53-2.02-0.68-4.08-2.7-4.61c-0.29-0.08-0.6-0.12-0.9-0.12
		c-5.66-0.29-11.33,0.01-16.92,0.91c-5.17,0.82-8.87,3.48-9.8,8.85c-0.16,2-0.43,3.99-0.8,5.97c-0.1,0.74-0.42,1.43-0.91,1.99
		c-0.42,0.3,0,0.14-0.28,0c-1.13-0.95-0.72-3.3-0.46-4.45c0.83-2.73,1.27-5.57,1.31-8.43c-0.04-1.66-1.15-3.11-2.74-3.58
		c-3.67-0.84-7.5,0.42-9.94,3.28c-2.29,2.94-3.56,6.55-3.62,10.28c-0.78,8.67-1.09,17.38-1.63,26.07c-0.3,4.79,7.16,4.77,7.46,0
		l1.21-19.74c0.16-2.45-0.3-13.92,4.61-12.71l-2.72-3.6c0.18,3.3-1.29,6.36-1.55,9.62c-0.18,2.35,0.36,4.7,1.55,6.74
		c2.03,3.73,6.7,5.11,10.44,3.08c0.94-0.51,1.76-1.21,2.41-2.05c1.49-2.04,2.39-4.44,2.6-6.96c0.2-1.69,0-4.65,1.21-5.97
		c0.84-0.84,2.62-0.87,3.72-1.05c1.53-0.24,3.06-0.4,4.61-0.52c3.43-0.27,6.88-0.31,10.32-0.12l-3.58-4.71l-9.78,32.31l-4.89,16.15
		c-1.37,4.49-3.56,9.8-0.42,14.06c2.6,3.58,8.47,5.35,12.65,6.08c4.9,0.93,9.94-0.66,13.42-4.24c6.9-6.85,12.73-14.7,17.3-23.28
		c0.86-2.2,2.17-4.19,3.84-5.87c1.99-1.43,5.15-0.97,7.46-0.99l18.55-0.24c4.79,0,4.81-7.52,0-7.46L440.3,515.34z"/>
	<path class="st4" d="M343.81,528.42H321.4c-1.72,0.15-3.44-0.15-5.01-0.87c-4.57-2.62-2.31-9.54,0.16-14.2
		c9.51-18.05,13.77-38.41,12.31-58.76c8.17-4.24,15.65,7.95,24.76,9.31c3.34,0.5,6.82-0.56,10.06,0.34
		c3.24,0.89,5.79,5.45,3.14,7.56c6.52,2.35,15.65,0.8,17.6-5.85c0.95-3.22,0-6.64,0-9.94c0-3.3,1.79-7.32,5.13-7.48
		c5.61-0.26,5.53,8.35,8.33,13.18c1.37,2.04,3.16,3.77,5.25,5.07c15.6,11.09,32.75,19.8,50.9,25.85c2.91,1.22,6.09,1.63,9.21,1.19
		c3.06-0.72,5.83-3.66,5.21-6.72c-0.89-4.35-7.56-6.28-7.26-10.72c0.12-1.89,1.59-3.42,2.31-5.19c3.24-7.95-8.77-14.4-9.11-22.93
		l26.5,22.63c2.46-10.97,7.2-21.29,13.92-30.3c-7.49-4.83-13.11-12.08-15.91-20.54c5.54-4.89,14-4.37,18.89,1.17
		c0.17,0.19,0.34,0.39,0.5,0.6"/>
	<path class="st4" d="M343.81,524.68h-14.61c-2.6,0-5.19,0-7.79,0c-1.13,0-2.94,0.26-3.7-0.85c-1.15-1.67,0.56-5.41,1.21-6.9
		c1.63-3.68,3.62-7.2,5.17-10.92c6.81-16.24,9.71-33.85,8.49-51.42l-1.85,3.2c2.29-1.07,4.77,0.4,6.7,1.57
		c2.82,1.73,5.41,3.82,8.29,5.47c3.21,1.94,6.89,2.95,10.64,2.92c1.99,0,4.75-0.74,6.56,0.16c0.53,0.27,0.95,0.71,1.19,1.25
		c0.22,0.58,0.28-0.2,0,0c-1.45,1.5-1.4,3.89,0.1,5.34c0.44,0.42,0.97,0.73,1.55,0.9c5.53,2.01,11.67,1.49,16.78-1.43
		c2.49-1.57,4.36-3.96,5.29-6.76c1.31-3.98-0.24-7.83,0.16-11.93c0.04-1.06,0.45-2.07,1.15-2.86c0.46-0.4,0.58-0.32,0.8-0.14
		c1.45,1.25,1.87,4.29,2.45,6.06c0.8,3.03,2.32,5.83,4.43,8.15c2.88,2.61,6.01,4.92,9.35,6.9c13.31,8.81,27.65,15.96,42.69,21.3
		c6.66,2.39,15.43,5.57,20.98-0.8c2.32-2.52,2.97-6.16,1.67-9.33c-1.27-2.36-3.02-4.43-5.13-6.08c-0.46-0.44-1.41-1.19-1.49-1.77
		c-0.18-1.13,1.77-3.48,2.19-4.61c1.01-2.94,0.82-6.17-0.54-8.97c-1.34-2.7-2.97-5.25-4.85-7.6c-1.83-2.09-3.07-4.63-3.58-7.36
		l-6.36,2.64l26.48,22.63c1.52,1.44,3.93,1.38,5.37-0.15c0.4-0.43,0.7-0.94,0.87-1.5c2.43-10.64,7.04-20.65,13.52-29.43
		c1-1.78,0.4-4.04-1.35-5.09c-6.61-4.36-11.58-10.81-14.12-18.31l-0.95,3.62c4.04-3.41,10.07-2.95,13.54,1.03
		c1.08,1.71,3.31,2.29,5.09,1.33c1.77-1.04,2.38-3.31,1.35-5.09c-5.69-7.62-16.48-9.18-24.1-3.49c-0.4,0.3-0.78,0.61-1.15,0.94
		c-0.97,0.94-1.33,2.33-0.95,3.62c3.09,9.35,9.25,17.39,17.48,22.81l-1.33-5.11c-6.83,9.32-11.69,19.93-14.28,31.2l6.24-1.63
		l-26.5-22.67c-2.25-1.99-6.6-0.84-6.36,2.64c0.38,5.57,3.66,9.68,6.74,14.08c1.43,1.65,2.43,3.62,2.92,5.75
		c0.22,2.43-2.21,4.59-2.68,6.96c-0.49,2.77,0.38,5.6,2.35,7.62c1.23,1.45,4.14,2.96,4.67,4.83c0.66,2.27-2.82,2.92-4.35,2.8
		c-3.7-0.55-7.3-1.61-10.7-3.16c-14.2-5.19-27.71-12.06-40.26-20.48c-2.68-1.81-6.18-3.64-7.95-6.38c-1.16-2.17-2.03-4.48-2.56-6.88
		c-1.71-4.99-5.35-9.94-11.37-8.13c-3.28,1.28-5.66,4.16-6.3,7.62c-0.39,1.81-0.48,3.67-0.26,5.51c0.44,2.21,0.44,4.49,0,6.7
		c-1.65,5.01-9.05,4.59-13,3.24l1.65,6.24c3.98-3.8,1.99-9.94-2.27-12.65c-4.93-3.18-10.92-0.18-16.05-2.51
		c-7.95-3.66-14.55-12.49-24.18-7.95c-1.16,0.65-1.87,1.89-1.85,3.22c1.07,14.95-1.01,29.96-6.1,44.06
		c-1.25,3.43-2.68,6.79-4.29,10.06c-1.57,2.78-2.9,5.7-3.98,8.71c-1.67,5.63-0.58,12.49,5.97,14.26c3.98,1.07,8.47,0.46,12.47,0.44
		h14.61c2.06-0.15,3.61-1.94,3.46-4c-0.14-1.85-1.61-3.32-3.46-3.46H343.81z"/>
	<path class="st4" d="M499.93,421.49c1.59-6.26,4.99-11.93,7.44-17.9c2.45-5.97,3.98-12.79,1.63-18.79
		c-2.94-7.54-10.92-11.59-18.25-15.01c-0.89-0.54-1.93-0.76-2.96-0.62c-1.11,0.46-1.99,1.35-2.43,2.47
		c-2.49,4.61-4.32,9.55-5.43,14.67c-10.17-6.05-20.03-12.62-29.53-19.68h14.85c1.12,0.09,2.25-0.11,3.28-0.58
		c0.91-0.67,1.61-1.6,1.99-2.66c2.27-4.56,2.59-9.85,0.89-14.65c-1.81-4.82-6.21-8.2-11.33-8.69c-1.7,0.08-3.4,0.02-5.09-0.18
		c-3.22-0.83-5.36-3.87-5.05-7.18"/>
	<path class="st4" d="M503.51,422.46c2.23-8.25,7.4-15.39,9.42-23.72c2.03-8.33,0.68-16.42-5.31-22.59
		c-2.52-2.49-5.39-4.6-8.51-6.26c-2.92-1.65-6.72-4.16-10.08-4.39c-4.67-0.34-6.76,3.78-8.45,7.44c-1.85,3.99-3.28,8.16-4.26,12.45
		l5.49-2.23c-10.17-6.06-20.02-12.63-29.53-19.68l-1.89,6.96h10.88c3.24,0,6.9,0.48,9.7-1.47c2.27-2,3.82-4.68,4.43-7.64
		c0.92-3.23,1.14-6.62,0.64-9.94c-1.08-8.99-8.98-15.58-18.01-15.03c-2.53,0-4.45-0.8-4.26-3.64c0.3-4.79-7.16-4.77-7.46,0
		c-0.28,4.97,2.97,9.46,7.77,10.76c2.6,0.66,5.33-0.14,7.95,0.7c1.93,0.68,3.61,1.95,4.79,3.62c2.69,4.25,2.87,9.63,0.48,14.06
		c-0.54,1.11-0.8,1.05-1.99,1.09c-1.65,0-3.3,0-4.95,0h-9.94c-3.98,0-4.69,4.87-1.89,6.94c9.51,7.05,19.37,13.62,29.55,19.68
		c1.8,1.03,4.1,0.39,5.12-1.41c0.15-0.26,0.26-0.53,0.34-0.82c0.72-3.41,1.78-6.74,3.14-9.94c0.34-0.8,0.72-1.59,1.11-2.37
		s1.15-1.61,1.15-2.17l0.3-0.4c-1.03,0.14-1.23,0.28-0.66,0.42c0.58,0.14,1.45,0.64,1.99,0.85c4.79,2.29,10.06,4.87,13.28,9.23
		c3.98,5.37,2.82,12.13,0.66,17.9c-2.45,6.6-6.24,12.61-8.09,19.47c-1.25,4.63,5.97,6.62,7.18,1.99L503.51,422.46z"/>
	<path class="st4" d="M450.5,332.69c0.38-5.97-1.33-11.93-2.25-17.76c-0.91-5.83-0.91-12.41,2.49-17.34
		c1.99-2.78,4.79-4.87,6.22-7.95c1.63-3.44,1.15-7.46,0.64-11.21c-1.35-9.94-2.86-20.32-8.51-28.63c-1.63-2.61-3.99-4.68-6.78-5.97
		c-2.5-0.79-5.14-1.09-7.75-0.87l-19.41,0.3c-1.44,0.18-2.9-0.1-4.18-0.8c-2.33-1.61-2.55-5.79-5.33-6.22"/>
	<path class="st4" d="M454.24,332.69c0.44-9.68-4.77-19.66-2.15-29.23c1.17-4.26,4.71-6.74,7.12-10.24
		c2.76-3.98,2.86-8.89,2.29-13.52c-1.17-9.35-2.49-18.91-6.7-27.42c-1.86-4.25-4.83-7.91-8.59-10.62c-4.33-2.84-9.6-2.49-14.55-2.41
		l-8.73,0.14c-2.95,0.2-5.91,0.24-8.87,0.12c-1.61-0.18-1.81-1.63-2.62-2.98c-0.98-1.93-2.71-3.37-4.79-3.98
		c-4.65-1.17-6.64,5.97-1.99,7.2c0.44,0,1.11,1.99,1.39,2.45c0.84,1.57,2.11,2.87,3.66,3.74c1.88,0.81,3.93,1.15,5.97,0.97
		l8.25-0.14c4.89,0,10.22-0.78,15.05,0c4.12,0.6,6.56,3.98,8.47,7.44c4.26,7.56,5.49,16.58,6.58,25.07
		c0.58,4.35,0.74,8.09-2.33,11.53c-3.07,2.96-5.38,6.62-6.74,10.66c-2.9,10.52,2.35,20.7,1.87,31.22c-0.22,4.79,7.24,4.77,7.46,0
		L454.24,332.69z"/>
	<path class="st4" d="M403.74,235.16c-9.24,1.09-18.18-3.66-22.45-11.93c-0.6-1.71-1.56-3.27-2.82-4.57
		c-3.14-2.56-7.81-0.4-11.83-0.85c-4.18-0.77-7.64-3.69-9.11-7.68c-1.39-3.92-2.06-8.07-1.99-12.23c-0.15-1-0.01-2.02,0.4-2.94
		c0.66-1.19,2.11-1.69,3.16-2.56c2.64-2.25,2.23-6.48,0.8-9.62c-1.43-3.14-3.62-6.08-3.98-9.54c-0.4-4.47,2.53-8.83,1.73-13.24
		c-0.6-3.24-3.04-5.77-4.89-8.47s-3.14-6.46-1.31-9.21s6.28-2.9,9.72-3.98c5.77-1.65,9.94-6.92,11.79-12.61
		c1.59-5.82,2.22-11.87,1.87-17.9"/>
	<path class="st4" d="M403.74,231.44c-5.22,0.67-10.48-0.85-14.53-4.22c-1.95-1.64-3.53-3.68-4.65-5.97
		c-0.98-2.74-2.86-5.08-5.33-6.62c-4.93-2.51-11.06,1.47-15.41-2.13c-1.96-1.81-3.28-4.2-3.76-6.82c-0.31-1.42-0.52-2.85-0.64-4.29
		c-0.1-1.15-0.76-3.76-0.22-4.83c0.14-0.3,2.39-1.49,2.94-1.99c0.88-0.92,1.55-2.01,1.99-3.2c0.87-2.73,0.82-5.67-0.16-8.37
		c-0.87-2.62-2.47-4.91-3.54-7.44c-1.25-2.92-0.5-5.45,0.26-8.39c0.92-2.89,1.07-5.96,0.44-8.93c-1.08-2.9-2.65-5.59-4.65-7.95
		c-1.03-1.45-3.22-4.47-1.61-6.16s4.79-1.39,6.7-1.99c6.07-1.77,11.05-6.14,13.6-11.93c3.32-6.98,3.48-14.77,3.46-22.35
		c0-4.79-7.48-4.81-7.46,0c0,6.62,0.2,13.92-3.1,19.88c-1.15,2.21-2.81,4.1-4.85,5.53c-2.56,1.71-5.51,1.79-8.37,2.6
		c-5.38,1.11-8.84,6.36-7.74,11.74c0.14,0.69,0.35,1.36,0.64,2c1.38,2.82,3.04,5.48,4.97,7.95c1.79,2.82,1.37,5.11,0.58,8.25
		c-0.93,2.91-1.21,5.99-0.82,9.03c0.62,3.44,2.76,6.18,4.08,9.35c0.64,1.49,1.33,3.86,0.12,5.23c-1.21,1.37-2.6,1.59-3.56,2.94
		c-0.91,1.36-1.37,2.97-1.33,4.61c-0.14,6.56,1.01,14.06,5.37,19.21c1.74,2.1,4.03,3.69,6.6,4.59c3.2,1.07,6.32,0.38,9.58,0.2
		c1.1-0.25,2.25,0,3.14,0.68c0.98,1.41,1.77,2.94,2.37,4.55c1.61,2.73,3.73,5.14,6.24,7.08c5.29,4.22,12.02,6.2,18.75,5.51
		c2.03-0.07,3.66-1.71,3.72-3.74c-0.01-2.05-1.67-3.71-3.72-3.72L403.74,231.44z"/>
	<path class="st4" d="M372.56,105.04c2.07-7.07,3.84-14.2,5.33-21.39"/>
	<path class="st4" d="M376.16,106.01c2.05-7.04,3.83-14.16,5.33-21.37c0.65-1.96-0.42-4.07-2.38-4.72
		c-1.96-0.65-4.07,0.42-4.72,2.38c-0.04,0.11-0.07,0.23-0.1,0.35c-1.48,7.2-3.25,14.33-5.31,21.39c-0.53,1.98,0.63,4.02,2.6,4.57
		C373.56,109.13,375.59,107.98,376.16,106.01z"/>
</g>
<g>
	<path class="st5" d="M50.63,685.33c6.3-2.45,12.94-3.95,19.68-4.45c6.74-0.18,13.92,1.75,18.51,6.64c2.08,2.54,4.01,5.19,5.79,7.95
		c1.81,2.76,4.55,4.78,7.71,5.71c3.29,0.83,6.68-0.98,7.81-4.18c0.91-3.82-2.76-7.5-2.25-11.39c0.54-4.26,5.59-6.26,9.94-6.66
		c5.58-0.37,11.19,0.12,16.62,1.45c12.21,2.72,23.77,7.78,34.06,14.89c4.99,3.46,9.82,7.62,12.21,13.18
		c2.39,5.57,1.69,12.88-3.04,16.68c-0.63,0.57-1.42,0.93-2.27,1.03c-3.08,0.14-3.56-4.49-5.81-6.58c-2.9-2.7-7.83-0.18-9.94,3.26
		c-2.11,3.44-2.62,7.66-5.21,10.66c-0.59,0.79-1.44,1.34-2.41,1.53c-0.57,0.04-1.15-0.06-1.67-0.3c-4.1-1.57-5.97-6.54-10.08-8.25
		c-3.04-1.08-6.4-0.68-9.11,1.07c-2.64,1.75-5.07,3.8-7.24,6.1c-5.8,5.52-12.33,10.21-19.43,13.92c-2.09,1.36-4.58,1.97-7.06,1.73
		c-1.88-0.55-3.57-1.58-4.93-2.98c-18.97-16.83-33.27-38.28-41.5-62.28"/>
	<path class="st5" d="M51.71,688.91c10.6-3.56,25.49-8.23,34.56,1.25c4.26,4.43,6.34,10.56,12.13,13.48
		c4.73,2.41,11.29,1.65,14.3-3.12c1.41-2.37,1.76-5.22,0.95-7.85c-0.52-1.99-2.55-4.73-1.99-6.82c0.5-1.77,2.96-2.49,4.53-2.86
		c3.28-0.62,6.64-0.69,9.94-0.22c13.13,1.6,25.72,6.17,36.82,13.36c4.83,3.02,9.94,6.5,13.04,11.45c2.45,3.98,3.5,9.6,0.42,13.54
		c-0.26,0.34-0.68,0.62-0.91,0.95l-0.28,0.24c-0.5,0.26-0.3,0.38,0.62,0.32c-0.25-0.54-0.54-1.06-0.87-1.55
		c-1.02-2.52-2.94-4.58-5.39-5.77c-5.01-1.99-10.48,1.43-13.06,5.67c-1.55,2.51-2.19,5.45-3.52,7.95c-0.34,0.66-0.78,1.23-1.13,1.87
		c-0.64,1.17-0.12,0.34-0.44,0.24c-1.16-0.65-2.17-1.53-2.96-2.6c-3.98-4.31-8.25-7.42-14.5-5.97c-6.56,1.49-10.92,7.22-15.77,11.39
		c-4.73,4.09-9.93,7.6-15.49,10.46c-1.25,0.82-2.7,1.29-4.2,1.35c-1.75-0.2-3.3-1.99-4.51-3.1c-2.43-2.23-4.79-4.52-7.08-6.88
		c-4.73-4.9-9.1-10.14-13.08-15.67c-8.13-11.35-14.58-23.81-19.15-37c-1.55-4.49-8.75-2.56-7.18,1.99
		c4.37,12.78,10.42,24.91,17.99,36.09c3.75,5.46,7.83,10.69,12.23,15.65c4.28,5.1,9.06,9.76,14.26,13.92
		c6.4,4.77,12.96,1.23,18.95-2.37c6.01-3.65,11.59-7.97,16.64-12.86c2.06-2.42,4.66-4.31,7.6-5.53c3.18-0.93,5.05,0.7,7.1,2.92
		c4.18,4.49,10.34,8.95,15.35,2.72c1.73-2.47,3.07-5.2,3.98-8.07c0.8-1.99,2.17-5.13,4.71-5.29c1.39,0,2.15,2.82,3,4.14
		c1.39,2.49,4.18,3.87,7,3.44c5.83-1.11,8.89-7.95,9.33-13.3c0.26-6.4-2.16-12.62-6.68-17.16c-4.69-4.79-10.1-8.81-16.03-11.93
		c-6.09-3.45-12.52-6.26-19.19-8.39c-6.9-2.33-14.1-3.67-21.37-3.98c-5.81-0.12-12.94,0.7-16.56,5.97c-1.88,2.89-2.22,6.51-0.91,9.7
		c0.58,1.67,2.76,4.95,0.87,6.36c-5.13,3.82-10.92-8.09-13.26-10.92c-10.8-13-29.07-9.01-42.89-4.37c-4.53,1.51-2.58,8.71,1.99,7.18
		L51.71,688.91z"/>
	<path class="st5" d="M187.83,712.01c3.1-6.17,8.81-10.62,15.55-12.13c0.97-0.29,2.01-0.29,2.98,0c1.83,0.74,2.39,2.94,3.04,4.79
		c2.49,6.92,8.99,11.43,14.93,15.75c5.95,4.31,12.11,9.64,13.24,16.9c0.06,2.15,0.49,4.28,1.27,6.28c0.83,1.3,1.92,2.43,3.2,3.3
		c11.21,8.88,22.48,17.67,33.8,26.37"/>
	<path class="st5" d="M191.11,713.9c1.55-3.14,3.91-5.81,6.84-7.73c1.36-0.88,2.82-1.59,4.35-2.11c0.76-0.32,1.57-0.53,2.39-0.62
		c0.22,0,0.36,0,0.14-0.2c0.3,0.18,0.42,0.74,0.54,1.01c1.26,3.41,3.04,6.61,5.27,9.48c2.63,2.88,5.57,5.45,8.77,7.68
		c5.47,3.98,12.51,8.41,14.34,15.45c1.07,4.18,0.64,7.95,3.98,11.21c3.37,3.02,6.91,5.84,10.6,8.45c8.58,6.72,17.19,13.39,25.85,20
		c1.77,1.03,4.05,0.43,5.09-1.33c0.99-1.78,0.41-4.03-1.33-5.09c-8.27-6.34-16.51-12.72-24.72-19.15l-5.73-4.53
		c-1.63-1.27-4.33-2.74-5.29-4.65c-0.55-1.75-0.85-3.57-0.89-5.41c-0.39-2.15-1.12-4.23-2.19-6.14
		c-3.98-7.34-11.27-11.53-17.58-16.54c-3.27-2.31-5.98-5.31-7.95-8.79c-1.75-3.52-2.33-7.79-6.88-8.77
		c-4.55-0.97-9.66,1.65-13.1,3.98c-3.76,2.52-6.82,5.94-8.93,9.94c-2.19,4.26,4.26,7.95,6.44,3.76V713.9z"/>
	<path class="st5" d="M277.31,774.05c8.2,1.22,16.55-0.79,23.3-5.61c8.21-5.97,13.04-15.29,19.31-23.22
		c6.26-7.93,15.63-15.07,25.59-13.3c10.38,1.85,16.52,12.21,22.71,20.74"/>
	<path class="st5" d="M276.25,777.65c8.06,1.24,16.3-0.24,23.42-4.22c6.9-3.98,11.93-10.2,16.34-16.56
		c7.18-10.1,19.25-27.84,33.8-19.35c6.56,3.84,10.7,11.02,15.03,17.02c1.12,1.67,3.32,2.25,5.11,1.33c1.76-1.06,2.35-3.33,1.33-5.11
		c-4.18-5.79-8.09-12.13-13.64-16.74c-5.74-5.16-13.65-7.16-21.16-5.35c-16.84,4.31-22.85,21.69-33.8,32.97
		c-6.29,6.65-15.37,9.92-24.46,8.81c-1.97-0.42-3.94,0.7-4.59,2.6C273.11,775.04,274.27,777.09,276.25,777.65L276.25,777.65z"/>
	<path class="st5" d="M371.35,754.25l92.72,44.72c9.25,4.47,18.85,9.21,25.13,17.34c10.08,13.02,9.21,31.32,6.26,47.54"/>
	<path class="st5" d="M369.49,757.47l69.97,33.8c10.86,5.25,22.03,10.1,32.55,15.91c9.13,5.11,16.62,11.93,19.7,22.17
		c3.26,10.82,2.13,22.53,0.18,33.48c-0.84,4.69,6.34,6.7,7.18,1.99c1.99-10.64,2.98-21.55,1.07-32.27
		c-1.92-10.83-7.95-20.5-16.84-26.98c-9.62-7.18-21.32-11.73-32.05-16.92l-36.55-17.52l-41.46-19.88c-4.29-2.09-8.09,4.33-3.76,6.42
		V757.47z"/>
	<path class="st5" d="M496.82,866.17c53.07,40.46,79.79,105.74,104.17,167.84"/>
	<path class="st5" d="M494.93,869.39c41.12,31.48,66.13,78.56,86.12,125.27c5.71,13.34,11.06,26.84,16.34,40.34
		c0.6,1.94,2.61,3.08,4.59,2.6c1.98-0.56,3.14-2.61,2.6-4.59c-9.72-24.74-19.59-49.45-31.38-73.29
		c-11.79-23.84-25.35-46.35-42.49-66.41c-9.59-11.21-20.32-21.39-32.03-30.36c-1.78-1.02-4.05-0.42-5.09,1.35
		C492.61,866.08,493.19,868.33,494.93,869.39L494.93,869.39z"/>
	<path class="st5" d="M603.73,1035.58l46.11,115.56c0.45,0.81,0.56,1.77,0.3,2.66c-0.41,0.69-1.05,1.22-1.81,1.49
		c-12.27,5.93-25.17,10.46-38.45,13.5c-3.93,1.23-8.12,1.37-12.13,0.4c-12.47-4.14-12.96-25.39-25.85-28.1
		c-8.79-1.85-16.01,6.64-20.96,14.14c-3.04,4.59-6.16,9.37-7.04,14.79s1.11,11.75,5.97,14.18"/>
	<path class="st5" d="M600.13,1036.51l25.13,62.83l12.55,31.67l6.22,15.59l1.47,3.68c0.18,0.64,0.42,1.25,0.74,1.83l0.24,0.66
		l0.5-0.99c-2.49,0.97-4.92,2.1-7.28,3.36c-9.63,4.15-19.61,7.43-29.83,9.8c-4.14,0.95-8.85,2.11-12.73-0.2
		c-2.2-1.48-4.03-3.46-5.33-5.77c-3.4-5.41-5.69-11.53-10.04-16.28c-4.95-5.56-13.01-7.11-19.66-3.78
		c-4.21,2.26-7.85,5.46-10.64,9.35c-3.34,4.09-6.21,8.55-8.55,13.28c-3.98,8.59-4.29,20.72,5.27,25.85
		c4.24,2.27,7.95-4.18,3.76-6.44c-8.19-4.37-3.16-15.29,0.42-20.94c3.58-5.65,9.35-15.47,17.2-15.47c5.79,0,8.93,5.77,11.35,10.2
		c3.02,5.57,5.79,11.57,11,15.47c7.5,5.59,17.12,2.78,25.33,0.6c10.18-2.74,20.11-6.33,29.69-10.72c2.04-0.69,3.94-1.76,5.59-3.14
		c1.62-1.88,2-4.52,0.97-6.78c-1.83-5.11-3.98-10.1-5.97-15.15l-12.33-30.78l-27.84-69.71c-0.6-1.95-2.61-3.1-4.59-2.6
		c-1.98,0.56-3.14,2.61-2.6,4.59H600.13z"/>
	<path class="st5" d="M549.45,1184.83c6.7,1.99,9.29,9.94,10.4,16.86c1.11,6.92,2.31,14.81,8.25,18.49
		c1.67-5.53,3.46-11.25,7.38-15.49s10.68-6.42,15.61-3.42c-9.93,24.45-21.45,48.22-34.5,71.16c-3.24,5.71-7.66,12.03-14.2,12.25
		c-2.35,0.1-4.83-0.64-6.96,0.34c-4.97,2.33-2.86,10.94-7.3,14.18c-4.95,3.6-10.92-3-13.48-8.57c-5.33,2.9-1.99,11.25-4.14,16.94
		c-1.68,4.5-6.68,6.78-11.18,5.1c-4.5-1.68-6.78-6.68-5.1-11.18c0.78-2.09,2.34-3.81,4.35-4.78c1.65-0.78,3.68-1.17,4.59-2.74
		c0.91-1.57,0-4.12-1.07-5.97c-18.24-30.83-41.32-58.53-68.36-82.04c-4.41-3.84-8.91-11.21-4.08-14.48"/>
	<path class="st5" d="M548.46,1188.42c6.14,1.99,7.2,10.62,8.07,15.91c1.19,7.3,3.16,14.69,9.68,18.99
		c1.82,1.03,4.12,0.38,5.15-1.43c0.15-0.26,0.26-0.53,0.34-0.81c1.47-4.89,2.98-10.3,6.66-14.06c2.72-2.78,7.2-4.65,10.86-2.6
		l-1.73-4.22c-7.81,19.2-16.61,37.97-26.39,56.25c-2.51,4.71-5.07,9.4-7.73,14.04c-1.66,3.39-4.01,6.4-6.9,8.83
		c-3.56,2.57-7.36,0.68-11.31,1.77c-3.36,1.15-5.88,3.98-6.62,7.46c-0.58,1.99-0.72,7.1-3.08,7.81c-1.29,0.4-2.8-1.07-3.64-1.89
		c-1.65-1.69-3-3.65-3.98-5.81c-1.05-1.77-3.33-2.36-5.11-1.33c-5.03,3.08-5.07,8.61-5.15,13.92c0.24,2.05-0.14,4.13-1.09,5.97
		c-1.31,1.54-3.33,2.3-5.33,1.99c-3.74-0.54-4.45-5.37-2.37-7.95c1.51-1.99,4.35-1.99,6.14-3.62c2.44-2.44,3.04-6.17,1.47-9.25
		c-1.36-2.82-2.92-5.53-4.67-8.11c-1.98-3.18-4-6.33-6.08-9.44c-3.67-5.53-7.52-10.93-11.53-16.21
		c-8.36-11.07-17.39-21.62-27.04-31.59c-5.21-5.38-10.6-10.58-16.19-15.61c-2.6-2.05-5.02-4.34-7.22-6.82
		c-0.62-0.78-3.54-4.75-2.13-5.83c1.72-1.08,2.3-3.31,1.33-5.09c-1.04-1.77-3.31-2.37-5.09-1.33c0,0,0,0,0,0
		c-5.59,4.26-4.31,10.88-0.56,16.01c2.1,2.64,4.48,5.05,7.1,7.18c2.8,2.51,5.57,5.03,8.27,7.64c10.86,10.35,21.01,21.42,30.38,33.15
		c9.35,11.69,17.87,24.02,25.49,36.9c0.59,0.74,1.04,1.58,1.31,2.49c0,0.85,0.38,0-0.18,0.6c-0.85,0.89-2.8,1.09-3.88,1.83
		c-2.38,1.64-4.13,4.06-4.93,6.84c-1.83,5.6,0.59,11.7,5.75,14.53c6.12,2.85,13.4,0.6,16.84-5.21c1.33-3.02,1.92-6.31,1.71-9.6
		c0-1.99-0.56-5.59,1.45-6.8l-5.11-1.35c3.34,6.98,13.2,16.7,20.46,8.25c2.41-2.82,2.76-6.46,3.76-9.94
		c0.26-0.95,0.54-1.99,1.49-2.51c0.95-0.21,1.93-0.21,2.88,0c1.46,0.13,2.94,0.09,4.39-0.12c9.56-1.55,14.44-12.07,18.63-19.62
		c5.55-10.02,10.82-20.2,15.79-30.54c5.67-11.74,10.98-23.67,15.91-35.79c0.45-1.63-0.25-3.36-1.71-4.22
		c-5.97-3.36-13.12-1.79-18.33,2.37c-5.71,4.59-8.09,11.93-10.14,18.77l5.47-2.23c-5.97-3.98-5.71-13.02-7.1-19.23
		c-1.57-7.1-5.09-14.1-12.43-16.5c-4.57-1.49-6.52,5.71-1.99,7.2H548.46z"/>
	<path class="st5" d="M430.73,1191.76c-2.91-7.33-8.01-13.58-14.61-17.9c-0.9-0.71-2.02-1.09-3.16-1.07
		c-2.49,0.3-3.14,3.52-3.68,5.97c-0.54,2.45-3.02,5.31-5.01,3.78l-16.11-33.36c-0.86-2.08-2.08-4-3.6-5.67
		c-4.69-4.59-12.96-3.16-17.8,1.29c-4.83,4.45-7.12,10.94-9.27,17.14c-0.78,2.96-2.13,5.73-3.98,8.17
		c-1.88,1.88-4.01,3.48-6.34,4.75c-12.29,7.82-22.25,18.81-28.81,31.81c-4.49-3.15-7.22-8.24-7.38-13.72
		c-5.21,0.41-9.11,4.96-8.7,10.17c0.03,0.4,0.09,0.79,0.17,1.18c0.84,3.18,3.06,7.32,0.28,9.07c-1.09,0.54-2.33,0.69-3.52,0.44
		l-15.65-1.53c-4.26-0.42-9.94-4.12-7.24-7.36c-5.27,2.53-9.19,7.62-14.81,9.23c-5.63,1.61-13.2-4.51-9.6-9.13
		c1.33-1.73,3.72-2.35,5.23-3.98c3.5-3.68-1.53-10.94-6.2-8.97c6.93-13.89,10.01-29.38,8.91-44.86c-6.16-0.47-12.36,0.1-18.33,1.69"
		/>
	<path class="st5" d="M434.39,1190.77c-2.33-5.94-5.96-11.29-10.62-15.65c-4.16-3.82-11.77-9.62-16.11-2.72
		c-1.08,2-1.84,4.16-2.25,6.4l-0.2,0.34c-0.66,0.7,0,0.95,1.99,0.72c-0.34-0.91-0.76-1.79-1.27-2.62l-2.96-6.14l-9.9-20.18
		c-2.84-5.96-5.63-12.11-12.71-13.52c-5.88-1-11.89,0.8-16.24,4.87c-4.79,4.33-7.34,10.6-9.42,16.54c-0.76,2.89-1.91,5.65-3.44,8.21
		c-1.83,2.53-4.81,3.98-7.36,5.61c-12.22,8.11-22.15,19.24-28.81,32.31l5.09-1.33c-3.33-2.48-5.36-6.35-5.51-10.5
		c-0.03-2.05-1.69-3.71-3.74-3.74c-4.49,0.26-8.55,2.78-10.76,6.7c-2.51,4.37-1.61,8.33-0.28,12.86c0.22,0.61,0.37,1.24,0.44,1.89
		c0-0.3,0.74-0.36,0.3-0.5c-0.66-0.1-1.32-0.15-1.99-0.14c-3.1-0.28-6.2-0.6-9.31-0.91c-2.5-0.04-4.98-0.38-7.4-1.01
		c-0.8-0.38-1.57-0.81-2.33-1.27l-0.48-0.54c0.66-0.24-0.84,2.09,0.32,0.52c2.39-3.26-2.11-6.62-5.11-5.11
		c-2.47,1.35-4.81,2.94-6.98,4.73c-2.02,1.83-4.38,3.23-6.96,4.12c-1.66,0.3-3.36-0.17-4.63-1.27c-1.19-0.97-1.49-1.49-0.48-2.47
		c1.01-0.97,2.15-1.29,3.08-1.99c3.26-2.24,4.46-6.48,2.86-10.1c-1.73-4.47-6.56-7.85-11.39-6.16l4.2,5.49
		c7.21-14.48,10.46-30.61,9.4-46.75c-0.05-2.03-1.69-3.67-3.72-3.72c-6.46-0.52-12.95,0-19.25,1.53c-4.67,1.11-2.7,8.31,1.99,7.18
		c5.66-1.34,11.49-1.76,17.28-1.25l-3.74-3.74c1.06,14.81-1.84,29.64-8.39,42.97c-1.31,2.68,0.91,6.64,4.22,5.49
		c1.19-0.42,2.19,0.52,2.53,1.71c0.5,1.75-1.99,2.31-3.1,3.16c-3.97,2.47-5.19,7.7-2.72,11.67c0.34,0.54,0.73,1.04,1.18,1.5
		c3.36,3.74,8.58,5.21,13.4,3.76c5.73-1.99,9.68-6.68,14.99-9.37l-5.11-5.11c-3.82,5.21,1.69,10.26,6.3,11.93
		c2.94,0.88,5.98,1.35,9.05,1.41c3.7,0.38,7.42,0.84,11.13,1.09c2.87,0.42,5.73-0.87,7.32-3.3c1.13-2.47,1.18-5.29,0.14-7.79
		c-0.66-2.13-1.63-3.98-0.7-6.22c0.78-1.95,2.55-3.32,4.63-3.58l-3.76-3.66c0.25,6.78,3.66,13.04,9.21,16.94
		c1.79,1.03,4.07,0.42,5.11-1.35c5.28-10.51,12.87-19.69,22.19-26.86c4.69-3.56,10.6-5.97,13.92-11.08
		c3.32-5.11,4.2-11.15,6.84-16.44c2.29-4.59,5.75-8.97,11.17-9.72c6.26-0.87,8.21,4.41,10.52,9.19l9.33,19.33l4.24,8.77
		c1.49,3.1,3.36,5.77,7.3,4.67c2.95-1.1,5.14-3.62,5.81-6.7c0.28-1.03,0.66-2.15,0.85-3.18c0.32-1.67,0.26,0.22,0-0.1
		c-0.36,0.25-0.16,0.45,0.6,0.6l1.29,0.87c5.15,3.75,9.16,8.85,11.59,14.73c0.6,1.93,2.6,3.07,4.57,2.6
		c1.99-0.55,3.15-2.61,2.6-4.59H434.39z"/>
	<path class="st5" d="M250.86,1148.58l-20.94,0.28c-2.16-0.15-4.32,0.22-6.3,1.07c-2.32,1.62-4.12,3.86-5.21,6.46
		c-4.28,7.9-9.52,15.25-15.59,21.87c-1.57,1.93-3.55,3.48-5.81,4.53c-3.98,1.51-8.43-0.1-12.41-1.71c-1.68-0.49-3.17-1.49-4.26-2.86
		c-1.23-1.99-0.58-4.55,0-6.8l15.91-52.25c-5.64-0.34-11.29-0.04-16.86,0.91c-1.36,0.14-2.66,0.6-3.82,1.33
		c-2.49,1.83-2.56,5.41-2.84,8.49c-0.28,3.08-1.75,6.8-4.83,6.96c-3.08,0.16-5.13-3.88-4.79-7.14c0.34-3.26,1.99-6.36,1.55-9.62
		c-2.94-0.59-5.9,0.86-7.24,3.54c-1.24,2.64-1.86,5.52-1.83,8.43l-1.57,24.1"/>
	<path class="st5" d="M250.86,1144.94l-14.75,0.18c-4.41,0-9.5-0.54-13.64,1.35c-4.14,1.89-5.97,5.96-8.11,9.64
		c-2.2,3.91-4.65,7.68-7.32,11.29c-2.55,3.62-5.42,7.01-8.59,10.1c-3.56,3.32-7.5,2.17-11.63,0.56c-1.39-0.52-3.38-0.93-3.42-2.66
		c0.27-2.3,0.88-4.55,1.79-6.68l4.47-14.73l10.2-33.8c0.53-2.02-0.68-4.08-2.7-4.61c-0.29-0.08-0.6-0.12-0.9-0.12
		c-5.66-0.29-11.33,0.01-16.92,0.91c-5.17,0.82-8.87,3.48-9.8,8.85c-0.16,2-0.43,3.99-0.8,5.97c-0.1,0.74-0.42,1.43-0.91,1.99
		c-0.42,0.3,0,0.14-0.28,0c-1.13-0.95-0.72-3.3-0.46-4.45c0.83-2.73,1.27-5.57,1.31-8.43c-0.04-1.66-1.15-3.11-2.74-3.58
		c-3.67-0.84-7.5,0.42-9.94,3.28c-2.29,2.94-3.56,6.55-3.62,10.28c-0.78,8.67-1.09,17.38-1.63,26.07c-0.3,4.79,7.16,4.77,7.46,0
		l1.21-19.74c0.16-2.45-0.3-13.92,4.61-12.71l-2.72-3.6c0.18,3.3-1.29,6.36-1.55,9.62c-0.18,2.35,0.36,4.7,1.55,6.74
		c2.03,3.73,6.7,5.11,10.44,3.08c0.94-0.51,1.76-1.21,2.41-2.05c1.49-2.04,2.39-4.44,2.6-6.96c0.2-1.69,0-4.65,1.21-5.97
		c0.84-0.84,2.62-0.87,3.72-1.05c1.53-0.24,3.06-0.4,4.61-0.52c3.43-0.27,6.88-0.31,10.32-0.12l-3.58-4.71l-9.78,32.31l-4.89,16.15
		c-1.37,4.49-3.56,9.8-0.42,14.06c2.6,3.58,8.47,5.35,12.65,6.08c4.9,0.93,9.94-0.66,13.42-4.24c6.9-6.85,12.73-14.7,17.3-23.28
		c0.86-2.2,2.17-4.19,3.84-5.87c1.99-1.43,5.15-0.97,7.46-0.99l18.55-0.24c4.79,0,4.81-7.52,0-7.46L250.86,1144.94z"/>
	<path class="st5" d="M154.37,1158.02h-22.41c-1.72,0.15-3.44-0.15-5.01-0.87c-4.57-2.62-2.31-9.54,0.16-14.2
		c9.51-18.05,13.77-38.41,12.31-58.76c8.17-4.24,15.65,7.95,24.76,9.31c3.34,0.5,6.82-0.56,10.06,0.34s5.79,5.45,3.14,7.56
		c6.52,2.35,15.65,0.8,17.6-5.85c0.95-3.22,0-6.64,0-9.94s1.79-7.32,5.13-7.48c5.61-0.26,5.53,8.35,8.33,13.18
		c1.37,2.04,3.16,3.77,5.25,5.07c15.6,11.09,32.75,19.8,50.9,25.85c2.91,1.22,6.09,1.63,9.21,1.19c3.06-0.72,5.83-3.66,5.21-6.72
		c-0.89-4.35-7.56-6.28-7.26-10.72c0.12-1.89,1.59-3.42,2.31-5.19c3.24-7.95-8.77-14.4-9.11-22.93l26.5,22.63
		c2.46-10.97,7.2-21.29,13.92-30.3c-7.49-4.83-13.11-12.08-15.91-20.54c5.54-4.89,14-4.37,18.89,1.17c0.17,0.19,0.34,0.39,0.5,0.6"
		/>
	<path class="st5" d="M154.37,1154.28h-14.61c-2.6,0-5.19,0-7.79,0c-1.13,0-2.94,0.26-3.7-0.85c-1.15-1.67,0.56-5.41,1.21-6.9
		c1.63-3.68,3.62-7.2,5.17-10.92c6.81-16.24,9.71-33.85,8.49-51.42l-1.85,3.2c2.29-1.07,4.77,0.4,6.7,1.57
		c2.82,1.73,5.41,3.82,8.29,5.47c3.21,1.94,6.89,2.95,10.64,2.92c1.99,0,4.75-0.74,6.56,0.16c0.53,0.27,0.95,0.71,1.19,1.25
		c0.22,0.58,0.28-0.2,0,0c-1.45,1.5-1.4,3.89,0.1,5.34c0.44,0.42,0.97,0.73,1.55,0.9c5.53,2.01,11.67,1.49,16.78-1.43
		c2.49-1.57,4.36-3.96,5.29-6.76c1.31-3.98-0.24-7.83,0.16-11.93c0.04-1.06,0.45-2.07,1.15-2.86c0.46-0.4,0.58-0.32,0.8-0.14
		c1.45,1.25,1.87,4.29,2.45,6.06c0.8,3.03,2.32,5.83,4.43,8.15c2.88,2.61,6.01,4.92,9.35,6.9c13.31,8.81,27.65,15.96,42.69,21.3
		c6.66,2.39,15.43,5.57,20.98-0.8c2.32-2.52,2.97-6.16,1.67-9.33c-1.27-2.36-3.02-4.43-5.13-6.08c-0.46-0.44-1.41-1.19-1.49-1.77
		c-0.18-1.13,1.77-3.48,2.19-4.61c1.01-2.94,0.82-6.17-0.54-8.97c-1.34-2.7-2.97-5.25-4.85-7.6c-1.83-2.09-3.07-4.63-3.58-7.36
		l-6.36,2.64l26.48,22.63c1.52,1.44,3.93,1.38,5.37-0.15c0.4-0.43,0.7-0.94,0.87-1.5c2.43-10.64,7.04-20.65,13.52-29.43
		c1-1.78,0.4-4.04-1.35-5.09c-6.61-4.36-11.58-10.81-14.12-18.31l-0.95,3.62c4.04-3.41,10.07-2.95,13.54,1.03
		c1.08,1.71,3.31,2.29,5.09,1.33c1.77-1.04,2.38-3.31,1.35-5.09c-5.69-7.62-16.48-9.18-24.1-3.49c-0.4,0.3-0.78,0.61-1.15,0.94
		c-0.97,0.94-1.33,2.33-0.95,3.62c3.09,9.35,9.25,17.39,17.48,22.81l-1.33-5.11c-6.83,9.32-11.69,19.93-14.28,31.2l6.24-1.63
		l-26.5-22.67c-2.25-1.99-6.6-0.84-6.36,2.64c0.38,5.57,3.66,9.68,6.74,14.08c1.43,1.65,2.43,3.62,2.92,5.75
		c0.22,2.43-2.21,4.59-2.68,6.96c-0.49,2.77,0.38,5.6,2.35,7.62c1.23,1.45,4.14,2.96,4.67,4.83c0.66,2.27-2.82,2.92-4.35,2.8
		c-3.7-0.55-7.3-1.61-10.7-3.16c-14.2-5.19-27.71-12.06-40.26-20.48c-2.68-1.81-6.18-3.64-7.95-6.38c-1.16-2.17-2.03-4.48-2.56-6.88
		c-1.71-4.99-5.35-9.94-11.37-8.13c-3.28,1.28-5.66,4.16-6.3,7.62c-0.39,1.81-0.48,3.67-0.26,5.51c0.44,2.21,0.44,4.49,0,6.7
		c-1.65,5.01-9.05,4.59-13,3.24l1.65,6.24c3.98-3.8,1.99-9.94-2.27-12.65c-4.93-3.18-10.92-0.18-16.05-2.51
		c-7.95-3.66-14.55-12.49-24.18-7.95c-1.16,0.65-1.87,1.89-1.85,3.22c1.07,14.95-1.01,29.96-6.1,44.06
		c-1.25,3.43-2.68,6.79-4.29,10.06c-1.57,2.78-2.9,5.7-3.98,8.71c-1.67,5.63-0.58,12.49,5.97,14.26c3.98,1.07,8.47,0.46,12.47,0.44
		h14.61c2.06-0.15,3.61-1.94,3.46-4c-0.14-1.85-1.61-3.32-3.46-3.46H154.37z"/>
	<path class="st5" d="M310.49,1051.09c1.59-6.26,4.99-11.93,7.44-17.9s3.98-12.79,1.63-18.79c-2.94-7.54-10.92-11.59-18.25-15.01
		c-0.89-0.54-1.93-0.76-2.96-0.62c-1.11,0.46-1.99,1.35-2.43,2.47c-2.49,4.61-4.32,9.55-5.43,14.67
		c-10.17-6.05-20.03-12.62-29.53-19.68h14.85c1.12,0.09,2.25-0.11,3.28-0.58c0.91-0.67,1.61-1.6,1.99-2.66
		c2.27-4.56,2.59-9.85,0.89-14.65c-1.81-4.82-6.21-8.2-11.33-8.69c-1.7,0.08-3.4,0.02-5.09-0.18c-3.22-0.83-5.36-3.87-5.05-7.18"/>
	<path class="st5" d="M314.07,1052.06c2.23-8.25,7.4-15.39,9.42-23.72c2.03-8.33,0.68-16.42-5.31-22.59
		c-2.52-2.49-5.39-4.6-8.51-6.26c-2.92-1.65-6.72-4.16-10.08-4.39c-4.67-0.34-6.76,3.78-8.45,7.44c-1.85,3.99-3.28,8.16-4.26,12.45
		l5.49-2.23c-10.17-6.06-20.02-12.63-29.53-19.68l-1.89,6.96h10.88c3.24,0,6.9,0.48,9.7-1.47c2.27-2,3.82-4.68,4.43-7.64
		c0.92-3.23,1.14-6.62,0.64-9.94c-1.08-8.99-8.98-15.58-18.01-15.03c-2.53,0-4.45-0.8-4.26-3.64c0.3-4.79-7.16-4.77-7.46,0
		c-0.28,4.97,2.97,9.46,7.77,10.76c2.6,0.66,5.33-0.14,7.95,0.7c1.93,0.68,3.61,1.95,4.79,3.62c2.69,4.25,2.87,9.63,0.48,14.06
		c-0.54,1.11-0.8,1.05-1.99,1.09c-1.65,0-3.3,0-4.95,0H261c-3.98,0-4.69,4.87-1.89,6.94c9.51,7.05,19.37,13.62,29.55,19.68
		c1.8,1.03,4.1,0.39,5.12-1.41c0.15-0.26,0.26-0.53,0.34-0.82c0.72-3.41,1.78-6.74,3.14-9.94c0.34-0.8,0.72-1.59,1.11-2.37
		c0.4-0.78,1.15-1.61,1.15-2.17l0.3-0.4c-1.03,0.14-1.23,0.28-0.66,0.42c0.58,0.14,1.45,0.64,1.99,0.85
		c4.79,2.29,10.06,4.87,13.28,9.23c3.98,5.37,2.82,12.13,0.66,17.9c-2.45,6.6-6.24,12.61-8.09,19.47c-1.25,4.63,5.97,6.62,7.18,1.99
		L314.07,1052.06z"/>
	<path class="st5" d="M261.06,962.29c0.38-5.97-1.33-11.93-2.25-17.76c-0.91-5.83-0.91-12.41,2.49-17.34
		c1.99-2.78,4.79-4.87,6.22-7.95c1.63-3.44,1.15-7.46,0.64-11.21c-1.35-9.94-2.86-20.32-8.51-28.63c-1.63-2.61-3.99-4.68-6.78-5.97
		c-2.5-0.79-5.14-1.09-7.75-0.87l-19.41,0.3c-1.44,0.18-2.9-0.1-4.18-0.8c-2.33-1.61-2.55-5.79-5.33-6.22"/>
	<path class="st5" d="M264.8,962.29c0.44-9.68-4.77-19.66-2.15-29.23c1.17-4.26,4.71-6.74,7.12-10.24
		c2.76-3.98,2.86-8.89,2.29-13.52c-1.17-9.35-2.49-18.91-6.7-27.42c-1.86-4.25-4.83-7.91-8.59-10.62c-4.33-2.84-9.6-2.49-14.55-2.41
		l-8.73,0.14c-2.95,0.2-5.91,0.24-8.87,0.12c-1.61-0.18-1.81-1.63-2.62-2.98c-0.98-1.93-2.71-3.37-4.79-3.98
		c-4.65-1.17-6.64,5.97-1.99,7.2c0.44,0,1.11,1.99,1.39,2.45c0.84,1.57,2.11,2.87,3.66,3.74c1.88,0.81,3.93,1.15,5.97,0.97
		l8.25-0.14c4.89,0,10.22-0.78,15.05,0c4.12,0.6,6.56,3.98,8.47,7.44c4.26,7.56,5.49,16.58,6.58,25.07
		c0.58,4.35,0.74,8.09-2.33,11.53c-3.07,2.96-5.38,6.62-6.74,10.66c-2.9,10.52,2.35,20.7,1.87,31.22c-0.22,4.79,7.24,4.77,7.46,0
		L264.8,962.29z"/>
	<path class="st5" d="M214.29,864.76c-9.24,1.09-18.18-3.66-22.45-11.93c-0.6-1.71-1.56-3.27-2.82-4.57
		c-3.14-2.57-7.81-0.4-11.83-0.85c-4.18-0.77-7.64-3.69-9.11-7.68c-1.39-3.92-2.06-8.07-1.99-12.23c-0.15-1-0.01-2.02,0.4-2.94
		c0.66-1.19,2.11-1.69,3.16-2.56c2.64-2.25,2.23-6.48,0.8-9.62c-1.43-3.14-3.62-6.08-3.98-9.54c-0.4-4.47,2.53-8.83,1.73-13.24
		c-0.6-3.24-3.04-5.77-4.89-8.47s-3.14-6.46-1.31-9.21c1.83-2.74,6.28-2.9,9.72-3.98c5.77-1.65,9.94-6.92,11.79-12.61
		c1.59-5.82,2.22-11.87,1.87-17.9"/>
	<path class="st5" d="M214.29,861.04c-5.22,0.67-10.48-0.85-14.53-4.22c-1.95-1.64-3.53-3.68-4.65-5.97
		c-0.98-2.74-2.86-5.08-5.33-6.62c-4.93-2.51-11.06,1.47-15.41-2.13c-1.96-1.81-3.28-4.2-3.76-6.82c-0.31-1.41-0.52-2.85-0.64-4.29
		c-0.1-1.15-0.76-3.76-0.22-4.83c0.14-0.3,2.39-1.49,2.94-1.99c0.88-0.92,1.55-2.01,1.99-3.2c0.87-2.73,0.82-5.67-0.16-8.37
		c-0.87-2.62-2.47-4.91-3.54-7.44c-1.25-2.92-0.5-5.45,0.26-8.39c0.92-2.89,1.07-5.96,0.44-8.93c-1.08-2.9-2.65-5.59-4.65-7.95
		c-1.03-1.45-3.22-4.47-1.61-6.16c1.61-1.69,4.79-1.39,6.7-1.99c6.07-1.77,11.05-6.14,13.6-11.93c3.32-6.98,3.48-14.77,3.46-22.35
		c0-4.79-7.48-4.81-7.46,0c0,6.62,0.2,13.92-3.1,19.88c-1.15,2.21-2.81,4.1-4.85,5.53c-2.56,1.71-5.51,1.79-8.37,2.6
		c-5.38,1.11-8.84,6.36-7.74,11.74c0.14,0.69,0.35,1.36,0.64,2c1.38,2.82,3.04,5.48,4.97,7.95c1.79,2.82,1.37,5.11,0.58,8.25
		c-0.93,2.91-1.21,5.99-0.82,9.03c0.62,3.44,2.76,6.18,4.08,9.35c0.64,1.49,1.33,3.86,0.12,5.23c-1.21,1.37-2.6,1.59-3.56,2.94
		c-0.91,1.36-1.37,2.97-1.33,4.61c-0.14,6.56,1.01,14.06,5.37,19.21c1.74,2.1,4.03,3.69,6.6,4.59c3.2,1.07,6.32,0.38,9.58,0.2
		c1.1-0.25,2.25,0,3.14,0.68c0.98,1.41,1.77,2.94,2.37,4.55c1.61,2.73,3.73,5.14,6.24,7.08c5.29,4.22,12.02,6.2,18.75,5.51
		c2.03-0.07,3.66-1.71,3.72-3.74c-0.01-2.05-1.67-3.71-3.72-3.72L214.29,861.04z"/>
	<path class="st5" d="M183.12,734.64c2.07-7.07,3.84-14.2,5.33-21.39"/>
	<path class="st5" d="M186.72,735.62c2.05-7.04,3.83-14.16,5.33-21.37c0.65-1.96-0.42-4.07-2.38-4.72
		c-1.96-0.65-4.07,0.42-4.72,2.38c-0.04,0.11-0.07,0.23-0.1,0.35c-1.48,7.2-3.25,14.33-5.31,21.39c-0.53,1.98,0.63,4.02,2.6,4.57
		C184.12,738.73,186.15,737.58,186.72,735.62z"/>
</g>
</svg>
