<?xml version="1.0" encoding="utf-8"?>
<!-- Generator: Adobe Illustrator 27.0.0, SVG Export Plug-In . SVG Version: 6.00 Build 0)  -->
<svg version="1.1" id="Capa_1" xmlns="http://www.w3.org/2000/svg" xmlns:xlink="http://www.w3.org/1999/xlink" x="0px" y="0px"
	 viewBox="0 0 1080 1350" style="enable-background:new 0 0 1080 1350;" xml:space="preserve">
<style type="text/css">
	.st0{fill:#FFFFFF;stroke:#FFFFFF;stroke-miterlimit:10;}
	.st1{fill:#D18730;}
	.st2{fill:#FF9498;}
	.st3{fill:#284565;}
	.st4{fill:#284566;}
	.st5{fill:#FFFFFF;}
	.st6{fill:#FFBD59;}
</style>
<g id="_x39_3aec78838">
	<path class="st5" d="M268.18,1047.67c5.79-27.71,2.46-56.65,2.67-84.92c0.25-28.3,5.13-59,23.42-79.12
		c7.52-8.08,17.95-14.43,28.31-12.57c17.31,3.13,25.07,25.32,28.02,44.39c8.08,51.69,3.86,104.76-0.25,157.12"/>
	<path class="st5" d="M274.68,1049.5c5.93-29.04,2.67-58.47,2.95-87.83c0.32-23.11,3.34-47.94,16.82-67.43
		c5.58-8.08,15.45-18.19,26.37-16.65c8.67,1.23,14.22,9.66,17.52,17.63c3.86,10.54,6.29,21.39,7.16,32.55
		c1.65,14.71,2.56,29.53,2.7,44.35c0.53,33.54-2.07,67.04-4.71,100.47c0,1.86,0.67,3.44,2,4.78c1.3,1.3,2.88,1.97,4.74,1.97
		s3.48-0.67,4.78-1.97c1.33-1.33,1.97-2.91,1.97-4.78c2.49-31.47,4.92-62.97,4.78-94.57c-0.04-15.94-0.95-31.82-2.67-47.69
		c-1.44-12.85-3.02-26.02-7.8-38.14c-3.97-10.18-10.11-20.58-20.47-25.36c-13.06-6.04-26.76-1.16-37.15,7.76
		c-20.05,17.24-26.97,45.72-29.01,70.94c-2.7,33.4,3.55,67.25-3.23,100.33c-0.49,1.83-0.28,3.51,0.63,5.13
		c0.91,1.62,2.28,2.67,4.07,3.16c1.79,0.53,3.48,0.32,5.09-0.63c1.62-0.91,2.7-2.25,3.2-4.04H274.68z"/>
	<path class="st5" d="M266.11,1047.15c-26.37-42.6-61.14-76.59-104.3-102.02c-7.69-4.42-16.86-8.57-24.83-4.6
		c-14.96,7.45-10.01,32.38-1.23,47.44c25.78,44.46,64.34,79.72,108.8,99.42c4.28,1.86,8.92,3.9,11.41,8.08
		c2,4.28,2.77,8.78,2.35,13.49l-0.14,191.29c0,9.48,1.86,21.7,10.32,23.39c4.74,0.95,9.41-2.28,12.89-6.04
		c17.66-19.14,16.05-50.29,14.5-77.44c-1.55-27.11,0.67-59.49,21.56-73.92c20.54,39.96-3.16,92.15,8.96,136.15
		c0.67,3.23,2.11,6.04,4.32,8.43c8.78,7.8,19.31-7.76,21.6-20.05c8.39-46.36,8.39-92.71,0-139.07c-1.65-6.5-2.14-13.1-1.44-19.77
		c2.7-16.15,18.61-24.27,31.5-32.48c12.89-8.22,26.02-24.27,19.49-39.02c-4.25-9.59-15.66-13.06-25.14-10.78
		c-9.52,2.32-17.52,9.2-25.21,15.91"/>
	<path class="st5" d="M271.94,1043.74c-15-24.06-32.91-45.72-53.63-65.04c-10.08-9.34-20.72-17.98-31.92-25.92
		c-5.51-3.83-11.13-7.52-16.86-10.99c-6.04-4.18-12.64-7.16-19.77-8.99c-3.02-0.7-6.08-0.81-9.17-0.28
		c-3.06,0.53-5.93,1.62-8.57,3.27c-2.63,1.65-4.85,3.76-6.64,6.32c-1.83,2.53-3.06,5.34-3.72,8.36c-2.7,11.13,0.14,23.04,4.53,33.33
		c5.55,11.87,12.43,22.9,20.65,33.12c8.15,10.85,17.07,21,26.83,30.41c19.14,18.65,40.84,33.57,65.07,44.81
		c4.46,2.04,10.78,3.69,12.22,9.06c0.6,3.02,0.77,6.04,0.56,9.1c0,4.53,0,8.99,0,13.49v175.2c-0.21,5.9,0.49,11.69,2.11,17.38
		c1.62,6.18,5.3,10.57,11.1,13.2c7.23,2.84,14.61-0.56,19.98-5.41c19.24-17.88,19.67-48.15,18.65-72.38
		c-0.98-22.65-4.04-48.85,8.32-69.22c2.42-4.07,5.55-7.48,9.38-10.29l-9.24-2.42c7.27,14.47,8.25,30.83,7.69,46.71
		c-0.6,17.31-2.99,34.52-3.3,51.83c-0.21,8.92,0.42,17.8,1.83,26.62c1.37,8.08,3.13,18.23,10.82,22.79
		c15.49,9.31,27.74-12.75,30.17-25.04c7.59-40.42,8.64-80.98,3.13-121.72c-1.26-9.69-3.51-19.31-4.6-29.01
		c-1.23-7.69,0.74-14.43,5.93-20.23c10.08-11.1,25.04-15.84,35.05-26.97c6.43-7.06,11.62-15.91,11.8-25.67
		c0.07-4.64-1.02-8.99-3.27-13.03c-2.25-4.07-5.37-7.27-9.34-9.66c-7.94-4.5-16.26-5.3-24.93-2.46c-10.04,3.27-18.23,10.18-26.06,17
		c-1.3,1.33-1.97,2.91-1.97,4.78s0.67,3.44,1.97,4.78c1.33,1.3,2.91,1.93,4.78,1.93c1.83,0,3.44-0.63,4.78-1.93
		c8.96-7.83,22.9-20.12,35.05-12.22c12.15,7.87,1.33,24.09-6.43,31.01c-10.15,8.96-23.39,13.49-32.34,24.27
		c-5.06,5.86-7.97,12.64-8.78,20.37c-0.91,9.13,1.79,18.4,3.2,27.36c5.9,36.77,6.43,73.64,1.55,110.55
		c-1.05,8.11-1.65,17.03-4.85,24.58c-0.98,2.42-2.28,4.67-3.9,6.74c-0.74,0.91-1.58,1.76-2.49,2.49c-0.18,0.18-1.51,1.02-0.6,0.49
		c-1.05,0.6-1.69,0-0.28,0.42c-0.81-0.21-0.77,0-1.62-1.02c-0.74-1.12-1.26-2.35-1.55-3.65c-1.12-3.79-1.97-7.62-2.53-11.48
		c-1.05-7.66-1.44-15.38-1.16-23.11c0.77-34.66,10.15-71.61-6.25-104.19c-0.95-1.62-2.32-2.63-4.11-3.13
		c-1.79-0.46-3.51-0.25-5.13,0.7c-19.63,13.84-24.62,38.59-25.28,61.25c-0.7,23.67,4.39,47.97-1.9,71.25
		c-1.4,5.41-3.62,10.47-6.64,15.17c-2.07,3.23-6.04,9.06-10.36,8.92c-1.19,0-1.69-0.84-2.32-1.93c-1.02-1.93-1.72-4-2.07-6.18
		c-0.77-6.01-0.98-12.05-0.63-18.09v-167.48c0.35-7.44,0.25-14.89-0.39-22.33c-0.67-7.27-4.11-12.82-10.32-16.68
		c-5.13-2.81-10.43-5.37-15.84-7.66c-11.27-5.69-22.02-12.29-32.2-19.77c-20.23-14.96-37.58-32.73-52.11-53.31
		c-6.46-9.1-13.49-18.86-17.03-29.46c-1.65-4.64-2.56-9.41-2.7-14.36c-0.39-3.86,0.42-7.45,2.49-10.78c0.67-1.05-1.02,1.02,0.46-0.6
		c0.32-0.35,0.63-0.67,0.98-0.98c0.46-0.46,1.02-0.81,1.62-1.09c2.63-1.23,5.3-1.4,8.08-0.49c6.08,2.07,11.69,4.95,16.93,8.71
		c10.85,6.64,21.18,14.01,31.01,22.12c20.26,16.72,38.07,35.75,53.38,57.14c3.83,5.37,7.48,10.89,10.99,16.44
		c4.6,7.34,16.19,0.56,11.66-6.81H271.94z"/>
	<path class="st5" d="M511.62,911.73c-4.42-27.22-8.81-54.75-7.09-82.42c1.69-27.64,10.11-55.8,28.13-75.26
		c6.74-7.34,16.96-13.49,25.21-8.53c3.41,2.46,6.01,5.62,7.8,9.48c13.03,24.27,14.89,53.63,16.4,81.82l5.09,93.45"/>
	<path class="st5" d="M518.12,909.94c-7.34-45.86-15.59-98.29,10.82-139.84c4.64-7.37,12.05-18.33,21.56-19.6
		c3.97-0.53,6.39,2.56,8.08,5.58c2.77,4.71,5.06,9.66,6.85,14.82c7.9,22.19,8.88,45.97,10.15,69.25l4.88,90.11
		c0.46,8.64,13.94,8.67,13.49,0l-4.71-86.78c-1.37-25.67-2.18-52.29-10.99-76.73c-3.86-10.78-9.41-25.74-21.7-29.08
		c-12.29-3.34-23.99,5.9-31.43,14.78c-15.73,18.86-23.46,42.77-26.41,66.9c-3.83,31.43,1.47,63.14,6.46,94.12
		c0.49,1.79,1.58,3.16,3.2,4.07c1.62,0.91,3.3,1.16,5.13,0.67c1.76-0.53,3.09-1.62,4-3.2c0.91-1.62,1.12-3.3,0.67-5.09H518.12z"/>
	<path class="st5" d="M588.92,930.87c38.91-12.78,78.84-18.33,119.75-16.65c12.61,0.53,28.66,5.41,29.67,19.24
		c1.12,16.15-18.47,22.37-33.05,23l-120.21,5.09c8.43,100.96,10.22,202.07,5.41,303.28c0.18,3.83-0.63,7.44-2.49,10.78
		c-3.97,5.86-12.78,4.57-17.35-0.63c-4.53-5.2-5.93-12.75-7.16-19.88c-9.83-57.38-19.74-114.77-29.67-172.15l-12.33,180.96
		c-0.91,12.99-9.66,30.97-19.6,24.06c-3.41-2.39-4.81-7.02-5.86-11.34c-10.22-41.86-9.1-86-7.9-129.48l4.5-163.51
		c-9.17-7.3-18.75-14.05-28.76-20.16c-7.83-4.78-15.42-8.85-22.55-12.29c-13.8-11.24-24.44-24.93-31.89-41.09
		c-17.21-37.47-14.08-83.16-4.99-85.79c13.98-4.07,34.63,96.75,75.19,97.38c10.64,0.14,19.63-6.67,25.71-12.78"/>
	<path class="st5" d="M590.74,937.37c21.81-7.2,44.14-12.08,67.01-14.68c11.41-1.23,22.86-1.9,34.38-2c9.13,0,18.47-0.49,26.97,1.97
		c2.91,0.77,5.62,2.04,8.08,3.79c1.12,0.77,2.04,1.72,2.74,2.84c0.74,1.12,1.19,2.35,1.44,3.69c0.21,1.33,0.18,2.63-0.14,3.93
		c-0.32,1.3-0.88,2.49-1.69,3.58c-1.79,2.14-3.97,3.83-6.53,4.99c-6.57,2.95-13.45,4.39-20.61,4.35l-36.07,1.55l-81.47,3.44
		c-1.86,0-3.44,0.67-4.74,1.97c-1.33,1.33-1.97,2.91-2,4.78c5.76,69.29,8.46,138.75,8.11,208.32c-0.11,17.38-0.42,34.77-0.91,52.15
		c-0.25,8.95-0.56,17.88-0.91,26.76c-0.18,4.04-0.35,8.11-0.53,12.05c-0.14,3.16,0.32,7.45-1.19,10.36
		c-0.74,1.51-1.58,1.62-3.09,1.4c-2.21-0.46-3.86-1.69-4.99-3.62c-3.69-5.69-4.25-13.24-5.41-19.77
		c-2.95-17.21-5.9-34.42-8.85-51.62c-6.67-38.84-13.34-77.68-20.02-116.49c-0.46-1.65-1.37-2.91-2.77-3.83s-2.95-1.26-4.64-1.05
		c-1.65,0.25-3.02,1.02-4.14,2.25c-1.09,1.26-1.65,2.74-1.69,4.39l-8.11,116.66c-1.33,19.21-2.67,38.45-3.97,57.66
		c-0.49,6.92-0.95,13.49-4.18,19.84c-0.98,1.79-2.11,3.44-3.41,4.99c-0.91,0.88-0.67,0.81-1.86,0.84c1.76,0,0.6,0.21-0.21-0.6
		c-1.86-2.6-2.99-5.51-3.34-8.71c-1.09-4.57-2.04-9.13-2.88-13.77c-1.65-9.06-2.7-18.23-3.58-27.39
		c-1.58-18.44-1.83-36.98-1.58-55.49c0.53-38.24,1.97-76.56,3.02-114.84l1.62-58.3l0.35-13.49c0-2.18,0.35-4.5,0.21-6.71
		c-0.39-3.06-1.93-5.34-4.64-6.85c-7.09-5.51-14.4-10.78-21.98-15.66c-7.73-4.99-15.7-9.55-23.92-13.7
		c-2.32-1.05-4.42-2.42-6.36-4.07c-2.18-1.93-4.28-3.9-6.32-6.01c-10.78-11.1-18.82-23.92-24.09-38.45
		c-5.06-14.05-7.73-28.48-8.11-43.37c0-2.91,0-5.79,0-8.71c0.11-2.56,0.35-5.06,0.74-7.55c0.35-2.11,0.84-4.18,1.47-6.22
		c0.11-0.46,1.23-2.84,0.35-1.12c0.39-0.74,0.84-1.4,1.19-2.14c-0.74,1.44-0.7,0.81-0.18,0.32c0.56-0.49-0.67,0.49-0.67,0.53
		c1.02-0.6-0.81,0.18-0.98,0.21c-0.21,0.04-2.14-0.21-1.47,0c0.25,0-1.76-0.98-0.32,0c1.44,0.98-1.19-1.33-0.25-0.18
		c0.32,0.35,0.67,0.67,0.98,0.98c0.7,0.74,0.95,1.3,0.14,0c0.35,0.6,0.81,1.12,1.19,1.72c3.83,6.22,7.16,12.71,9.97,19.46
		c7.9,17.24,15.38,35.05,26.41,50.5c11.03,15.45,28.59,30.97,49.27,22.86c6.95-2.91,13.06-7.06,18.33-12.5
		c6.15-6.11-3.37-15.66-9.55-9.55c-5.09,5.06-11.38,10.01-18.89,10.82c-1.37,0.11-2.77,0.11-4.18,0c-1.69-0.14,1.51,0.28-0.18,0
		c-0.49,0-0.98-0.21-1.44-0.35c-0.95-0.21-1.9-0.53-2.84-0.81c0,0-1.58-0.67-0.6-0.25c0.98,0.46-0.88-0.42-1.02-0.49
		c-1.9-0.95-3.69-2.07-5.41-3.34c-1.44-1.05,1.05,0.91-0.35-0.25l-1.26-1.09c-0.84-0.77-1.65-1.55-2.46-2.35
		c-3.16-3.2-5.93-6.67-8.36-10.47c-11.94-17.24-19.6-36.91-28.59-55.73c-2.95-6.29-6.08-13.49-11.1-18.33
		c-6.18-6.08-14.71-4.46-18.72,3.3c-5.37,10.39-5.16,24.27-4.46,35.5c0.98,17.8,5.02,34.87,12.12,51.24
		c7.34,16.72,17.98,30.97,31.89,42.81c3.65,2.77,7.55,5.09,11.73,6.99c5.2,2.67,10.29,5.69,15.31,8.74
		c9.13,5.62,17.88,11.76,26.27,18.44l-1.97-4.78l-3.09,112.55c-1.05,36.77-2.95,73.68-1.97,110.45c0.46,17.73,2.11,35.4,4.95,52.92
		c2.04,12.19,4.57,39.68,23.07,36.35c13.1-2.32,18.33-19.91,19.42-31.18c1.83-18.58,2.56-37.26,3.86-55.87l8.67-126.04l-13.27,1.79
		c6.29,36.42,12.57,72.83,18.89,109.25c3.16,18.3,6.29,36.63,9.45,54.96c2.35,13.63,4.39,33.96,21.32,36.87
		c3.65,0.77,7.13,0.35,10.47-1.26c3.34-1.62,5.83-4.11,7.44-7.44c1.62-3.9,2.39-7.97,2.39-12.19c0.28-4.92,0.46-9.8,0.63-14.68
		c0.77-18.3,1.3-36.59,1.62-54.85c0.6-36.56,0.35-73.12-0.7-109.67c-1.26-41.37-3.58-82.7-7.02-124.07l-6.74,6.74l78.52-3.34
		l39.4-1.69c9.06-0.11,17.77-2.04,26.06-5.79c7.62-3.69,14.15-10.36,15.45-18.89c0.67-4.67,0.04-9.17-1.93-13.49
		c-1.93-4.32-4.92-7.76-8.88-10.36c-7.23-4.99-16.65-6.74-25.28-7.16c-12.54-0.56-25.07-0.39-37.61,0.56
		c-28.62,2-56.61,7.45-83.93,16.33c-8.22,2.7-4.71,15.7,3.62,12.99L590.74,937.37z"/>
	<path class="st5" d="M807,912.43l-29.5-118.1c-4.78-19.24-9.06-41.97,2.32-57.66c14.29-19.77,44.6-13.49,59.84,4.99
		c15.28,18.51,20.19,44.42,26.83,68.44c7.37,26.9,17.59,52.68,30.59,77.33"/>
	<path class="st5" d="M813.53,910.61l-22.37-89.52c-3.44-13.63-7.3-27.25-9.97-41.05c-2.07-10.82-3.48-23.25,0.91-33.78
		c7.94-19.14,30.27-17.84,45.06-7.16c8.85,6.32,14.61,16.51,18.89,26.3c4.64,11.76,8.39,23.85,11.24,36.17
		c7.9,31.08,19.24,60.82,33.99,89.27c4.07,7.69,15.7,0.88,11.66-6.81c-13.8-26.55-24.48-54.33-31.96-83.3
		c-6.43-24.3-12.68-53.94-33.47-70.66c-17.03-13.63-44.92-18.61-60.75-0.25c-18.89,21.74-8.92,53.34-2.7,78l26.58,106.37
		c2.11,8.43,15.1,4.88,12.99-3.58H813.53z"/>
	<path class="st5" d="M806.72,914.65c-49.73-47.09-78.7-66.86-86.88-59.35c-4.64,4.28,54.89,58.89,81.97,79.79
		c7.8,5.97,15.24,12.36,22.3,19.14c2.7,43.9,4.32,90.71,4.32,140.26c0,47.41-1.47,92.43-3.97,134.85
		c1.3,10.25,3.93,26.72,8.08,26.97c4.11,0.25,7.9-15.17,9.48-21.6c13.87-57.8,19.95-203.72,23.92-204.14
		c3.02-0.32-1.02,85.44,46.53,155.99c6.32,9.41,13.34,18.26,21.14,26.51c2.56,1.33,5.16,1.37,7.8,0.18
		c7.41-4.21,10.47-26.16-21.42-147.28c-8.78-33.26-21.91-80.63-40.07-137.56c23.99-5.16,44.46-16.61,61.39-34.38
		c19.63-20.75,35.05-51.97,29.46-57.7c-3.9-4.11-20.09,2.95-73.64,51.24"/>
	<path class="st5" d="M811.35,909.87c-18.19-17.21-36.77-34.38-57.17-48.92c-5.65-4.25-11.66-7.83-18.05-10.82
		c-4.81-2.07-10.39-4.04-15.66-2.67c-6.36,1.76-9.38,7.45-6.36,13.49c2.81,4.78,6.18,9.1,10.15,12.92
		c12.57,13.7,26.37,26.27,40.25,38.63c7.87,7.02,15.84,13.87,23.99,20.54c10.39,8.53,21,16.61,30.73,25.92l-1.97-4.78
		c3.3,53.77,4.71,107.6,4.21,161.51c-0.25,27.29-0.98,54.57-2.25,81.82c-0.25,6.36-0.6,12.64-0.91,18.89c-0.6,6.11-0.6,12.19,0,18.3
		c0.6,4.95,1.51,9.8,2.7,14.64c0.81,4.07,2.6,7.66,5.41,10.78c0.88,0.81,1.86,1.44,3.02,1.86c1.12,0.42,2.28,0.6,3.51,0.56
		c1.19-0.07,2.35-0.35,3.44-0.84c1.09-0.53,2.04-1.23,2.84-2.14c2.84-3.48,4.81-7.41,5.93-11.73c2.18-6.85,3.93-13.8,5.2-20.82
		c3.09-15.35,5.13-30.87,7.02-46.36c4.07-33.85,6.81-67.81,9.59-101.77c1.02-12.05,1.93-24.09,3.27-36.1l0.32-2.91
		c0-0.74,0.6-4.04,0.18-1.4c0.21-1.3,0.35-2.7,0.67-4c0.28-1.33,1.16-2.7,0-0.6c-1.83,3.16-8.92,3.65-11.06,0
		c-1.3-2.28-0.77-1.33-0.35-0.53c0,0.28,0,0.53,0,0.77c0.28,1.09-0.18-1.83,0-0.77c0.14,1.02,0.18,1.62,0.25,2.42
		c0.21,2.11,0.35,4.18,0.56,6.29c0.49,6.01,1.09,12.01,1.79,18.02c2.04,18.16,5.41,36.03,10.15,53.7
		c5.93,22.16,14.57,43.23,25.92,63.14c6.43,11.1,13.73,21.56,21.95,31.4c3.3,3.93,6.99,9.59,11.98,11.27
		c4.42,1.58,8.64,1.19,12.68-1.16c9.52-5.9,8.11-21.39,7.3-30.8c-2.67-31.96-10.92-63.67-18.65-94.68
		c-10.78-43.16-22.79-86.18-35.75-128.81c-3.83-12.68-7.76-25.32-11.8-37.96l-4.71,8.32c42.11-9.38,76.98-40.46,93.34-80.21
		c2.46-6.04,5.76-14.82,2.07-21.07c-2.07-3.51-5.16-5.2-9.24-5.06c-8.08,0.18-15.94,5.9-22.26,10.29
		c-18.89,13.06-36.24,28.62-53.27,44c-6.46,5.83,3.09,15.31,9.55,9.52c8.6-7.76,17.31-15.45,26.16-22.9
		c6.29-5.41,12.57-10.36,18.61-14.85c4.21-3.23,8.64-6.18,13.2-8.92c1.58-0.98,3.2-1.9,4.85-2.7c1.93-0.95-0.88,0.21,0.53-0.25
		c0.6-0.18,1.19-0.42,1.86-0.6c0.46-0.04,0.91-0.14,1.37-0.32c-0.98,0.77-1.76,0-0.28,0c1.47,0-1.79-0.35-0.7,0
		c1.05,0.39-1.69-0.88-0.7-0.28c-0.53-0.39-0.98-0.84-1.4-1.37c0,0-0.56-1.51-0.14-0.21c-0.42-1.37,0-0.7,0,0.25
		c0,0.42-0.32,2.42,0,0.7l-0.32,1.72c-0.42,1.72-0.95,3.44-1.58,5.09c-3.27,8.39-7.48,16.26-12.64,23.6
		c-5.9,8.96-12.78,17.03-20.65,24.3c-15,13.27-32.27,22.02-51.87,26.23c-1.76,0.49-3.13,1.55-4.04,3.16
		c-0.91,1.62-1.12,3.34-0.67,5.13c17.84,56.4,34.13,113.01,48.32,170.36c5.55,22.65,10.92,45.37,14.75,68.34
		c0.35,1.86,0.63,3.69,0.91,5.55c0.14,0.84,0.25,1.65,0.35,2.46l0.25,1.62c0.18,1.44-0.18-1.3,0,0.25c0.35,3.06,0.74,6.11,0.98,9.17
		c0.42,4.42,0.56,8.85,0.39,13.31c-0.04,0.98-0.11,1.93-0.28,2.88c0,0,0.42-2.21,0-0.49c0,0.35-0.14,0.74-0.21,1.16
		c-0.07,0.39-0.28,1.23-0.49,1.86c-0.18,0.6-0.25,0.56-0.28,0.84c-0.21,1.09,1.02-1.72,0.32-0.74c-0.28,0.39-0.49,0.81-0.7,1.26
		c-0.53,1.19,1.33-1.58,0.25-0.32c-1.09,1.23,0.32,0,0.46-0.28c-0.35,0.91-2,0-3.16-0.49l2.98,1.76
		c-28.9-30.87-46.5-69.92-55.87-110.76c-3.37-14.68-5.76-29.53-7.23-44.53c-0.49-4.88-0.88-9.76-1.3-14.64
		c-0.11-3.06-0.46-6.08-1.16-9.03c-0.77-3.13-2.74-4.88-5.93-5.34c-3.16-0.42-5.55,0.74-7.13,3.51c-1.02,2.21-1.62,4.5-1.83,6.92
		c-1.37,9.34-2.11,18.86-2.91,28.16c-2.7,30.24-4.92,60.47-7.97,90.67c-2.88,28.59-5.41,56.26-12.71,84.21
		c-0.84,3.69-1.97,7.27-3.37,10.78c-0.32,0.7-0.7,1.37-1.05,2.07c-0.35,0.67-0.39,0.46-0.49,0.74c0.49-1.09,0.46-0.42,0-0.21
		c1.86-1.3,3.83-1.44,5.86-0.39c1.26,0.81,0.81,0.91,0.18-0.35c-0.63-1.23,0.32,0.91,0-0.21c-0.18-0.32-0.28-0.67-0.39-1.02
		c-0.35-1.02-0.63-2.07-0.95-3.13c-0.6-2.21-1.05-4.5-1.47-6.74c-0.98-4.32-1.4-8.71-1.26-13.13c1.4-24.69,2.42-49.34,3.06-74.03
		c1.3-51.27,0.84-102.51-1.33-153.75c-0.49-11.94-1.09-23.88-1.79-35.86c-0.04-2.91-0.25-5.79-0.6-8.64
		c-0.6-3.48-3.65-5.65-6.15-7.87c-4.53-4.18-9.17-8.18-13.94-12.01l-3.55-2.7l-1.65-1.3l-0.25-0.18l-3.93-3.13
		c-2.7-2.11-5.27-4.28-7.87-6.46c-6.08-5.09-12.05-10.29-17.98-15.52c-11.98-10.64-23.81-21.6-35.05-32.98
		c-4.04-4.07-8.11-8.25-11.62-12.68c-0.21-0.25-1.19-1.51-0.53-0.67c0.63,0.88-0.28-0.39-0.46-0.6c-0.49-0.7-0.95-1.4-1.4-2.14
		c-0.81-1.23-0.49-1.16,0,0c-0.21-0.56,0-0.84,0,0.25c0.07,1.55-0.32,2.91-1.19,4.21c-0.35,0.39-0.7,0.77-1.12,1.12
		c0.25-0.18,0.49-0.32,0.77-0.46c-0.46,0.21-1.72,0.88-0.63,0.35c0.39-0.21,1.51,0,0.18,0c-1.37,0,0.7,0,1.12,0
		c1.23,0-1.26-0.39-0.42,0c0.39,0.14,0.88,0.14,1.3,0.25c0.91,0.25,1.83,0.49,2.7,0.81l1.33,0.53c0.91,0.35-1.12-0.53,0.46,0.21
		c2.35,1.12,4.67,2.35,6.88,3.69c13.7,8.71,26.48,18.61,38.31,29.67c8.85,7.76,17.49,15.73,26.06,23.81
		c6.29,5.97,15.84-3.55,9.52-9.55L811.35,909.87z"/>
	<path class="st5" d="M818.45,915c19.31-3.93,38.49-8.6,57.49-14.08c1.69-0.35,3.2-1.02,4.53-2.07c1.55-1.19,1.97-2.67,1.26-4.5
		c-13.56,2.35-26.97,5.27-40.25,8.78"/>
	<path class="st5" d="M820.2,921.39c13.1-2.67,26.13-5.62,39.09-8.99c6.32-1.65,12.68-3.27,18.86-5.2
		c6.22-1.9,12.43-7.37,10.01-14.71c-0.53-1.76-1.62-3.09-3.2-4c-1.62-0.91-3.3-1.16-5.09-0.7c-13.52,2.35-26.9,5.27-40.21,8.74
		c-8.39,2.21-4.85,15.21,3.58,12.99c13.27-3.48,26.65-6.39,40.21-8.74l-8.29-4.71c-0.11-1.02,0.25-1.86,1.05-2.53
		c-0.14,0.25-0.39,0.35-0.67,0.35c-1.3,0.28-2.56,0.67-3.79,1.12l-7.16,2c-5.37,1.47-10.78,2.88-16.19,4.21
		c-10.57,2.6-21.21,4.99-31.89,7.16c-1.79,0.53-3.16,1.58-4.07,3.23c-0.91,1.62-1.09,3.34-0.6,5.13c0.53,1.79,1.58,3.16,3.23,4.04
		C816.69,921.71,818.41,921.92,820.2,921.39z"/>
</g>
<g id="_x39_3aec78838_00000067234568791787905470000015367137837095528873_">
	<path class="st6" d="M211.77,391.83c6.29-30.05,2.67-61.44,2.89-92.11c0.27-30.7,5.56-63.99,25.41-85.82
		c8.15-8.76,19.46-15.66,30.7-13.64c18.78,3.39,27.2,27.46,30.4,48.15c8.76,56.07,4.19,113.63-0.27,170.42"/>
	<path class="st6" d="M218.82,393.81c6.44-31.5,2.89-63.42,3.2-95.27c0.34-25.06,3.62-51.99,18.25-73.14
		c6.06-8.76,16.76-19.73,28.61-18.06c9.41,1.33,15.43,10.48,19.01,19.12c4.19,11.43,6.82,23.2,7.77,35.31
		c1.79,15.96,2.78,32.04,2.93,48.11c0.57,36.38-2.25,72.72-5.1,108.98c0,2.02,0.72,3.73,2.17,5.18c1.41,1.41,3.12,2.13,5.14,2.13
		c2.02,0,3.77-0.72,5.18-2.13c1.45-1.45,2.13-3.16,2.13-5.18c2.7-34.13,5.33-68.3,5.18-102.58c-0.04-17.29-1.03-34.51-2.89-51.73
		c-1.56-13.94-3.28-28.23-8.46-41.37c-4.3-11.05-10.97-22.32-22.21-27.5c-14.17-6.55-29.03-1.26-40.3,8.42
		c-21.75,18.7-29.25,49.6-31.46,76.94c-2.93,36.23,3.85,72.95-3.5,108.83c-0.53,1.98-0.3,3.81,0.69,5.56
		c0.99,1.75,2.48,2.89,4.42,3.43c1.94,0.57,3.77,0.34,5.52-0.69c1.75-0.99,2.93-2.44,3.47-4.38H218.82z"/>
	<path class="st6" d="M209.53,391.26c-28.61-46.21-66.32-83.08-113.13-110.66c-8.34-4.8-18.28-9.29-26.93-4.99
		c-16.23,8.08-10.86,35.12-1.33,51.46c27.96,48.22,69.78,86.47,118.01,107.84c4.65,2.02,9.68,4.23,12.38,8.76
		c2.17,4.65,3.01,9.52,2.55,14.63l-0.15,207.48c0,10.28,2.02,23.54,11.2,25.37c5.14,1.03,10.21-2.48,13.98-6.55
		c19.16-20.76,17.41-54.55,15.73-83.99c-1.68-29.41,0.72-64.53,23.39-80.18c22.28,43.35-3.43,99.95,9.71,147.68
		c0.72,3.5,2.29,6.55,4.69,9.14c9.52,8.46,20.95-8.42,23.43-21.75c9.1-50.28,9.1-100.56,0-150.84c-1.79-7.05-2.32-14.21-1.56-21.45
		c2.93-17.52,20.19-26.32,34.17-35.23c13.98-8.91,28.23-26.32,21.14-42.32c-4.61-10.4-16.99-14.17-27.27-11.69
		c-10.32,2.51-19.01,9.98-27.35,17.26"/>
	<path class="st6" d="M215.85,387.56c-16.27-26.09-35.69-49.6-58.17-70.55c-10.93-10.13-22.47-19.5-34.63-28.11
		c-5.98-4.15-12.08-8.15-18.28-11.92c-6.55-4.53-13.71-7.77-21.45-9.75c-3.28-0.76-6.59-0.88-9.94-0.3
		c-3.31,0.57-6.44,1.75-9.29,3.54c-2.86,1.79-5.26,4.08-7.2,6.86c-1.98,2.74-3.31,5.79-4.04,9.07c-2.93,12.08,0.15,24.99,4.91,36.15
		c6.02,12.87,13.48,24.84,22.4,35.92c8.84,11.77,18.51,22.78,29.1,32.99c20.76,20.23,44.3,36.42,70.58,48.6
		c4.84,2.21,11.69,4,13.26,9.83c0.65,3.28,0.84,6.55,0.61,9.87c0,4.91,0,9.75,0,14.63v190.04c-0.23,6.4,0.53,12.68,2.29,18.86
		c1.75,6.7,5.75,11.47,12.04,14.32c7.85,3.09,15.85-0.61,21.67-5.87c20.87-19.39,21.33-52.22,20.23-78.51
		c-1.07-24.57-4.38-52.99,9.03-75.08c2.63-4.42,6.02-8.11,10.17-11.16l-10.02-2.63c7.88,15.69,8.95,33.44,8.34,50.66
		c-0.65,18.78-3.24,37.44-3.58,56.22c-0.23,9.68,0.46,19.31,1.98,28.87c1.49,8.76,3.39,19.77,11.73,24.72
		c16.8,10.09,30.09-13.83,32.72-27.16c8.23-43.84,9.37-87.84,3.39-132.03c-1.37-10.51-3.81-20.95-4.99-31.46
		c-1.33-8.34,0.8-15.66,6.44-21.94c10.93-12.04,27.16-17.18,38.02-29.25c6.97-7.66,12.61-17.26,12.8-27.84
		c0.08-5.03-1.1-9.75-3.54-14.13c-2.44-4.42-5.83-7.88-10.13-10.48c-8.61-4.88-17.64-5.75-27.05-2.67
		c-10.89,3.54-19.77,11.05-28.26,18.44c-1.41,1.45-2.13,3.16-2.13,5.18s0.72,3.73,2.13,5.18c1.45,1.41,3.16,2.1,5.18,2.1
		c1.98,0,3.73-0.69,5.18-2.1c9.71-8.49,24.84-21.83,38.02-13.26c13.18,8.53,1.45,26.13-6.97,33.63
		c-11.01,9.71-25.37,14.63-35.08,26.32c-5.49,6.36-8.65,13.71-9.52,22.09c-0.99,9.9,1.94,19.96,3.47,29.67
		c6.4,39.88,6.97,79.88,1.68,119.91c-1.14,8.8-1.79,18.47-5.26,26.66c-1.07,2.63-2.48,5.07-4.23,7.31c-0.8,0.99-1.71,1.9-2.7,2.7
		c-0.19,0.19-1.64,1.1-0.65,0.53c-1.14,0.65-1.83,0-0.3,0.46c-0.88-0.23-0.84,0-1.75-1.1c-0.8-1.22-1.37-2.55-1.68-3.96
		c-1.22-4.11-2.13-8.27-2.74-12.46c-1.14-8.3-1.56-16.68-1.26-25.06c0.84-37.6,11.01-77.67-6.78-113.02
		c-1.03-1.75-2.51-2.86-4.46-3.39c-1.94-0.5-3.81-0.27-5.56,0.76c-21.29,15.01-26.7,41.86-27.43,66.43
		c-0.76,25.67,4.76,52.03-2.06,77.29c-1.52,5.87-3.92,11.35-7.2,16.46c-2.25,3.5-6.55,9.83-11.24,9.68c-1.3,0-1.83-0.91-2.51-2.1
		c-1.1-2.1-1.87-4.34-2.25-6.7c-0.84-6.51-1.07-13.07-0.69-19.62V474.26c0.38-8.08,0.27-16.15-0.42-24.23
		c-0.72-7.88-4.46-13.9-11.2-18.09c-5.56-3.05-11.31-5.83-17.18-8.3c-12.23-6.17-23.88-13.33-34.93-21.45
		c-21.94-16.23-40.76-35.5-56.53-57.82c-7.01-9.87-14.63-20.46-18.47-31.96c-1.79-5.03-2.78-10.21-2.93-15.58
		c-0.42-4.19,0.46-8.08,2.7-11.69c0.72-1.14-1.1,1.1,0.5-0.65c0.34-0.38,0.69-0.72,1.07-1.07c0.5-0.5,1.1-0.88,1.75-1.18
		c2.86-1.33,5.75-1.52,8.76-0.53c6.59,2.25,12.68,5.37,18.36,9.45c11.77,7.2,22.97,15.2,33.63,24
		c21.98,18.13,41.29,38.78,57.9,61.97c4.15,5.83,8.11,11.81,11.92,17.83c4.99,7.96,17.56,0.61,12.65-7.39H215.85z"/>
	<path class="st6" d="M475.82,244.38c-4.8-29.52-9.56-59.38-7.69-89.4c1.83-29.98,10.97-60.53,30.51-81.63
		c7.31-7.96,18.4-14.63,27.35-9.26c3.69,2.67,6.51,6.09,8.46,10.28c14.13,26.32,16.15,58.17,17.79,88.75l5.52,101.36"/>
	<path class="st6" d="M482.87,242.43c-7.96-49.75-16.91-106.62,11.73-151.68c5.03-8,13.07-19.88,23.39-21.26
		c4.3-0.57,6.93,2.78,8.76,6.06c3.01,5.1,5.49,10.48,7.43,16.07c8.57,24.07,9.64,49.86,11.01,75.12l5.29,97.74
		c0.5,9.37,15.12,9.41,14.63,0l-5.1-94.12c-1.49-27.84-2.36-56.72-11.92-83.23c-4.19-11.69-10.21-27.92-23.54-31.54
		c-13.33-3.62-26.02,6.4-34.09,16.04c-17.07,20.46-25.45,46.4-28.64,72.56c-4.15,34.09,1.6,68.49,7.01,102.09
		c0.53,1.94,1.71,3.43,3.47,4.42c1.75,0.99,3.58,1.26,5.56,0.72c1.9-0.57,3.35-1.75,4.34-3.47c0.99-1.75,1.22-3.58,0.72-5.52H482.87
		z"/>
	<path class="st6" d="M559.66,265.14c42.21-13.87,85.52-19.88,129.89-18.06c13.67,0.57,31.08,5.87,32.19,20.87
		c1.22,17.52-20.04,24.26-35.84,24.95l-130.39,5.52c9.14,109.51,11.08,219.18,5.87,328.96c0.19,4.15-0.69,8.08-2.7,11.69
		c-4.3,6.36-13.87,4.95-18.82-0.69c-4.91-5.64-6.44-13.83-7.77-21.56c-10.67-62.24-21.41-124.48-32.19-186.72L486.53,626.4
		c-0.99,14.09-10.48,33.6-21.26,26.09c-3.69-2.59-5.22-7.62-6.36-12.3c-11.08-45.41-9.87-93.29-8.57-140.44l4.88-177.35
		c-9.94-7.92-20.34-15.24-31.2-21.86c-8.49-5.18-16.72-9.6-24.45-13.33c-14.97-12.19-26.51-27.05-34.59-44.57
		c-18.66-40.64-15.27-90.2-5.41-93.06c15.16-4.42,37.56,104.94,81.55,105.63c11.54,0.15,21.29-7.24,27.88-13.87"/>
	<path class="st6" d="M561.64,272.18c23.65-7.81,47.88-13.1,72.68-15.92c12.38-1.33,24.8-2.06,37.29-2.17
		c9.9,0,20.04-0.53,29.25,2.13c3.16,0.84,6.09,2.21,8.76,4.11c1.22,0.84,2.21,1.87,2.97,3.09c0.8,1.22,1.3,2.55,1.56,4
		c0.23,1.45,0.19,2.86-0.15,4.27c-0.34,1.41-0.95,2.7-1.83,3.89c-1.94,2.32-4.3,4.15-7.09,5.41c-7.12,3.2-14.59,4.76-22.36,4.72
		l-39.12,1.68l-88.37,3.73c-2.02,0-3.73,0.72-5.14,2.13c-1.45,1.45-2.13,3.16-2.17,5.18c6.25,75.15,9.18,150.5,8.8,225.96
		c-0.11,18.86-0.46,37.71-0.99,56.57c-0.27,9.71-0.61,19.39-0.99,29.03c-0.19,4.38-0.38,8.8-0.57,13.07
		c-0.15,3.43,0.34,8.08-1.3,11.24c-0.8,1.64-1.71,1.75-3.35,1.52c-2.4-0.5-4.19-1.83-5.41-3.92c-4-6.17-4.61-14.36-5.87-21.45
		c-3.2-18.66-6.4-37.33-9.6-55.99c-7.24-42.13-14.47-84.26-21.71-126.35c-0.5-1.79-1.49-3.16-3.01-4.15
		c-1.52-0.99-3.2-1.37-5.03-1.14c-1.79,0.27-3.28,1.1-4.49,2.44c-1.18,1.37-1.79,2.97-1.83,4.76l-8.8,126.54
		c-1.45,20.84-2.89,41.71-4.3,62.55c-0.53,7.5-1.03,14.63-4.53,21.52c-1.07,1.94-2.29,3.73-3.69,5.41
		c-0.99,0.95-0.72,0.88-2.02,0.91c1.9,0,0.65,0.23-0.23-0.65c-2.02-2.82-3.24-5.98-3.62-9.45c-1.18-4.95-2.21-9.9-3.12-14.93
		c-1.79-9.83-2.93-19.77-3.89-29.71c-1.71-20-1.98-40.11-1.71-60.18c0.57-41.48,2.13-83.04,3.28-124.56l1.75-63.23l0.38-14.63
		c0-2.36,0.38-4.88,0.23-7.28c-0.42-3.31-2.1-5.79-5.03-7.43c-7.69-5.98-15.62-11.69-23.85-16.99
		c-8.38-5.41-17.03-10.36-25.94-14.86c-2.51-1.14-4.8-2.63-6.89-4.42c-2.36-2.1-4.65-4.23-6.86-6.51
		c-11.69-12.04-20.42-25.94-26.13-41.71c-5.49-15.24-8.38-30.89-8.8-47.04c0-3.16,0-6.29,0-9.45c0.11-2.78,0.38-5.49,0.8-8.19
		c0.38-2.29,0.91-4.53,1.6-6.74c0.11-0.5,1.33-3.09,0.38-1.22c0.42-0.8,0.91-1.52,1.3-2.32c-0.8,1.56-0.76,0.88-0.19,0.34
		c0.61-0.53-0.72,0.53-0.72,0.57c1.1-0.65-0.88,0.19-1.07,0.23c-0.23,0.04-2.32-0.23-1.6,0c0.27,0-1.9-1.07-0.34,0
		c1.56,1.07-1.3-1.45-0.27-0.19c0.34,0.38,0.72,0.72,1.07,1.07c0.76,0.8,1.03,1.41,0.15,0c0.38,0.65,0.88,1.22,1.3,1.87
		c4.15,6.74,7.77,13.79,10.82,21.1c8.57,18.7,16.68,38.02,28.64,54.78c11.96,16.76,31.01,33.6,53.44,24.8
		c7.54-3.16,14.17-7.66,19.88-13.56c6.67-6.63-3.66-16.99-10.36-10.36c-5.52,5.49-12.34,10.86-20.49,11.73
		c-1.49,0.11-3.01,0.11-4.53,0c-1.83-0.15,1.64,0.3-0.19,0c-0.53,0-1.07-0.23-1.56-0.38c-1.03-0.23-2.06-0.57-3.09-0.88
		c0,0-1.71-0.72-0.65-0.27c1.07,0.5-0.95-0.46-1.1-0.53c-2.06-1.03-4-2.25-5.87-3.62c-1.56-1.14,1.14,0.99-0.38-0.27l-1.37-1.18
		c-0.91-0.84-1.79-1.68-2.67-2.55c-3.43-3.47-6.44-7.24-9.07-11.35c-12.95-18.7-21.26-40.03-31.01-60.45
		c-3.2-6.82-6.59-14.63-12.04-19.88c-6.7-6.59-15.96-4.84-20.3,3.58c-5.83,11.28-5.6,26.32-4.84,38.51
		c1.07,19.31,5.45,37.82,13.14,55.58c7.96,18.13,19.5,33.6,34.59,46.43c3.96,3.01,8.19,5.52,12.72,7.58
		c5.64,2.89,11.16,6.17,16.61,9.48c9.9,6.09,19.39,12.76,28.49,20l-2.13-5.18l-3.35,122.08c-1.14,39.88-3.2,79.92-2.13,119.8
		c0.5,19.24,2.29,38.4,5.37,57.4c2.21,13.22,4.95,43.04,25.03,39.42c14.21-2.51,19.88-21.6,21.06-33.83
		c1.98-20.15,2.78-40.42,4.19-60.6L507.48,430l-14.4,1.94c6.82,39.5,13.64,79,20.49,118.5c3.43,19.85,6.82,39.73,10.25,59.61
		c2.55,14.78,4.76,36.83,23.12,40c3.96,0.84,7.73,0.38,11.35-1.37c3.62-1.75,6.32-4.46,8.08-8.08c1.75-4.23,2.59-8.65,2.59-13.22
		c0.3-5.33,0.5-10.63,0.69-15.92c0.84-19.85,1.41-39.69,1.75-59.5c0.65-39.65,0.38-79.31-0.76-118.96
		c-1.37-44.87-3.89-89.71-7.62-134.58l-7.31,7.31l85.17-3.62l42.74-1.83c9.83-0.11,19.27-2.21,28.26-6.29
		c8.27-4,15.35-11.24,16.76-20.49c0.72-5.07,0.04-9.94-2.1-14.63c-2.1-4.69-5.33-8.42-9.64-11.24c-7.85-5.41-18.06-7.31-27.43-7.77
		c-13.6-0.61-27.2-0.42-40.8,0.61c-31.04,2.17-61.4,8.08-91.04,17.71c-8.91,2.93-5.1,17.03,3.92,14.09L561.64,272.18z"/>
	<path class="st6" d="M796.21,245.14l-32-128.1c-5.18-20.87-9.83-45.52,2.51-62.55c15.5-21.45,48.38-14.63,64.91,5.41
		c16.57,20.07,21.9,48.19,29.1,74.24c8,29.18,19.08,57.14,33.18,83.88"/>
	<path class="st6" d="M803.3,243.16l-24.26-97.1c-3.73-14.78-7.92-29.56-10.82-44.53c-2.25-11.73-3.77-25.22,0.99-36.64
		c8.61-20.76,32.83-19.35,48.87-7.77c9.6,6.86,15.85,17.9,20.49,28.53c5.03,12.76,9.1,25.86,12.19,39.23
		c8.57,33.71,20.87,65.97,36.87,96.83c4.42,8.34,17.03,0.95,12.65-7.39c-14.97-28.8-26.55-58.93-34.66-90.35
		c-6.97-26.36-13.75-58.51-36.3-76.64c-18.47-14.78-48.72-20.19-65.9-0.27c-20.49,23.58-9.68,57.86-2.93,84.6l28.84,115.38
		c2.29,9.14,16.38,5.29,14.09-3.89H803.3z"/>
	<path class="st6" d="M795.91,247.54c-53.94-51.08-85.36-72.53-94.24-64.37c-5.03,4.65,59.54,63.88,88.91,86.54
		c8.46,6.48,16.53,13.41,24.19,20.76c2.93,47.61,4.69,98.39,4.69,152.14c0,51.42-1.6,100.26-4.3,146.27
		c1.41,11.12,4.27,28.99,8.76,29.25c4.46,0.27,8.57-16.46,10.28-23.43c15.05-62.7,21.64-220.97,25.94-221.43
		c3.28-0.34-1.1,92.68,50.47,169.2c6.86,10.21,14.47,19.81,22.93,28.76c2.78,1.45,5.6,1.49,8.46,0.19
		c8.04-4.57,11.35-28.38-23.24-159.76c-9.52-36.07-23.77-87.46-43.46-149.2c26.02-5.6,48.22-18.02,66.58-37.29
		c21.29-22.51,38.02-56.38,31.96-62.58c-4.23-4.46-21.79,3.2-79.88,55.58"/>
	<path class="st6" d="M800.93,242.36c-19.73-18.66-39.88-37.29-62.01-53.06c-6.13-4.61-12.65-8.49-19.58-11.73
		c-5.22-2.25-11.28-4.38-16.99-2.89c-6.89,1.9-10.17,8.08-6.89,14.63c3.05,5.18,6.7,9.87,11.01,14.02
		c13.64,14.86,28.61,28.49,43.65,41.9c8.53,7.62,17.18,15.05,26.02,22.28c11.28,9.26,22.78,18.02,33.33,28.11l-2.13-5.18
		c3.58,58.32,5.1,116.71,4.57,175.18c-0.27,29.6-1.07,59.19-2.44,88.75c-0.27,6.89-0.65,13.71-0.99,20.49
		c-0.65,6.63-0.65,13.22,0,19.85c0.65,5.37,1.64,10.63,2.93,15.88c0.88,4.42,2.82,8.3,5.87,11.69c0.95,0.88,2.02,1.56,3.28,2.02
		c1.22,0.46,2.48,0.65,3.81,0.61c1.3-0.08,2.55-0.38,3.73-0.91c1.18-0.57,2.21-1.33,3.09-2.32c3.09-3.77,5.22-8.04,6.44-12.72
		c2.36-7.43,4.27-14.97,5.64-22.59c3.35-16.65,5.56-33.48,7.62-50.28c4.42-36.72,7.39-73.55,10.4-110.39
		c1.1-13.07,2.1-26.13,3.54-39.16l0.34-3.16c0-0.8,0.65-4.38,0.19-1.52c0.23-1.41,0.38-2.93,0.72-4.34c0.3-1.45,1.26-2.93,0-0.65
		c-1.98,3.43-9.68,3.96-12,0c-1.41-2.48-0.84-1.45-0.38-0.57c0,0.3,0,0.57,0,0.84c0.3,1.18-0.19-1.98,0-0.84
		c0.15,1.1,0.19,1.75,0.27,2.63c0.23,2.29,0.38,4.53,0.61,6.82c0.53,6.51,1.18,13.03,1.94,19.54c2.21,19.69,5.87,39.08,11.01,58.24
		c6.44,24.04,15.81,46.89,28.11,68.49c6.97,12.04,14.89,23.39,23.81,34.05c3.58,4.27,7.58,10.4,12.99,12.23
		c4.8,1.71,9.37,1.3,13.75-1.26c10.32-6.4,8.8-23.2,7.92-33.41c-2.89-34.66-11.85-69.06-20.23-102.69
		c-11.69-46.81-24.72-93.48-38.78-139.72c-4.15-13.75-8.42-27.46-12.8-41.18l-5.1,9.03c45.67-10.17,83.5-43.88,101.25-87
		c2.67-6.55,6.25-16.07,2.25-22.85c-2.25-3.81-5.6-5.64-10.02-5.49c-8.76,0.19-17.29,6.4-24.15,11.16
		c-20.49,14.17-39.31,31.04-57.78,47.73c-7.01,6.32,3.35,16.61,10.36,10.32c9.33-8.42,18.78-16.76,28.38-24.84
		c6.82-5.87,13.64-11.24,20.19-16.11c4.57-3.5,9.37-6.7,14.32-9.68c1.71-1.07,3.47-2.06,5.26-2.93c2.1-1.03-0.95,0.23,0.57-0.27
		c0.65-0.19,1.3-0.46,2.02-0.65c0.5-0.04,0.99-0.15,1.49-0.34c-1.07,0.84-1.9,0-0.3,0s-1.94-0.38-0.76,0
		c1.14,0.42-1.83-0.95-0.76-0.3c-0.57-0.42-1.07-0.91-1.52-1.49c0,0-0.61-1.64-0.15-0.23c-0.46-1.49,0-0.76,0,0.27
		c0,0.46-0.34,2.63,0,0.76l-0.34,1.87c-0.46,1.87-1.03,3.73-1.71,5.52c-3.54,9.1-8.11,17.64-13.71,25.6
		c-6.4,9.71-13.87,18.47-22.4,26.36c-16.27,14.4-35.01,23.88-56.26,28.45c-1.9,0.53-3.39,1.68-4.38,3.43
		c-0.99,1.75-1.22,3.62-0.72,5.56c19.35,61.18,37.02,122.58,52.41,184.78c6.02,24.57,11.85,49.21,16,74.13
		c0.38,2.02,0.69,4,0.99,6.02c0.15,0.91,0.27,1.79,0.38,2.67l0.27,1.75c0.19,1.56-0.19-1.41,0,0.27c0.38,3.31,0.8,6.63,1.07,9.94
		c0.46,4.8,0.61,9.6,0.42,14.44c-0.04,1.07-0.11,2.1-0.3,3.12c0,0,0.46-2.4,0-0.53c0,0.38-0.15,0.8-0.23,1.26
		c-0.08,0.42-0.3,1.33-0.53,2.02c-0.19,0.65-0.27,0.61-0.3,0.91c-0.23,1.18,1.1-1.87,0.34-0.8c-0.3,0.42-0.53,0.88-0.76,1.37
		c-0.57,1.3,1.45-1.71,0.27-0.34c-1.18,1.33,0.34,0,0.5-0.3c-0.38,0.99-2.17,0-3.43-0.53l3.24,1.9
		c-31.35-33.48-50.43-75.84-60.6-120.14c-3.66-15.92-6.25-32.04-7.85-48.3c-0.53-5.29-0.95-10.59-1.41-15.88
		c-0.11-3.31-0.5-6.59-1.26-9.79c-0.84-3.39-2.97-5.29-6.44-5.79c-3.43-0.46-6.02,0.8-7.73,3.81c-1.1,2.4-1.75,4.88-1.98,7.5
		c-1.49,10.13-2.29,20.46-3.16,30.55c-2.93,32.8-5.33,65.59-8.65,98.35c-3.12,31.01-5.87,61.02-13.79,91.34
		c-0.91,4-2.13,7.88-3.66,11.69c-0.34,0.76-0.76,1.49-1.14,2.25c-0.38,0.72-0.42,0.5-0.53,0.8c0.53-1.18,0.5-0.46,0-0.23
		c2.02-1.41,4.15-1.56,6.36-0.42c1.37,0.88,0.88,0.99,0.19-0.38c-0.69-1.33,0.34,0.99,0-0.23c-0.19-0.34-0.3-0.72-0.42-1.1
		c-0.38-1.1-0.69-2.25-1.03-3.39c-0.65-2.4-1.14-4.88-1.6-7.31c-1.07-4.69-1.52-9.45-1.37-14.25c1.52-26.78,2.63-53.52,3.31-80.3
		c1.41-55.61,0.91-111.19-1.45-166.76c-0.53-12.95-1.18-25.9-1.94-38.89c-0.04-3.16-0.27-6.29-0.65-9.37
		c-0.65-3.77-3.96-6.13-6.67-8.53c-4.91-4.53-9.94-8.88-15.12-13.03l-3.85-2.93l-1.79-1.41l-0.27-0.19l-4.27-3.39
		c-2.93-2.29-5.71-4.65-8.53-7.01c-6.59-5.52-13.07-11.16-19.5-16.84c-12.99-11.54-25.83-23.43-38.02-35.77
		c-4.38-4.42-8.8-8.95-12.61-13.75c-0.23-0.27-1.3-1.64-0.57-0.72c0.69,0.95-0.3-0.42-0.5-0.65c-0.53-0.76-1.03-1.52-1.52-2.32
		c-0.88-1.33-0.53-1.26,0,0c-0.23-0.61,0-0.91,0,0.27c0.08,1.68-0.34,3.16-1.3,4.57c-0.38,0.42-0.76,0.84-1.22,1.22
		c0.27-0.19,0.53-0.34,0.84-0.5c-0.5,0.23-1.87,0.95-0.69,0.38c0.42-0.23,1.64,0,0.19,0c-1.49,0,0.76,0,1.22,0
		c1.33,0-1.37-0.42-0.46,0c0.42,0.15,0.95,0.15,1.41,0.27c0.99,0.27,1.98,0.53,2.93,0.88l1.45,0.57c0.99,0.38-1.22-0.57,0.5,0.23
		c2.55,1.22,5.07,2.55,7.47,4c14.86,9.45,28.72,20.19,41.56,32.19c9.6,8.42,18.97,17.07,28.26,25.83
		c6.82,6.48,17.18-3.85,10.32-10.36L800.93,242.36z"/>
	<path class="st6" d="M808.63,247.92c20.95-4.27,41.75-9.33,62.36-15.27c1.83-0.38,3.47-1.1,4.91-2.25c1.68-1.3,2.13-2.89,1.37-4.88
		c-14.7,2.55-29.25,5.71-43.65,9.52"/>
	<path class="st6" d="M810.53,254.85c14.21-2.89,28.34-6.09,42.4-9.75c6.86-1.79,13.75-3.54,20.46-5.64
		c6.74-2.06,13.48-8,10.86-15.96c-0.57-1.9-1.75-3.35-3.47-4.34c-1.75-0.99-3.58-1.26-5.52-0.76c-14.67,2.55-29.18,5.71-43.61,9.48
		c-9.1,2.4-5.26,16.49,3.89,14.09c14.4-3.77,28.91-6.93,43.61-9.48l-8.99-5.1c-0.11-1.1,0.27-2.02,1.14-2.74
		c-0.15,0.27-0.42,0.38-0.72,0.38c-1.41,0.3-2.78,0.72-4.11,1.22l-7.77,2.17c-5.83,1.6-11.69,3.12-17.56,4.57
		c-11.47,2.82-23.01,5.41-34.59,7.77c-1.94,0.57-3.43,1.71-4.42,3.5c-0.99,1.75-1.18,3.62-0.65,5.56c0.57,1.94,1.71,3.43,3.5,4.38
		C806.72,255.2,808.59,255.42,810.53,254.85z"/>
</g>
</svg>
