<?xml version="1.0" encoding="utf-8"?>
<!-- Generator: Adobe Illustrator 27.0.0, SVG Export Plug-In . SVG Version: 6.00 Build 0)  -->
<svg version="1.1" id="Capa_1" xmlns="http://www.w3.org/2000/svg" xmlns:xlink="http://www.w3.org/1999/xlink" x="0px" y="0px"
	 viewBox="0 0 1080 1350" style="enable-background:new 0 0 1080 1350;" xml:space="preserve">
<style type="text/css">
	.st0{fill:#FFFFFF;stroke:#FFFFFF;stroke-miterlimit:10;}
	.st1{fill:#D18730;}
	.st2{fill:#FF9498;}
	.st3{fill:#284565;}
	.st4{fill:#284566;}
	.st5{fill:#FFFFFF;}
	.st6{fill:#FFBD59;}
</style>
<path class="st0" d="M57.14,390.31C131.03,437.32,175.93,554,263.5,552.95c10.62-0.13,38.17-2.64,68.2-8.74
	c24.45-4.98,36.68-7.49,43.71-13.11c23.84-19.12,9.08-51.62,19.24-107.56c6.4-35.18,19.72-61.34,46.35-113.67
	c23.34-45.84,48.69-84.14,36.73-97.06c0,0-1.21-1.3-25.37-11.36l-81.31,109.3c11.82-58.22,6.86-101.41,0-130.29
	c0,0-2.41-10.14-27.19-87.42l-29.72,13.99c3.93,82.94,5.25,176.81-10.46,179.23c-23.76,3.68-83.07-201.09-83.07-201.11
	c-11.82-2.47-24.39-2.74-32.35,4.37c-36.83,33,65.77,188.67,47.22,201.11c0,0-9.52,6.4-127.58-112.79l-28.86,22.73l0,0
	c93.95,109.17,109.3,174,109.3,174c8.37,35.14,1.13,40.78-0.86,41.97c-18.34,10.92-76.21-68.83-105.8-54.21
	c-11.36,5.58-24.47,27.98-24.49,27.96H57.14z"/>
<path class="st1" d="M57.14,1096.02c73.89,47.01,118.79,163.69,206.36,162.65c10.62-0.13,38.17-2.64,68.2-8.74
	c24.45-4.98,36.68-7.49,43.71-13.11c23.84-19.12,9.08-51.62,19.24-107.56c6.4-35.18,19.72-61.34,46.35-113.67
	c23.34-45.84,48.69-84.14,36.73-97.06c0,0-1.21-1.3-25.37-11.36l-81.31,109.3c11.82-58.22,6.86-101.41,0-130.29
	c0,0-2.41-10.14-27.19-87.42l-29.72,13.99c3.93,82.95,5.25,176.81-10.46,179.23c-23.76,3.68-83.07-201.09-83.07-201.11
	c-11.82-2.47-24.39-2.74-32.35,4.37c-36.83,33,65.77,188.67,47.22,201.11c0,0-9.52,6.4-127.58-112.79l-28.86,22.73l0,0
	c93.95,109.17,109.3,174,109.3,174c8.37,35.14,1.13,40.78-0.86,41.97c-18.34,10.92-76.21-68.83-105.8-54.21
	c-11.36,5.58-24.47,27.98-24.49,27.96H57.14z"/>
<path class="st2" d="M592.38,1096.02c73.89,47.01,118.79,163.69,206.36,162.65c10.62-0.13,38.17-2.64,68.2-8.74
	c24.45-4.98,36.68-7.49,43.71-13.11c23.84-19.12,9.08-51.62,19.24-107.56c6.4-35.18,19.72-61.34,46.35-113.67
	c23.34-45.84,48.69-84.14,36.73-97.06c0,0-1.21-1.3-25.37-11.36l-81.31,109.3c11.82-58.22,6.86-101.41,0-130.29
	c0,0-2.41-10.14-27.19-87.42l-29.72,13.99c3.93,82.95,5.25,176.81-10.46,179.23c-23.76,3.68-83.07-201.09-83.07-201.11
	c-11.82-2.47-24.39-2.74-32.35,4.37c-36.83,33,65.77,188.67,47.22,201.11c0,0-9.52,6.4-127.58-112.79l-28.86,22.73l0,0
	c93.95,109.17,109.3,174,109.3,174c8.37,35.14,1.13,40.78-0.86,41.97c-18.34,10.92-76.21-68.83-105.8-54.21
	c-11.36,5.58-24.47,27.98-24.49,27.96H592.38z"/>
<path class="st3" d="M592.38,390.31C666.27,437.32,711.17,554,798.74,552.95c10.62-0.13,38.17-2.64,68.2-8.74
	c24.45-4.98,36.68-7.49,43.71-13.11c23.84-19.12,9.08-51.62,19.24-107.56c6.4-35.18,19.72-61.34,46.35-113.67
	c23.34-45.84,48.69-84.14,36.73-97.06c0,0-1.21-1.3-25.37-11.36l-81.31,109.3c11.82-58.22,6.86-101.41,0-130.29
	c0,0-2.41-10.14-27.19-87.42l-29.72,13.99c3.93,82.94,5.25,176.81-10.46,179.23c-23.76,3.68-83.07-201.09-83.07-201.11
	c-11.82-2.47-24.39-2.74-32.35,4.37c-36.83,33,65.77,188.67,47.22,201.11c0,0-9.52,6.4-127.58-112.79l-28.86,22.73l0,0
	c93.95,109.17,109.3,174,109.3,174c8.37,35.14,1.13,40.78-0.86,41.97c-18.34,10.92-76.21-68.83-105.8-54.21
	c-11.36,5.58-24.47,27.98-24.49,27.96H592.38z"/>
</svg>
