<?xml version="1.0" encoding="utf-8"?>
<!-- Generator: Adobe Illustrator 27.0.0, SVG Export Plug-In . SVG Version: 6.00 Build 0)  -->
<svg version="1.1" id="Capa_1" xmlns="http://www.w3.org/2000/svg" xmlns:xlink="http://www.w3.org/1999/xlink" x="0px" y="0px"
	 viewBox="0 0 1080 1350" style="enable-background:new 0 0 1080 1350;" xml:space="preserve">
<style type="text/css">
	.st0{clip-path:url(#SVGID_00000063612646754943767570000010118904918761373597_);}
	.st1{fill:#284565;}
	.st2{clip-path:url(#SVGID_00000156569704808742973250000010123040404418169728_);}
	.st3{fill:#FF9498;}
	.st4{clip-path:url(#SVGID_00000023985113430586676930000010445042582315322793_);}
	.st5{fill:#D18730;}
	.st6{clip-path:url(#SVGID_00000075149195267039592160000013597333082753881986_);}
	.st7{fill:#FFBD59;}
</style>
<g>
	<defs>
		<rect id="SVGID_1_" x="-1101.22" width="1082.44" height="1350"/>
	</defs>
	<clipPath id="SVGID_00000158732817780213110090000001639962374497776026_">
		<use xlink:href="#SVGID_1_"  style="overflow:visible;"/>
	</clipPath>
	<g style="clip-path:url(#SVGID_00000158732817780213110090000001639962374497776026_);">
		<path class="st1" d="M-98.52,1072.63c1.01,2.95,4.2,2.82,6.74,1.73c3.85-1.66,7.25-4.51,10.46-7.01
			c5.5-4.29,10.85-8.74,16.17-13.21c4.38-3.7,8.62-7.52,12.6-11.57c3.68-3.74,7.2-7.61,10.55-11.61
			c1.09,10.32,2.57,20.61,4.51,30.82c0.95,5.59,2.39,11.07,4.36,16.44c1.87,4.78,4.39,9.6,8.36,13.23
			c3.41,3.15,7.87,4.99,12.73,4.14c4.86-0.85,8.85-4.13,11.94-7.5c3.57-4.08,6.47-8.53,8.7-13.35c2.31-4.79,4.21-9.72,5.68-14.79
			c3.15-10.96,4.58-22.08,4.31-33.37c0.02-0.03,0.04-0.07,0.05-0.1c5.75,7.13,11.02,14.59,16.84,21.68
			c3.34,4.14,6.97,8.05,10.89,11.74c1.97,1.82,4.02,3.57,6.2,5.2c2.42,1.81,4.9,3.88,7.82,4.91c1.25,0.46,2.52,0.55,3.83,0.26
			c1.3-0.28,2.4-0.88,3.3-1.8c2.04-2.1,2.52-4.94,2.03-7.64c-0.51-2.85-2.1-5.55-3.44-8.13c-1.34-2.58-2.66-4.88-4.12-7.26
			c-5.67-9.08-12.32-17.51-19.96-25.28c-7.04-7.25-14.71-13.97-22.48-20.57l-2.88-2.44c0,0,0,0,0,0c0-0.03,0.01-0.05,0.01-0.07
			l0,0.05c1.06-15.45,2.12-30.9,3.19-46.35c1-15.53,1.88-31.07,2.66-46.61c0.37-7.75,0.7-15.49,0.99-23.23
			c0.14-3.91,0.28-7.82,0.39-11.73c0.1-3.65,0.31-7.31,0.14-10.95c-0.17-3.39-0.63-6.98-2.42-10c-1.33-2.28-3.79-4.63-6.85-4.5
			c-3.22,0.13-5.08,2.89-6.04,5.4c-1.17,3.05-1.41,6.39-1.86,9.62c-2.09,14.86-5.22,29.57-7.61,44.41
			c-1.18,7.28-2.17,14.58-2.85,21.92c-0.43,4.57-1.13,10.62-5.39,13.63c-0.93,0.66-2.3,1.36-3.52,1.03
			c-0.92-0.26-1.3-0.89-1.71-1.61c-1.12-1.93-1.44-4.35-1.67-6.52c-0.63-6.03-0.31-12.17-0.25-18.22c0.14-13.3,0.31-26.6-0.41-39.91
			c-0.27-4.99-0.69-9.97-1.5-14.91c-0.46-3.56-1.44-6.99-2.94-10.3c-1.44-2.92-4.03-5.51-7.83-5.17c-1.7,0.15-4.45,0.74-4.83,2.47
			c-0.38,1.72-0.5,3.5-0.72,5.26c-0.35,2.76-0.68,5.53-0.97,8.31c-1.1,10.66-1.78,21.36-2.33,32.04
			c-0.6,11.63-1.01,23.25-1.33,34.89c-0.29,10.15-0.5,20.32-0.71,30.48c-0.07,3.83-0.14,7.67-0.22,11.5
			c-0.08,3.47,0.09,7.08-0.63,10.51c-0.58,3.21-2.13,5.96-4.67,8.23c-1.49,1.34-3.04,2.6-4.45,4.01c-3.4,3.35-6.52,6.94-9.57,10.57
			c-8.07,9.61-15.41,19.68-22,30.2c-4.06,6.55-7.72,13.28-10.99,20.18c-1.91,3.88-3.6,7.85-5.04,11.9
			C-98.16,1066.31-99.48,1069.83-98.52,1072.63z"/>
		<g>
			<g>
				<path class="st1" d="M261.45,613.55c-1.01-2.95-4.2-2.82-6.73-1.73c-3.85,1.66-7.25,4.5-10.46,7.01
					c-5.5,4.28-10.85,8.73-16.17,13.21c-4.38,3.7-8.62,7.52-12.61,11.56c-3.68,3.74-7.21,7.61-10.56,11.6
					c-1.09-10.32-2.56-20.61-4.49-30.83c-0.94-5.59-2.39-11.07-4.35-16.44c-1.86-4.78-4.39-9.61-8.35-13.23
					c-3.4-3.15-7.87-5-12.73-4.15c-4.86,0.85-8.85,4.13-11.94,7.5c-3.57,4.08-6.47,8.53-8.7,13.35c-2.31,4.79-4.21,9.72-5.69,14.78
					c-3.16,10.96-4.59,22.08-4.33,33.37c-0.02,0.03-0.04,0.07-0.05,0.1c-5.74-7.14-11.01-14.59-16.83-21.69
					c-3.34-4.14-6.97-8.06-10.88-11.74c-1.97-1.82-4.02-3.57-6.2-5.21c-2.42-1.81-4.9-3.88-7.81-4.92
					c-1.25-0.46-2.52-0.55-3.83-0.26c-1.3,0.28-2.4,0.88-3.3,1.8c-2.04,2.1-2.52,4.94-2.03,7.64c0.51,2.85,2.09,5.55,3.44,8.13
					c1.34,2.58,2.66,4.88,4.12,7.27c5.67,9.09,12.31,17.52,19.94,25.29c7.04,7.26,14.71,13.98,22.47,20.58l2.88,2.44c0,0,0,0,0,0
					c0,0.03-0.01,0.05-0.01,0.07v-0.05c-1.07,15.45-2.14,30.9-3.22,46.34c-1.01,15.52-1.9,31.07-2.68,46.61
					c-0.38,7.75-0.71,15.49-1.01,23.23c-0.15,3.91-0.28,7.82-0.4,11.73c-0.1,3.65-0.31,7.31-0.15,10.95c0.17,3.39,0.63,6.98,2.42,10
					c1.33,2.28,3.79,4.63,6.85,4.5c3.22-0.13,5.08-2.89,6.04-5.4c1.17-3.05,1.41-6.39,1.86-9.62c2.09-14.86,5.24-29.57,7.64-44.41
					c1.18-7.28,2.18-14.58,2.86-21.92c0.43-4.57,1.13-10.62,5.39-13.63c0.93-0.65,2.3-1.36,3.52-1.03c0.92,0.26,1.3,0.9,1.71,1.61
					c1.12,1.93,1.43,4.35,1.67,6.52c0.63,6.03,0.3,12.17,0.24,18.22c-0.15,13.3-0.32,26.6,0.39,39.91
					c0.27,4.99,0.68,9.97,1.49,14.91c0.46,3.56,1.43,6.99,2.93,10.3c1.43,2.92,4.02,5.52,7.82,5.18c1.7-0.14,4.45-0.74,4.83-2.46
					c0.38-1.72,0.5-3.5,0.72-5.26c0.36-2.76,0.68-5.53,0.97-8.31c1.11-10.65,1.79-21.36,2.35-32.04
					c0.61-11.63,1.03-23.25,1.35-34.89c0.29-10.15,0.51-20.32,0.72-30.48c0.07-3.83,0.15-7.67,0.23-11.5
					c0.08-3.47-0.08-7.08,0.64-10.51c0.59-3.21,2.14-5.96,4.67-8.23c1.49-1.34,3.04-2.6,4.45-4c3.4-3.35,6.53-6.94,9.57-10.57
					c8.08-9.61,15.42-19.67,22.02-30.19c4.06-6.54,7.73-13.27,11-20.17c1.92-3.88,3.6-7.84,5.05-11.9
					C261.09,619.86,262.41,616.35,261.45,613.55z"/>
			</g>
			<g>
				<path class="st1" d="M-66.1,565.15c1.01,2.95,4.2,2.82,6.74,1.73c3.85-1.66,7.25-4.51,10.46-7.01
					c5.5-4.29,10.85-8.74,16.17-13.21c4.38-3.7,8.62-7.52,12.6-11.57c3.68-3.74,7.2-7.61,10.55-11.61
					c1.09,10.32,2.57,20.61,4.51,30.82c0.95,5.59,2.39,11.07,4.36,16.44c1.87,4.78,4.39,9.6,8.36,13.23
					c3.41,3.15,7.87,4.99,12.73,4.14c4.86-0.85,8.85-4.13,11.94-7.5c3.57-4.08,6.47-8.53,8.7-13.35c2.31-4.79,4.21-9.72,5.68-14.79
					c3.15-10.96,4.58-22.08,4.31-33.37c0.02-0.03,0.04-0.07,0.05-0.1c5.75,7.13,11.02,14.59,16.84,21.68
					c3.34,4.14,6.97,8.05,10.89,11.74c1.97,1.82,4.02,3.57,6.2,5.2c2.42,1.81,4.9,3.88,7.82,4.91c1.25,0.46,2.52,0.55,3.83,0.26
					c1.3-0.28,2.4-0.88,3.3-1.8c2.04-2.1,2.52-4.94,2.03-7.64c-0.51-2.85-2.1-5.55-3.44-8.13c-1.34-2.58-2.66-4.88-4.12-7.26
					c-5.67-9.08-12.32-17.51-19.96-25.28c-7.04-7.25-14.71-13.97-22.48-20.57l-2.88-2.44c0,0,0,0,0,0c0-0.03,0.01-0.05,0.01-0.07
					l0,0.05c1.06-15.45,2.12-30.9,3.19-46.35c1-15.53,1.88-31.07,2.66-46.61c0.37-7.75,0.7-15.49,0.99-23.23
					c0.14-3.91,0.28-7.82,0.39-11.73c0.1-3.65,0.31-7.31,0.14-10.95c-0.17-3.39-0.63-6.98-2.42-10c-1.33-2.28-3.79-4.63-6.85-4.5
					c-3.22,0.13-5.08,2.89-6.04,5.4c-1.17,3.05-1.41,6.39-1.86,9.62c-2.09,14.86-5.22,29.57-7.61,44.41
					c-1.18,7.28-2.17,14.58-2.85,21.92c-0.43,4.57-1.13,10.62-5.39,13.63c-0.93,0.65-2.3,1.36-3.52,1.03
					c-0.92-0.26-1.3-0.89-1.71-1.61c-1.12-1.93-1.44-4.35-1.67-6.52c-0.63-6.03-0.31-12.17-0.25-18.22
					c0.14-13.3,0.31-26.6-0.41-39.91c-0.27-4.99-0.69-9.97-1.5-14.91c-0.46-3.56-1.44-6.99-2.94-10.3
					c-1.44-2.92-4.03-5.51-7.83-5.17c-1.7,0.15-4.45,0.74-4.83,2.47s-0.5,3.5-0.72,5.26c-0.35,2.76-0.68,5.53-0.97,8.31
					C-4,362.3-4.68,373-5.23,383.69c-0.6,11.63-1.01,23.25-1.33,34.89c-0.29,10.15-0.5,20.32-0.71,30.48
					c-0.07,3.83-0.14,7.67-0.22,11.5c-0.08,3.47,0.09,7.08-0.63,10.51c-0.58,3.21-2.13,5.96-4.67,8.23
					c-1.49,1.34-3.04,2.6-4.45,4.01c-3.4,3.35-6.52,6.94-9.57,10.57c-8.07,9.61-15.41,19.68-22,30.2
					c-4.06,6.55-7.72,13.28-10.99,20.18c-1.91,3.88-3.6,7.85-5.04,11.9C-65.75,558.83-67.07,562.35-66.1,565.15z"/>
			</g>
			<path class="st1" d="M196.48,565.7c1.01,2.95,4.2,2.82,6.74,1.73c3.85-1.66,7.25-4.51,10.46-7.01
				c5.5-4.29,10.85-8.74,16.17-13.21c4.38-3.7,8.62-7.52,12.6-11.57c3.68-3.74,7.2-7.61,10.55-11.61
				c1.09,10.32,2.57,20.61,4.51,30.82c0.95,5.59,2.39,11.07,4.36,16.44c1.87,4.78,4.39,9.6,8.36,13.23
				c3.41,3.15,7.87,4.99,12.73,4.14c4.86-0.85,8.85-4.13,11.94-7.5c3.57-4.08,6.47-8.53,8.7-13.35c2.31-4.79,4.21-9.72,5.68-14.79
				c3.15-10.96,4.58-22.08,4.31-33.37c0.02-0.03,0.04-0.07,0.05-0.1c5.75,7.13,11.02,14.59,16.84,21.68
				c3.34,4.14,6.97,8.05,10.89,11.74c1.97,1.82,4.02,3.57,6.2,5.2c2.42,1.81,4.9,3.88,7.82,4.91c1.25,0.46,2.52,0.55,3.83,0.26
				c1.3-0.28,2.4-0.88,3.3-1.8c2.04-2.1,2.52-4.94,2.03-7.64c-0.51-2.85-2.1-5.55-3.44-8.13c-1.34-2.58-2.66-4.88-4.12-7.26
				c-5.67-9.08-12.32-17.51-19.96-25.28c-7.04-7.25-14.71-13.97-22.48-20.57l-2.88-2.44c0,0,0,0,0,0c0-0.03,0.01-0.05,0.01-0.07
				l0,0.05c1.06-15.45,2.12-30.9,3.19-46.35c1-15.53,1.88-31.07,2.66-46.61c0.37-7.75,0.7-15.49,0.99-23.23
				c0.14-3.91,0.28-7.82,0.39-11.73c0.1-3.65,0.31-7.31,0.14-10.95c-0.17-3.39-0.63-6.98-2.42-10c-1.33-2.28-3.79-4.63-6.85-4.5
				c-3.22,0.13-5.08,2.89-6.04,5.4c-1.17,3.05-1.41,6.39-1.86,9.62c-2.09,14.86-5.22,29.57-7.61,44.41
				c-1.18,7.28-2.17,14.58-2.85,21.92c-0.43,4.57-1.13,10.62-5.39,13.63c-0.93,0.65-2.3,1.36-3.52,1.03
				c-0.92-0.26-1.3-0.89-1.71-1.61c-1.12-1.93-1.44-4.35-1.67-6.52c-0.63-6.03-0.31-12.17-0.25-18.22
				c0.14-13.3,0.31-26.6-0.41-39.91c-0.27-4.99-0.69-9.97-1.5-14.91c-0.46-3.56-1.44-6.99-2.94-10.3c-1.44-2.92-4.03-5.51-7.83-5.17
				c-1.7,0.15-4.45,0.74-4.83,2.47s-0.5,3.5-0.72,5.26c-0.35,2.76-0.68,5.53-0.97,8.31c-1.1,10.66-1.78,21.36-2.33,32.04
				c-0.6,11.63-1.01,23.25-1.33,34.89c-0.29,10.15-0.5,20.32-0.71,30.48c-0.07,3.83-0.14,7.67-0.22,11.5
				c-0.08,3.47,0.09,7.08-0.63,10.51c-0.58,3.21-2.13,5.96-4.67,8.23c-1.49,1.34-3.04,2.6-4.45,4.01c-3.4,3.35-6.52,6.94-9.57,10.57
				c-8.07,9.61-15.41,19.68-22,30.2c-4.06,6.55-7.72,13.28-10.99,20.18c-1.91,3.88-3.6,7.85-5.04,11.9
				C196.84,559.38,195.52,562.9,196.48,565.7z"/>
		</g>
		<g>
			<path class="st1" d="M-98.52,58.21c1.01,2.95,4.2,2.82,6.74,1.73c3.85-1.66,7.25-4.51,10.46-7.01
				c5.5-4.29,10.85-8.74,16.17-13.21c4.38-3.7,8.62-7.52,12.6-11.57c3.68-3.74,7.2-7.61,10.55-11.61
				c1.09,10.32,2.57,20.61,4.51,30.82c0.95,5.59,2.39,11.07,4.36,16.44c1.87,4.78,4.39,9.6,8.36,13.23
				c3.41,3.15,7.87,4.99,12.73,4.14s8.85-4.13,11.94-7.5c3.57-4.08,6.47-8.53,8.7-13.35c2.31-4.79,4.21-9.72,5.68-14.79
				c3.15-10.96,4.58-22.08,4.31-33.37c0.02-0.03,0.04-0.07,0.05-0.1c5.75,7.13,11.02,14.59,16.84,21.68
				c3.34,4.14,6.97,8.05,10.89,11.74c1.97,1.82,4.02,3.57,6.2,5.2c2.42,1.81,4.9,3.88,7.82,4.91c1.25,0.46,2.52,0.55,3.83,0.26
				c1.3-0.28,2.4-0.88,3.3-1.8c2.04-2.1,2.52-4.94,2.03-7.64c-0.51-2.85-2.1-5.55-3.44-8.13c-1.34-2.58-2.66-4.88-4.12-7.26
				C56.31,21.92,49.66,13.5,42.02,5.72C34.98-1.53,27.31-8.24,19.54-14.84l-2.88-2.44c0,0,0,0,0,0c0-0.03,0.01-0.05,0.01-0.07
				l0,0.05c1.06-15.45,2.12-30.9,3.19-46.35c1-15.53,1.88-31.07,2.66-46.61c0.37-7.75,0.7-15.49,0.99-23.23
				c0.14-3.91,0.28-7.82,0.39-11.73c0.1-3.65,0.31-7.31,0.14-10.95c-0.17-3.39-0.63-6.98-2.42-10c-1.33-2.28-3.79-4.63-6.85-4.5
				c-3.22,0.13-5.08,2.89-6.04,5.4c-1.17,3.05-1.41,6.39-1.86,9.62c-2.09,14.86-5.22,29.57-7.61,44.41
				c-1.18,7.28-2.17,14.58-2.85,21.92c-0.43,4.57-1.13,10.62-5.39,13.63c-0.93,0.66-2.3,1.36-3.52,1.03
				c-0.92-0.26-1.3-0.89-1.71-1.61c-1.12-1.93-1.44-4.35-1.67-6.52c-0.63-6.03-0.31-12.17-0.25-18.22
				c0.14-13.3,0.31-26.6-0.41-39.91c-0.27-4.99-0.69-9.97-1.5-14.91c-0.46-3.56-1.44-6.99-2.94-10.3c-1.44-2.92-4.03-5.51-7.83-5.17
				c-1.7,0.15-4.45,0.74-4.83,2.47c-0.38,1.72-0.5,3.5-0.72,5.26c-0.35,2.76-0.68,5.53-0.97,8.31c-1.1,10.66-1.78,21.36-2.33,32.04
				c-0.6,11.63-1.01,23.25-1.33,34.89c-0.29,10.15-0.5,20.32-0.71,30.48c-0.07,3.83-0.14,7.67-0.22,11.5
				c-0.08,3.47,0.09,7.08-0.63,10.51c-0.58,3.21-2.13,5.96-4.67,8.23c-1.49,1.34-3.04,2.6-4.45,4.01c-3.4,3.35-6.52,6.94-9.57,10.57
				c-8.07,9.61-15.41,19.68-22,30.2c-4.06,6.55-7.72,13.28-10.99,20.18c-1.91,3.88-3.6,7.85-5.04,11.9
				C-98.16,51.9-99.48,55.41-98.52,58.21z"/>
		</g>
	</g>
</g>
<g>
	<defs>
		<rect id="SVGID_00000105411202697101119340000010295997986199190922_" x="-2.46" y="2.55" width="1082.54" height="1347.45"/>
	</defs>
	<clipPath id="SVGID_00000077319632804842701690000002446070492186008487_">
		<use xlink:href="#SVGID_00000105411202697101119340000010295997986199190922_"  style="overflow:visible;"/>
	</clipPath>
	<g style="clip-path:url(#SVGID_00000077319632804842701690000002446070492186008487_);">
		<path class="st3" d="M1023.42,1237.22c7.91,26.98-5.92,64.65,15.45,82.91c2.59,2.22,9.78,7.43,18.32,12.31
			c6.96,3.97,10.44,5.95,13.33,6.07c9.8,0.42,13.11-10.55,27.39-21.91c8.98-7.14,17.73-10.65,35.23-17.65
			c15.33-6.14,29.55-10.03,29.39-15.68c0,0-0.02-0.57-3.73-8.11l-42.75,9.2c15.16-11.56,23.1-23.04,27.55-31.47
			c0,0,1.56-2.96,11.92-26.86l-10.14-2.9c-16.59,20.86-36.11,43.81-40.42,41.08c-6.52-4.13,22.45-66.13,22.46-66.13
			c-2.33-3.09-5.31-5.82-8.74-5.79c-15.87,0.18-24,59.47-31.12,58.56c0,0-3.65-0.47-6.96-54.21l-11.78-0.61l0,0
			c-0.39,46.23-10.39,65.13-10.39,65.13c-5.41,10.25-8.35,10.09-9.08,9.96c-6.74-1.24-3.85-32.74-14.09-35.46
			c-3.92-1.05-11.83,1.58-11.83,1.58L1023.42,1237.22z"/>
		<path class="st3" d="M779.46,1237.22c7.91,26.98-5.92,64.65,15.45,82.91c2.59,2.22,9.78,7.43,18.32,12.31
			c6.96,3.97,10.44,5.95,13.33,6.07c9.8,0.42,13.11-10.55,27.39-21.91c8.98-7.14,17.73-10.65,35.23-17.65
			c15.33-6.14,29.55-10.03,29.39-15.68c0,0-0.02-0.57-3.73-8.11l-42.75,9.2c15.16-11.56,23.1-23.04,27.55-31.47
			c0,0,1.56-2.96,11.92-26.86l-10.14-2.9c-16.59,20.86-36.11,43.81-40.42,41.08c-6.52-4.13,22.45-66.13,22.46-66.13
			c-2.33-3.09-5.31-5.82-8.74-5.79c-15.87,0.18-24,59.47-31.12,58.56c0,0-3.65-0.47-6.96-54.21l-11.78-0.61l0,0
			c-0.39,46.23-10.39,65.13-10.39,65.13c-5.41,10.25-8.35,10.09-9.08,9.96c-6.74-1.24-3.85-32.74-14.09-35.46
			c-3.92-1.05-11.83,1.58-11.83,1.58L779.46,1237.22z"/>
		<path class="st3" d="M535.49,1237.22c7.91,26.98-5.92,64.65,15.45,82.91c2.59,2.22,9.78,7.43,18.32,12.31
			c6.96,3.97,10.44,5.95,13.33,6.07c9.8,0.42,13.11-10.55,27.39-21.91c8.98-7.14,17.73-10.65,35.23-17.65
			c15.33-6.14,29.55-10.03,29.39-15.68c0,0-0.02-0.57-3.73-8.11l-42.75,9.2c15.16-11.56,23.1-23.04,27.55-31.47
			c0,0,1.56-2.96,11.92-26.86l-10.14-2.9c-16.59,20.86-36.11,43.81-40.42,41.08c-6.52-4.13,22.45-66.13,22.46-66.13
			c-2.33-3.09-5.31-5.82-8.74-5.79c-15.87,0.18-24,59.47-31.12,58.56c0,0-3.65-0.47-6.96-54.21l-11.78-0.61l0,0
			c-0.39,46.23-10.39,65.13-10.39,65.13c-5.41,10.25-8.35,10.09-9.08,9.96c-6.74-1.24-3.85-32.74-14.09-35.46
			c-3.92-1.05-11.83,1.58-11.83,1.58L535.49,1237.22z"/>
		<path class="st3" d="M291.52,1237.22c7.91,26.98-5.92,64.65,15.45,82.91c2.59,2.22,9.78,7.43,18.32,12.31
			c6.96,3.97,10.44,5.95,13.33,6.07c9.8,0.42,13.11-10.55,27.39-21.91c8.98-7.14,17.73-10.65,35.23-17.65
			c15.33-6.14,29.55-10.03,29.39-15.68c0,0-0.02-0.57-3.73-8.11l-42.75,9.2c15.16-11.56,23.1-23.04,27.55-31.47
			c0,0,1.56-2.96,11.92-26.86l-10.14-2.9c-16.59,20.86-36.11,43.81-40.42,41.08c-6.52-4.13,22.45-66.13,22.46-66.13
			c-2.33-3.09-5.31-5.82-8.74-5.79c-15.87,0.18-24,59.47-31.12,58.56c0,0-3.65-0.47-6.96-54.21l-11.78-0.61l0,0
			c-0.39,46.23-10.39,65.13-10.39,65.13c-5.41,10.25-8.35,10.09-9.08,9.96c-6.74-1.24-3.85-32.74-14.09-35.46
			c-3.92-1.05-11.83,1.58-11.83,1.58L291.52,1237.22z"/>
		<path class="st3" d="M47.55,1237.22c7.91,26.98-5.92,64.65,15.45,82.91c2.59,2.22,9.78,7.43,18.32,12.31
			c6.96,3.97,10.44,5.95,13.33,6.07c9.8,0.42,13.11-10.55,27.39-21.91c8.98-7.14,17.73-10.65,35.23-17.65
			c15.33-6.14,29.55-10.03,29.39-15.68c0,0-0.02-0.57-3.73-8.11l-42.75,9.2c15.16-11.56,23.1-23.04,27.55-31.47
			c0,0,1.56-2.96,11.92-26.86l-10.14-2.9c-16.59,20.86-36.11,43.81-40.42,41.08c-6.52-4.13,22.45-66.13,22.46-66.13
			c-2.33-3.09-5.31-5.82-8.74-5.79c-15.87,0.18-24,59.47-31.12,58.56c0,0-3.65-0.47-6.96-54.21l-11.78-0.61l0,0
			c-0.39,46.23-10.39,65.13-10.39,65.13c-5.41,10.25-8.35,10.09-9.08,9.96c-6.74-1.24-3.85-32.74-14.09-35.46
			c-3.92-1.05-11.83,1.58-11.83,1.58L47.55,1237.22z"/>
		<path class="st3" d="M9.92,1049.54c-13.08,29.13-3.77,69.24-30.39,89.33c-3.23,2.44-12.03,8.2-22.29,13.64
			c-8.35,4.42-12.53,6.63-15.76,6.83c-10.94,0.68-12.85-11.01-26.88-22.87c-8.82-7.46-17.97-11.01-36.25-18.12
			c-16.02-6.23-31.18-10.07-30.1-16.14c0,0,0.11-0.61,5.43-8.79l45.95,8.88c-14.97-12.06-21.94-24.19-25.53-33.13
			c0,0-1.26-3.14-8.93-28.55l11.71-3.35c15.07,22,33.06,46.17,38.27,43.14c7.89-4.59-14.34-70.44-14.34-70.45
			c3.08-3.37,6.82-6.37,10.62-6.41c17.58-0.17,17.12,63.26,25.16,62.11c0,0,4.12-0.59,16.39-58.34l13.16-0.93l0,0
			c-6.95,49.6,1.12,69.65,1.12,69.65c4.36,10.88,7.65,10.63,8.48,10.47c7.67-1.49,9.51-35.22,21.3-38.38
			c4.52-1.22,12.87,1.43,12.87,1.41L9.92,1049.54z"/>
		<path class="st3" d="M280.55,1043.86c-13.08,29.13-3.77,69.24-30.39,89.33c-3.23,2.44-12.03,8.2-22.29,13.64
			c-8.35,4.42-12.53,6.63-15.76,6.83c-10.94,0.68-12.85-11.01-26.88-22.87c-8.82-7.46-17.97-11.01-36.25-18.12
			c-16.02-6.23-31.18-10.07-30.1-16.14c0,0,0.11-0.61,5.43-8.79l45.95,8.88c-14.97-12.06-21.94-24.19-25.53-33.13
			c0,0-1.26-3.14-8.93-28.55l11.71-3.35c15.07,22,33.06,46.17,38.27,43.14c7.89-4.59-14.34-70.44-14.34-70.45
			c3.08-3.37,6.82-6.37,10.62-6.41c17.58-0.17,17.12,63.26,25.16,62.11c0,0,4.12-0.59,16.39-58.34l13.16-0.93l0,0
			c-6.95,49.6,1.12,69.65,1.12,69.65c4.36,10.88,7.65,10.63,8.48,10.47c7.67-1.49,9.51-35.22,21.3-38.38
			c4.52-1.22,12.87,1.43,12.87,1.41L280.55,1043.86z"/>
		<path class="st3" d="M551.18,1038.17c-13.08,29.13-3.77,69.24-30.39,89.33c-3.23,2.44-12.03,8.2-22.29,13.64
			c-8.35,4.42-12.53,6.63-15.76,6.83c-10.94,0.68-12.85-11.01-26.88-22.87c-8.82-7.46-17.97-11.01-36.25-18.12
			c-16.02-6.23-31.18-10.07-30.1-16.14c0,0,0.11-0.61,5.43-8.79l45.95,8.88c-14.97-12.06-21.94-24.19-25.53-33.13
			c0,0-1.26-3.14-8.93-28.55l11.71-3.35c15.07,22,33.06,46.17,38.27,43.14c7.89-4.59-14.34-70.44-14.34-70.45
			c3.08-3.37,6.82-6.37,10.62-6.41c17.58-0.17,17.12,63.26,25.16,62.11c0,0,4.12-0.59,16.39-58.34l13.16-0.93l0,0
			c-6.95,49.6,1.12,69.65,1.12,69.65c4.36,10.88,7.65,10.63,8.48,10.47c7.67-1.49,9.51-35.22,21.3-38.38
			c4.52-1.22,12.87,1.43,12.87,1.41L551.18,1038.17z"/>
		<path class="st3" d="M821.82,1032.49c-13.08,29.13-3.77,69.24-30.39,89.33c-3.23,2.44-12.03,8.2-22.29,13.64
			c-8.35,4.42-12.53,6.63-15.76,6.83c-10.94,0.68-12.85-11.01-26.88-22.87c-8.82-7.46-17.97-11.01-36.25-18.12
			c-16.02-6.23-31.18-10.07-30.1-16.14c0,0,0.11-0.61,5.43-8.79l45.95,8.88c-14.97-12.06-21.94-24.19-25.53-33.13
			c0,0-1.26-3.14-8.93-28.55l11.71-3.35c15.07,22,33.06,46.17,38.27,43.14c7.89-4.59-14.34-70.44-14.34-70.45
			c3.08-3.37,6.82-6.37,10.62-6.41c17.58-0.17,17.12,63.26,25.16,62.11c0,0,4.12-0.59,16.39-58.34l13.16-0.93l0,0
			c-6.95,49.6,1.12,69.65,1.12,69.65c4.36,10.88,7.65,10.63,8.48,10.47c7.67-1.49,9.51-35.22,21.3-38.38
			c4.52-1.22,12.87,1.43,12.87,1.41L821.82,1032.49z"/>
		<path class="st3" d="M1092.45,1026.8c-13.08,29.13-3.77,69.24-30.39,89.33c-3.23,2.44-12.03,8.2-22.29,13.64
			c-8.35,4.42-12.53,6.63-15.76,6.83c-10.94,0.68-12.85-11.01-26.88-22.87c-8.82-7.46-17.97-11.01-36.25-18.12
			c-16.02-6.23-31.18-10.07-30.1-16.14c0,0,0.11-0.61,5.43-8.79l45.95,8.88c-14.97-12.06-21.94-24.19-25.53-33.13
			c0,0-1.26-3.14-8.93-28.55l11.71-3.35c15.07,22,33.06,46.17,38.27,43.14c7.89-4.59-14.34-70.44-14.34-70.45
			c3.08-3.37,6.82-6.37,10.62-6.41c17.58-0.17,17.12,63.26,25.16,62.11c0,0,4.12-0.59,16.39-58.34l13.16-0.93l0,0
			c-6.95,49.6,1.12,69.65,1.12,69.65c4.36,10.88,7.65,10.63,8.48,10.47c7.67-1.49,9.51-35.22,21.3-38.38
			c4.52-1.22,12.87,1.43,12.87,1.41L1092.45,1026.8z"/>
		<path class="st3" d="M1046.3,845.97c7.91,26.98-5.92,64.65,15.45,82.91c2.59,2.22,9.78,7.43,18.32,12.31
			c6.96,3.97,10.44,5.95,13.33,6.07c9.8,0.42,13.11-10.55,27.39-21.91c8.98-7.14,17.73-10.65,35.23-17.65
			c15.33-6.14,29.55-10.03,29.39-15.68c0,0-0.02-0.57-3.73-8.11l-42.75,9.2c15.16-11.56,23.1-23.04,27.55-31.47
			c0,0,1.56-2.96,11.92-26.86l-10.14-2.9c-16.59,20.86-36.11,43.81-40.42,41.08c-6.52-4.13,22.45-66.13,22.46-66.13
			c-2.33-3.09-5.31-5.82-8.74-5.78c-15.87,0.18-24,59.47-31.12,58.56c0,0-3.65-0.47-6.96-54.21l-11.78-0.61l0,0
			c-0.39,46.23-10.39,65.13-10.39,65.13c-5.41,10.25-8.35,10.09-9.08,9.96c-6.74-1.24-3.85-32.74-14.09-35.46
			c-3.92-1.05-11.83,1.58-11.83,1.58L1046.3,845.97z"/>
		<path class="st3" d="M802.33,845.97c7.91,26.98-5.92,64.65,15.45,82.91c2.59,2.22,9.78,7.43,18.32,12.31
			c6.96,3.97,10.44,5.95,13.33,6.07c9.8,0.42,13.11-10.55,27.39-21.91c8.98-7.14,17.73-10.65,35.23-17.65
			c15.33-6.14,29.55-10.03,29.39-15.68c0,0-0.02-0.57-3.73-8.11l-42.75,9.2c15.16-11.56,23.1-23.04,27.55-31.47
			c0,0,1.56-2.96,11.92-26.86l-10.14-2.9c-16.59,20.86-36.11,43.81-40.42,41.08c-6.52-4.13,22.45-66.13,22.46-66.13
			c-2.33-3.09-5.31-5.82-8.74-5.78c-15.87,0.18-24,59.47-31.12,58.56c0,0-3.65-0.47-6.96-54.21l-11.78-0.61l0,0
			c-0.39,46.23-10.39,65.13-10.39,65.13c-5.41,10.25-8.35,10.09-9.08,9.96c-6.74-1.24-3.85-32.74-14.09-35.46
			c-3.92-1.05-11.83,1.58-11.83,1.58L802.33,845.97z"/>
		<path class="st3" d="M558.37,845.97c7.91,26.98-5.92,64.65,15.45,82.91c2.59,2.22,9.78,7.43,18.32,12.31
			c6.96,3.97,10.44,5.95,13.33,6.07c9.8,0.42,13.11-10.55,27.39-21.91c8.98-7.14,17.73-10.65,35.23-17.65
			c15.33-6.14,29.55-10.03,29.39-15.68c0,0-0.02-0.57-3.73-8.11l-42.75,9.2c15.16-11.56,23.1-23.04,27.55-31.47
			c0,0,1.56-2.96,11.92-26.86l-10.14-2.9c-16.59,20.86-36.11,43.81-40.42,41.08c-6.52-4.13,22.45-66.13,22.46-66.13
			c-2.33-3.09-5.31-5.82-8.74-5.78c-15.87,0.18-24,59.47-31.12,58.56c0,0-3.65-0.47-6.96-54.21l-11.78-0.61l0,0
			c-0.39,46.23-10.39,65.13-10.39,65.13c-5.41,10.25-8.35,10.09-9.08,9.96c-6.74-1.24-3.85-32.74-14.09-35.46
			c-3.92-1.05-11.83,1.58-11.83,1.58L558.37,845.97z"/>
		<path class="st3" d="M314.4,845.97c7.91,26.98-5.92,64.65,15.45,82.91c2.59,2.22,9.78,7.43,18.32,12.31
			c6.96,3.97,10.44,5.95,13.33,6.07c9.8,0.42,13.11-10.55,27.39-21.91c8.98-7.14,17.73-10.65,35.23-17.65
			c15.33-6.14,29.55-10.03,29.39-15.68c0,0-0.02-0.57-3.73-8.11l-42.75,9.2c15.16-11.56,23.1-23.04,27.55-31.47
			c0,0,1.56-2.96,11.92-26.86l-10.14-2.9c-16.59,20.86-36.11,43.81-40.42,41.08c-6.52-4.13,22.45-66.13,22.46-66.13
			c-2.33-3.09-5.31-5.82-8.74-5.78c-15.87,0.18-24,59.47-31.12,58.56c0,0-3.65-0.47-6.96-54.21l-11.78-0.61l0,0
			c-0.39,46.23-10.39,65.13-10.39,65.13c-5.41,10.25-8.35,10.09-9.08,9.96c-6.74-1.24-3.85-32.74-14.09-35.46
			c-3.92-1.05-11.83,1.58-11.83,1.58L314.4,845.97z"/>
		<path class="st3" d="M70.43,845.97c7.91,26.98-5.92,64.65,15.45,82.91c2.59,2.22,9.78,7.43,18.32,12.31
			c6.96,3.97,10.44,5.95,13.33,6.07c9.8,0.42,13.11-10.55,27.39-21.91c8.98-7.14,17.73-10.65,35.23-17.65
			c15.33-6.14,29.55-10.03,29.39-15.68c0,0-0.02-0.57-3.73-8.11l-42.75,9.2c15.16-11.56,23.1-23.04,27.55-31.47
			c0,0,1.56-2.96,11.92-26.86l-10.14-2.9c-16.59,20.86-36.11,43.81-40.42,41.08c-6.52-4.13,22.45-66.13,22.46-66.13
			c-2.33-3.09-5.31-5.82-8.74-5.78c-15.87,0.18-24,59.47-31.12,58.56c0,0-3.65-0.47-6.96-54.21l-11.78-0.61l0,0
			c-0.39,46.23-10.39,65.13-10.39,65.13c-5.41,10.25-8.35,10.09-9.08,9.96c-6.74-1.24-3.85-32.74-14.09-35.46
			c-3.92-1.05-11.83,1.58-11.83,1.58L70.43,845.97z"/>
		<path class="st3" d="M32.79,658.29c-13.08,29.13-3.77,69.24-30.39,89.33c-3.23,2.44-12.03,8.2-22.29,13.64
			c-8.35,4.42-12.53,6.63-15.76,6.83c-10.94,0.68-12.85-11.01-26.88-22.87c-8.82-7.46-17.97-11.01-36.25-18.12
			c-16.02-6.23-31.18-10.07-30.1-16.14c0,0,0.11-0.61,5.43-8.79l45.95,8.88c-14.97-12.06-21.94-24.19-25.53-33.13
			c0,0-1.26-3.14-8.93-28.55l11.71-3.35c15.07,22,33.06,46.17,38.27,43.14c7.89-4.59-14.34-70.44-14.34-70.45
			c3.08-3.37,6.82-6.37,10.62-6.41c17.58-0.17,17.12,63.26,25.16,62.11c0,0,4.12-0.59,16.39-58.34l13.16-0.93l0,0
			c-6.95,49.6,1.12,69.65,1.12,69.65c4.36,10.88,7.65,10.63,8.48,10.47c7.67-1.49,9.51-35.22,21.3-38.38
			c4.52-1.22,12.87,1.43,12.87,1.41L32.79,658.29z"/>
		<path class="st3" d="M303.43,652.61c-13.08,29.13-3.77,69.24-30.39,89.33c-3.23,2.44-12.03,8.2-22.29,13.64
			c-8.35,4.42-12.53,6.63-15.76,6.83c-10.94,0.68-12.85-11.01-26.88-22.87c-8.82-7.46-17.97-11.01-36.25-18.12
			c-16.02-6.23-31.18-10.07-30.1-16.14c0,0,0.11-0.61,5.43-8.79l45.95,8.88c-14.97-12.06-21.94-24.19-25.53-33.13
			c0,0-1.26-3.14-8.93-28.55l11.71-3.35c15.07,22,33.06,46.17,38.27,43.14c7.89-4.59-14.34-70.44-14.34-70.45
			c3.08-3.37,6.82-6.37,10.62-6.41c17.58-0.17,17.12,63.26,25.16,62.11c0,0,4.12-0.59,16.39-58.34l13.16-0.93l0,0
			c-6.95,49.6,1.12,69.65,1.12,69.65c4.36,10.88,7.65,10.63,8.48,10.47c7.67-1.49,9.51-35.22,21.3-38.38
			c4.52-1.22,12.87,1.43,12.87,1.41L303.43,652.61z"/>
		<path class="st3" d="M574.06,646.92c-13.08,29.13-3.77,69.24-30.39,89.33c-3.23,2.44-12.03,8.2-22.29,13.64
			c-8.35,4.42-12.53,6.63-15.76,6.83c-10.94,0.68-12.85-11.01-26.88-22.87c-8.82-7.46-17.97-11.01-36.25-18.12
			c-16.02-6.23-31.18-10.07-30.1-16.14c0,0,0.11-0.61,5.43-8.79l45.95,8.88c-14.97-12.06-21.94-24.19-25.53-33.13
			c0,0-1.26-3.14-8.93-28.55l11.71-3.35c15.07,22,33.06,46.17,38.27,43.14c7.89-4.59-14.34-70.44-14.34-70.45
			c3.08-3.37,6.82-6.37,10.62-6.41c17.58-0.17,17.12,63.26,25.16,62.11c0,0,4.12-0.59,16.39-58.34l13.16-0.93l0,0
			c-6.95,49.6,1.12,69.65,1.12,69.65c4.36,10.88,7.65,10.63,8.48,10.47c7.67-1.49,9.51-35.22,21.3-38.38
			c4.52-1.22,12.87,1.43,12.87,1.41L574.06,646.92z"/>
		<path class="st3" d="M844.7,641.24c-13.08,29.13-3.77,69.24-30.39,89.33c-3.23,2.44-12.03,8.2-22.29,13.64
			c-8.35,4.42-12.53,6.63-15.76,6.83c-10.94,0.68-12.85-11.01-26.88-22.87c-8.82-7.46-17.97-11.01-36.25-18.12
			c-16.02-6.23-31.18-10.07-30.1-16.14c0,0,0.11-0.61,5.43-8.79l45.95,8.88c-14.97-12.06-21.94-24.19-25.53-33.13
			c0,0-1.26-3.14-8.93-28.55l11.71-3.35c15.07,22,33.06,46.17,38.27,43.14c7.89-4.59-14.34-70.44-14.34-70.45
			c3.08-3.37,6.82-6.37,10.62-6.41c17.58-0.17,17.12,63.26,25.16,62.11c0,0,4.12-0.59,16.39-58.34l13.16-0.93l0,0
			c-6.95,49.6,1.12,69.65,1.12,69.65c4.36,10.88,7.65,10.63,8.48,10.47c7.67-1.49,9.51-35.22,21.3-38.38
			c4.52-1.22,12.87,1.43,12.87,1.41L844.7,641.24z"/>
		<path class="st3" d="M1115.33,635.55c-13.08,29.13-3.77,69.24-30.39,89.33c-3.23,2.44-12.03,8.2-22.29,13.64
			c-8.35,4.42-12.53,6.63-15.76,6.83c-10.94,0.68-12.85-11.01-26.88-22.87c-8.82-7.46-17.97-11.01-36.25-18.12
			c-16.02-6.23-31.18-10.07-30.1-16.14c0,0,0.11-0.61,5.43-8.79l45.95,8.88c-14.97-12.06-21.94-24.19-25.53-33.13
			c0,0-1.26-3.14-8.93-28.55l11.71-3.35c15.07,22,33.06,46.17,38.27,43.14c7.89-4.59-14.34-70.44-14.34-70.45
			c3.08-3.37,6.82-6.37,10.62-6.41c17.58-0.17,17.12,63.26,25.16,62.11c0,0,4.12-0.59,16.39-58.34l13.16-0.93l0,0
			c-6.95,49.6,1.12,69.65,1.12,69.65c4.36,10.88,7.65,10.63,8.48,10.47c7.67-1.49,9.51-35.22,21.3-38.38
			c4.52-1.22,12.87,1.43,12.87,1.41L1115.33,635.55z"/>
		<path class="st3" d="M845.95,471.66c7.91,26.98-5.92,64.65,15.45,82.91c2.59,2.22,9.78,7.43,18.32,12.31
			c6.96,3.97,10.44,5.95,13.33,6.07c9.8,0.42,13.11-10.55,27.39-21.91c8.98-7.14,17.73-10.64,35.23-17.65
			c15.33-6.14,29.55-10.03,29.39-15.68c0,0-0.02-0.57-3.73-8.11l-42.75,9.2c15.16-11.56,23.1-23.04,27.55-31.47
			c0,0,1.56-2.96,11.92-26.86l-10.14-2.9c-16.59,20.86-36.11,43.81-40.42,41.08c-6.52-4.13,22.45-66.13,22.46-66.13
			c-2.33-3.09-5.31-5.82-8.74-5.78c-15.87,0.18-24,59.47-31.12,58.56c0,0-3.65-0.47-6.96-54.21l-11.78-0.61l0,0
			c-0.39,46.23-10.39,65.13-10.39,65.13c-5.41,10.25-8.35,10.09-9.08,9.96c-6.74-1.24-3.85-32.74-14.09-35.46
			c-3.92-1.05-11.83,1.58-11.83,1.58L845.95,471.66z"/>
		<path class="st3" d="M601.98,471.66c7.91,26.98-5.92,64.65,15.45,82.91c2.59,2.22,9.78,7.43,18.32,12.31
			c6.96,3.97,10.44,5.95,13.33,6.07c9.8,0.42,13.11-10.55,27.39-21.91c8.98-7.14,17.73-10.64,35.23-17.65
			c15.33-6.14,29.55-10.03,29.39-15.68c0,0-0.02-0.57-3.73-8.11l-42.75,9.2c15.16-11.56,23.1-23.04,27.55-31.47
			c0,0,1.56-2.96,11.92-26.86l-10.14-2.9c-16.59,20.86-36.11,43.81-40.42,41.08c-6.52-4.13,22.45-66.13,22.46-66.13
			c-2.33-3.09-5.31-5.82-8.74-5.78c-15.87,0.18-24,59.47-31.12,58.56c0,0-3.65-0.47-6.96-54.21l-11.78-0.61l0,0
			c-0.39,46.23-10.39,65.13-10.39,65.13c-5.41,10.25-8.35,10.09-9.08,9.96c-6.74-1.24-3.85-32.74-14.09-35.46
			c-3.92-1.05-11.83,1.58-11.83,1.58L601.98,471.66z"/>
		<path class="st3" d="M358.01,471.66c7.91,26.98-5.92,64.65,15.45,82.91c2.59,2.22,9.78,7.43,18.32,12.31
			c6.96,3.97,10.44,5.95,13.33,6.07c9.8,0.42,13.11-10.55,27.39-21.91c8.98-7.14,17.73-10.64,35.23-17.65
			c15.33-6.14,29.55-10.03,29.39-15.68c0,0-0.02-0.57-3.73-8.11l-42.75,9.2c15.16-11.56,23.1-23.04,27.55-31.47
			c0,0,1.56-2.96,11.92-26.86l-10.14-2.9c-16.59,20.86-36.11,43.81-40.42,41.08c-6.52-4.13,22.45-66.13,22.46-66.13
			c-2.33-3.09-5.31-5.82-8.74-5.78c-15.87,0.18-24,59.47-31.12,58.56c0,0-3.65-0.47-6.96-54.21l-11.78-0.61l0,0
			c-0.39,46.23-10.39,65.13-10.39,65.13c-5.41,10.25-8.35,10.09-9.08,9.96c-6.74-1.24-3.85-32.74-14.09-35.46
			c-3.92-1.05-11.83,1.58-11.83,1.58L358.01,471.66z"/>
		<path class="st3" d="M114.04,471.66c7.91,26.98-5.92,64.65,15.45,82.91c2.59,2.22,9.78,7.43,18.32,12.31
			c6.96,3.97,10.44,5.95,13.33,6.07c9.8,0.42,13.11-10.55,27.39-21.91c8.98-7.14,17.73-10.64,35.23-17.65
			c15.33-6.14,29.55-10.03,29.39-15.68c0,0-0.02-0.57-3.73-8.11l-42.75,9.2c15.16-11.56,23.1-23.04,27.55-31.47
			c0,0,1.56-2.96,11.92-26.86l-10.14-2.9c-16.59,20.86-36.11,43.81-40.42,41.08c-6.52-4.13,22.45-66.13,22.46-66.13
			c-2.33-3.09-5.31-5.82-8.74-5.78c-15.87,0.18-24,59.47-31.12,58.56c0,0-3.65-0.47-6.96-54.21l-11.78-0.61l0,0
			c-0.39,46.23-10.39,65.13-10.39,65.13c-5.41,10.25-8.35,10.09-9.08,9.96c-6.74-1.24-3.85-32.74-14.09-35.46
			c-3.92-1.05-11.83,1.58-11.83,1.58L114.04,471.66z"/>
		<path class="st3" d="M-131.08,487.11c7.91,26.98-5.92,64.65,15.45,82.91c2.59,2.22,9.78,7.43,18.32,12.31
			c6.96,3.97,10.44,5.95,13.33,6.07c9.8,0.42,13.11-10.55,27.39-21.91c8.98-7.14,17.73-10.65,35.23-17.65
			c15.33-6.14,29.55-10.03,29.39-15.68c0,0-0.02-0.57-3.73-8.11l-42.75,9.2c15.16-11.56,23.1-23.04,27.55-31.47
			c0,0,1.56-2.96,11.92-26.86l-10.14-2.9c-16.59,20.86-36.11,43.81-40.42,41.08c-6.52-4.13,22.45-66.13,22.46-66.13
			c-2.33-3.09-5.31-5.82-8.74-5.78c-15.87,0.18-24,59.47-31.12,58.56c0,0-3.65-0.47-6.96-54.21l-11.78-0.61l0,0
			c-0.39,46.23-10.39,65.13-10.39,65.13c-5.41,10.25-8.35,10.09-9.08,9.96c-6.74-1.24-3.85-32.74-14.09-35.46
			c-3.92-1.05-11.83,1.58-11.83,1.58L-131.08,487.11z"/>
		<path class="st3" d="M76.41,283.98c-13.08,29.13-3.77,69.24-30.39,89.33c-3.23,2.44-12.03,8.2-22.29,13.64
			c-8.35,4.42-12.53,6.63-15.76,6.83c-10.94,0.68-12.85-11.01-26.88-22.87c-8.82-7.46-17.97-11.01-36.25-18.12
			c-16.02-6.23-31.18-10.07-30.1-16.14c0,0,0.11-0.61,5.43-8.79l45.95,8.88c-14.97-12.06-21.94-24.19-25.53-33.13
			c0,0-1.26-3.14-8.93-28.55l11.71-3.35c15.07,22,33.06,46.17,38.27,43.14c7.89-4.59-14.34-70.44-14.34-70.45
			c3.08-3.37,6.82-6.37,10.62-6.41c17.58-0.17,17.12,63.26,25.16,62.11c0,0,4.12-0.59,16.39-58.34l13.16-0.93l0,0
			c-6.95,49.6,1.12,69.65,1.12,69.65c4.36,10.88,7.65,10.63,8.48,10.47c7.67-1.49,9.51-35.22,21.3-38.38
			c4.52-1.22,12.87,1.43,12.87,1.41L76.41,283.98z"/>
		<path class="st3" d="M347.04,278.29c-13.08,29.13-3.77,69.24-30.39,89.33c-3.23,2.44-12.03,8.2-22.29,13.64
			c-8.35,4.42-12.53,6.63-15.76,6.83c-10.94,0.68-12.85-11.01-26.88-22.87c-8.82-7.46-17.97-11.01-36.25-18.12
			c-16.02-6.23-31.18-10.07-30.1-16.14c0,0,0.11-0.61,5.43-8.79l45.95,8.88c-14.97-12.06-21.94-24.19-25.53-33.13
			c0,0-1.26-3.14-8.93-28.55l11.71-3.35c15.07,22,33.06,46.17,38.27,43.14c7.89-4.59-14.34-70.44-14.34-70.45
			c3.08-3.37,6.82-6.37,10.62-6.41c17.58-0.17,17.12,63.26,25.16,62.11c0,0,4.12-0.59,16.39-58.34l13.16-0.93l0,0
			c-6.95,49.6,1.12,69.65,1.12,69.65c4.36,10.88,7.65,10.63,8.48,10.47c7.67-1.49,9.51-35.22,21.3-38.38
			c4.52-1.22,12.87,1.43,12.87,1.41L347.04,278.29z"/>
		<path class="st3" d="M617.68,272.61c-13.08,29.13-3.77,69.24-30.39,89.33c-3.23,2.44-12.03,8.2-22.29,13.64
			c-8.35,4.42-12.53,6.63-15.76,6.83c-10.94,0.68-12.85-11.01-26.88-22.87c-8.82-7.46-17.97-11.01-36.25-18.12
			c-16.02-6.23-31.18-10.07-30.1-16.14c0,0,0.11-0.61,5.43-8.79l45.95,8.88c-14.97-12.06-21.94-24.19-25.53-33.13
			c0,0-1.26-3.14-8.93-28.55l11.71-3.35c15.07,22,33.06,46.17,38.27,43.14c7.89-4.59-14.34-70.44-14.34-70.45
			c3.08-3.37,6.82-6.37,10.62-6.41c17.58-0.17,17.12,63.26,25.16,62.11c0,0,4.12-0.59,16.39-58.34l13.16-0.93l0,0
			c-6.95,49.6,1.12,69.65,1.12,69.65c4.36,10.88,7.65,10.63,8.48,10.47c7.67-1.49,9.51-35.22,21.3-38.38
			c4.52-1.22,12.87,1.43,12.87,1.41L617.68,272.61z"/>
		<path class="st3" d="M888.31,266.92c-13.08,29.13-3.77,69.24-30.39,89.33c-3.23,2.44-12.03,8.2-22.29,13.64
			c-8.35,4.42-12.53,6.63-15.76,6.83c-10.94,0.68-12.85-11.01-26.88-22.87c-8.82-7.46-17.97-11.01-36.25-18.12
			c-16.02-6.23-31.18-10.07-30.1-16.14c0,0,0.11-0.61,5.43-8.79l45.95,8.88c-14.97-12.06-21.94-24.19-25.53-33.13
			c0,0-1.26-3.14-8.93-28.55l11.71-3.35c15.07,22,33.06,46.17,38.27,43.14c7.89-4.59-14.34-70.44-14.34-70.45
			c3.08-3.37,6.82-6.37,10.62-6.41c17.58-0.17,17.12,63.26,25.16,62.11c0,0,4.12-0.59,16.39-58.34l13.16-0.93l0,0
			c-6.95,49.6,1.12,69.65,1.12,69.65c4.36,10.88,7.65,10.63,8.48,10.47c7.67-1.49,9.51-35.22,21.3-38.38
			c4.52-1.22,12.87,1.43,12.87,1.41L888.31,266.92z"/>
		<path class="st3" d="M1158.94,261.24c-13.08,29.13-3.77,69.24-30.39,89.33c-3.23,2.44-12.03,8.2-22.29,13.64
			c-8.35,4.42-12.53,6.63-15.76,6.83c-10.94,0.68-12.85-11.01-26.88-22.87c-8.82-7.46-17.97-11.01-36.25-18.12
			c-16.02-6.23-31.18-10.07-30.1-16.14c0,0,0.11-0.61,5.43-8.79l45.95,8.88c-14.97-12.06-21.94-24.19-25.53-33.13
			c0,0-1.26-3.14-8.93-28.55l11.71-3.35c15.07,22,33.06,46.17,38.27,43.14c7.89-4.59-14.34-70.44-14.34-70.45
			c3.08-3.37,6.82-6.37,10.62-6.41c17.58-0.17,17.12,63.26,25.16,62.11c0,0,4.12-0.59,16.39-58.34l13.16-0.93l0,0
			c-6.95,49.6,1.12,69.65,1.12,69.65c4.36,10.88,7.65,10.63,8.48,10.47c7.67-1.49,9.51-35.22,21.3-38.38
			c4.52-1.22,12.87,1.43,12.87,1.41L1158.94,261.24z"/>
		<path class="st3" d="M868.83,80.4c7.91,26.98-5.92,64.65,15.45,82.91c2.59,2.22,9.78,7.43,18.32,12.31
			c6.96,3.97,10.44,5.95,13.33,6.07c9.8,0.42,13.11-10.55,27.39-21.91c8.98-7.14,17.73-10.65,35.23-17.65
			c15.33-6.14,29.55-10.03,29.39-15.68c0,0-0.02-0.57-3.73-8.11l-42.75,9.2c15.16-11.56,23.1-23.04,27.55-31.47
			c0,0,1.56-2.96,11.92-26.86l-10.14-2.9c-16.59,20.86-36.11,43.81-40.42,41.08c-6.52-4.13,22.45-66.13,22.46-66.13
			c-2.33-3.09-5.31-5.82-8.74-5.78c-15.87,0.18-24,59.47-31.12,58.56c0,0-3.65-0.47-6.96-54.21l-11.78-0.61l0,0
			c-0.39,46.23-10.39,65.13-10.39,65.13c-5.41,10.25-8.35,10.09-9.08,9.96c-6.74-1.24-3.85-32.74-14.09-35.46
			c-3.92-1.05-11.83,1.58-11.83,1.58L868.83,80.4z"/>
		<path class="st3" d="M624.86,80.4c7.91,26.98-5.92,64.65,15.45,82.91c2.59,2.22,9.78,7.43,18.32,12.31
			c6.96,3.97,10.44,5.95,13.33,6.07c9.8,0.42,13.11-10.55,27.39-21.91c8.98-7.14,17.73-10.65,35.23-17.65
			c15.33-6.14,29.55-10.03,29.39-15.68c0,0-0.02-0.57-3.73-8.11l-42.75,9.2c15.16-11.56,23.1-23.04,27.55-31.47
			c0,0,1.56-2.96,11.92-26.86l-10.14-2.9c-16.59,20.86-36.11,43.81-40.42,41.08c-6.52-4.13,22.45-66.13,22.46-66.13
			c-2.33-3.09-5.31-5.82-8.74-5.78c-15.87,0.18-24,59.47-31.12,58.56c0,0-3.65-0.47-6.96-54.21l-11.78-0.61l0,0
			c-0.39,46.23-10.39,65.13-10.39,65.13c-5.41,10.25-8.35,10.09-9.08,9.96c-6.74-1.24-3.85-32.74-14.09-35.46
			c-3.92-1.05-11.83,1.58-11.83,1.58L624.86,80.4z"/>
		<path class="st3" d="M380.89,80.4c7.91,26.98-5.92,64.65,15.45,82.91c2.59,2.22,9.78,7.43,18.32,12.31
			c6.96,3.97,10.44,5.95,13.33,6.07c9.8,0.42,13.11-10.55,27.39-21.91c8.98-7.14,17.73-10.65,35.23-17.65
			c15.33-6.14,29.55-10.03,29.39-15.68c0,0-0.02-0.57-3.73-8.11l-42.75,9.2c15.16-11.56,23.1-23.04,27.55-31.47
			c0,0,1.56-2.96,11.92-26.86l-10.14-2.9c-16.59,20.86-36.11,43.81-40.42,41.08c-6.52-4.13,22.45-66.13,22.46-66.13
			c-2.33-3.09-5.31-5.82-8.74-5.78c-15.87,0.18-24,59.47-31.12,58.56c0,0-3.65-0.47-6.96-54.21l-11.78-0.61l0,0
			c-0.39,46.23-10.39,65.13-10.39,65.13c-5.41,10.25-8.35,10.09-9.08,9.96c-6.74-1.24-3.85-32.74-14.09-35.46
			c-3.92-1.05-11.83,1.58-11.83,1.58L380.89,80.4z"/>
		<path class="st3" d="M136.92,80.4c7.91,26.98-5.92,64.65,15.45,82.91c2.59,2.22,9.78,7.43,18.32,12.31
			c6.96,3.97,10.44,5.95,13.33,6.07c9.8,0.42,13.11-10.55,27.39-21.91c8.98-7.14,17.73-10.65,35.23-17.65
			c15.33-6.14,29.55-10.03,29.39-15.68c0,0-0.02-0.57-3.73-8.11l-42.75,9.2c15.16-11.56,23.1-23.04,27.55-31.47
			c0,0,1.56-2.96,11.92-26.86l-10.14-2.9c-16.59,20.86-36.11,43.81-40.42,41.08c-6.52-4.13,22.45-66.13,22.46-66.13
			c-2.33-3.09-5.31-5.82-8.74-5.78c-15.87,0.18-24,59.47-31.12,58.56c0,0-3.65-0.47-6.96-54.21l-11.78-0.61l0,0
			c-0.39,46.23-10.39,65.13-10.39,65.13c-5.41,10.25-8.35,10.09-9.08,9.96c-6.74-1.24-3.85-32.74-14.09-35.46
			c-3.92-1.05-11.83,1.58-11.83,1.58L136.92,80.4z"/>
		<path class="st3" d="M-108.2,95.86c7.91,26.98-5.92,64.65,15.45,82.91c2.59,2.22,9.78,7.43,18.32,12.31
			c6.96,3.97,10.44,5.95,13.33,6.07c9.8,0.42,13.11-10.55,27.39-21.91c8.98-7.14,17.73-10.65,35.23-17.65
			c15.33-6.14,29.55-10.03,29.39-15.68c0,0-0.02-0.57-3.73-8.11l-42.75,9.2c15.16-11.56,23.1-23.04,27.55-31.47
			c0,0,1.56-2.96,11.92-26.86l-10.14-2.9c-16.59,20.86-36.11,43.81-40.42,41.08C-33.17,118.72-4.2,56.72-4.2,56.72
			c-2.33-3.09-5.31-5.82-8.74-5.78c-15.87,0.18-24,59.47-31.12,58.56c0,0-3.65-0.47-6.96-54.21l-11.78-0.61l0,0
			c-0.39,46.23-10.39,65.13-10.39,65.13c-5.41,10.25-8.35,10.09-9.08,9.96c-6.74-1.24-3.85-32.74-14.09-35.46
			c-3.92-1.05-11.83,1.58-11.83,1.58L-108.2,95.86z"/>
		<path class="st3" d="M99.28-107.28C86.2-78.14,95.52-38.04,68.89-17.94C65.66-15.5,56.86-9.74,46.6-4.31
			c-8.35,4.42-12.53,6.63-15.76,6.83C19.91,3.21,17.99-8.49,3.97-20.35C-4.86-27.81-14-31.36-32.29-38.47
			c-16.02-6.23-31.18-10.07-30.1-16.14c0,0,0.11-0.61,5.43-8.79l45.95,8.88C-25.98-66.57-32.95-78.7-36.54-87.64
			c0,0-1.26-3.14-8.93-28.55l11.71-3.35c15.07,22,33.06,46.17,38.27,43.14c7.89-4.59-14.34-70.44-14.34-70.45
			c3.08-3.37,6.82-6.37,10.62-6.41C18.37-153.44,17.91-90,25.95-91.15c0,0,4.12-0.59,16.39-58.34l13.16-0.93l0,0
			c-6.95,49.6,1.12,69.65,1.12,69.65c4.36,10.88,7.65,10.63,8.48,10.47c7.67-1.49,9.51-35.22,21.3-38.38
			c4.52-1.22,12.87,1.43,12.87,1.41L99.28-107.28z"/>
	</g>
</g>
<g>
	<defs>
		<rect id="SVGID_00000130623254494543821200000001207661200079474104_" x="-1101.22" y="1370" width="1082.44" height="1350"/>
	</defs>
	<clipPath id="SVGID_00000072975619621641178970000010729996536113420426_">
		<use xlink:href="#SVGID_00000130623254494543821200000001207661200079474104_"  style="overflow:visible;"/>
	</clipPath>
	<g style="clip-path:url(#SVGID_00000072975619621641178970000010729996536113420426_);">
		<path class="st5" d="M-129.53,1281.2c12.3-5.66,1.64-50.78,14.71-55.78c1.62-0.57,3.38-0.59,5.01-0.06
			c1.17,0.5,2.25,1.17,3.21,2.01c1.18,1.01,2.18,2.21,2.98,3.54c8.88,13.84,17.77,27.69,26.67,41.55l33.3-22.6
			c3.05-0.56,6.02-0.56,7.15,1.25c4.49,7.06-24.27,33.57-20.02,40.58c1.96,3.23,9.2-0.74,26.69-3.62
			c16.77-2.74,39.28-3.85,40.55,1.04c0.31,1.4-1.07,2.95-1.94,3.82c-15.01,15.04-54.16,23.58-53.97,30.12
			c0.09,2.82,11.33,6.34,33.79,13.23c6.07,1.08,16.89,3.61,25.25,9.3c1.14,0.77,2.19,1.61,2.19,2.52c-0.11,3.49-16,4.49-25.51,5.05
			c-24.61,1.44-38.36-1.01-40.67,5.95c-0.29,1.3-0.32,2.65-0.1,3.96c1.26,16.21,10.97,24.83,15.33,43.63
			c1.29,5.84,0.92,7.24,0.24,7.84c-2.91,2.6-14.12-6.55-21.47-14.26c-10.41-10.98-13.46-19.52-20.9-20.78
			c-2.93-0.63-5.99-0.03-8.47,1.66c-1.51,1.24-2.67,2.87-3.36,4.7c-5.14,12.26-4.51,27.77-12.32,35.61c-1,1.03-5.95,5.75-10.13,3.92
			c-6.1-2.74-7.39-18.68-8.26-29.19c-0.9-11.33-0.27-21.12-4.74-25.27c-1.47-1.56-3.5-2.47-5.63-2.53
			c-1.39,0.15-2.69,0.77-3.68,1.76c-10.61,9.58-31.27,28.27-35.29,25.25c-2.21-1.73-0.23-10.21,1.49-14.8
			c1.72-4.59,3.56-6.87,10.38-15.11c10.6-12.71,13.51-15.8,12.61-19.12c-0.9-3.32-4.55-4.62-7.65-5.85
			c-9.07-3.5-14.75-0.42-31.3,0.32c-10.66,0.52-13.92-0.47-14.77-2.57s0.7-4.46,1.5-5.83c3.51-5.7,9.17-7.22,15.02-8.95
			c0,0,11.65-3.44,23.39-7.97c10.47-4.03,16.12-6.28,16.04-9.54c-0.09-3.65-7.19-4.94-18.2-12.16
			c-10.04-6.58-23.99-18.54-22.44-24.01c1.14-3.92,10.04-3.59,13.13-3.46C-146.74,1267.38-137.74,1285.01-129.53,1281.2z"/>
	</g>
</g>
<g>
	<defs>
		<rect id="SVGID_00000173157163389797767750000010291828714383828412_" y="1373.23" width="1080.08" height="1345.03"/>
	</defs>
	<clipPath id="SVGID_00000034091653181933317760000012068590708079453075_">
		<use xlink:href="#SVGID_00000173157163389797767750000010291828714383828412_"  style="overflow:visible;"/>
	</clipPath>
	<g style="clip-path:url(#SVGID_00000034091653181933317760000012068590708079453075_);">
		<path class="st7" d="M258.15,917.71c4.08-1.59,8.38-2.56,12.74-2.88c4.36-0.12,9.01,1.13,11.98,4.3c1.35,1.64,2.6,3.36,3.75,5.15
			c1.17,1.78,2.94,3.09,4.99,3.69c2.13,0.54,4.32-0.63,5.06-2.7c0.59-2.47-1.79-4.85-1.45-7.38c0.35-2.75,3.62-4.05,6.44-4.31
			c3.61-0.24,7.24,0.08,10.76,0.94c7.9,1.76,15.39,5.03,22.05,9.64c3.23,2.24,6.36,4.93,7.9,8.53c1.54,3.6,1.09,8.34-1.97,10.8
			c-0.41,0.37-0.92,0.6-1.47,0.67c-2,0.09-2.3-2.91-3.76-4.26c-1.88-1.75-5.07-0.12-6.44,2.11c-1.36,2.23-1.7,4.96-3.37,6.9
			c-0.38,0.51-0.93,0.86-1.56,0.99c-0.37,0.03-0.74-0.04-1.08-0.19c-2.65-1.02-3.86-4.23-6.53-5.34c-1.97-0.7-4.14-0.44-5.9,0.7
			c-1.71,1.13-3.28,2.46-4.69,3.95c-3.75,3.57-7.99,6.61-12.58,9.01c-1.35,0.88-2.96,1.27-4.57,1.12c-1.21-0.36-2.31-1.02-3.19-1.93
			c-12.28-10.9-21.54-24.78-26.86-40.32"/>
		<path class="st7" d="M258.84,920.03c6.86-2.3,16.5-5.33,22.37,0.81c2.75,2.87,4.11,6.84,7.85,8.73c3.06,1.56,7.31,1.07,9.26-2.02
			c0.91-1.53,1.14-3.38,0.62-5.08c-0.33-1.29-1.65-3.06-1.29-4.42c0.32-1.15,1.92-1.61,2.93-1.85c2.12-0.4,4.3-0.45,6.44-0.14
			c8.5,1.04,16.65,3.99,23.84,8.65c3.13,1.96,6.44,4.21,8.44,7.41c1.58,2.57,2.27,6.22,0.27,8.77c-0.17,0.22-0.44,0.4-0.59,0.62
			l-0.18,0.15c-0.32,0.17-0.19,0.24,0.4,0.21c-0.16-0.35-0.35-0.68-0.57-1c-0.66-1.63-1.9-2.96-3.49-3.73
			c-3.24-1.29-6.78,0.93-8.46,3.67c-1,1.62-1.42,3.53-2.28,5.15c-0.22,0.42-0.5,0.8-0.73,1.21c-0.41,0.76-0.08,0.22-0.28,0.15
			c-0.75-0.42-1.41-0.99-1.92-1.69c-2.57-2.79-5.34-4.8-9.38-3.86c-4.25,0.97-7.07,4.67-10.21,7.38c-3.06,2.65-6.43,4.92-10.03,6.77
			c-0.81,0.53-1.75,0.84-2.72,0.88c-1.13-0.13-2.14-1.29-2.92-2.01c-1.57-1.44-3.1-2.93-4.58-4.45c-3.06-3.17-5.89-6.56-8.47-10.14
			c-5.27-7.35-9.44-15.41-12.4-23.95c-1-2.91-5.66-1.66-4.65,1.29c2.83,8.27,6.75,16.13,11.65,23.36c2.43,3.54,5.07,6.92,7.92,10.13
			c2.77,3.3,5.86,6.32,9.23,9.01c4.14,3.09,8.39,0.8,12.27-1.53c3.89-2.36,7.51-5.16,10.77-8.33c1.33-1.57,3.02-2.79,4.92-3.58
			c2.06-0.6,3.27,0.45,4.6,1.89c2.7,2.91,6.69,5.79,9.94,1.76c1.12-1.6,1.99-3.36,2.57-5.23c0.51-1.29,1.4-3.32,3.05-3.42
			c0.9,0,1.39,1.83,1.94,2.68c0.9,1.61,2.7,2.5,4.53,2.23c3.77-0.72,5.75-5.15,6.04-8.61c0.17-4.14-1.4-8.17-4.33-11.11
			c-3.03-3.1-6.54-5.71-10.37-7.72c-3.94-2.23-8.11-4.05-12.42-5.43c-4.47-1.51-9.13-2.38-13.84-2.57
			c-3.76-0.08-8.38,0.45-10.72,3.86c-1.22,1.87-1.44,4.22-0.59,6.28c0.37,1.08,1.79,3.21,0.57,4.12c-3.32,2.47-7.07-5.24-8.59-7.07
			c-6.99-8.42-18.82-5.83-27.77-2.83c-2.93,0.98-1.67,5.64,1.29,4.65L258.84,920.03z"/>
		<path class="st7" d="M346.97,934.98c2.01-4,5.7-6.88,10.07-7.85c0.63-0.19,1.3-0.19,1.93,0c1.18,0.48,1.54,1.91,1.97,3.1
			c1.61,4.48,5.82,7.4,9.67,10.19c3.85,2.79,7.84,6.24,8.57,10.94c0.04,1.39,0.32,2.77,0.82,4.07c0.54,0.84,1.24,1.57,2.07,2.14
			c7.26,5.75,14.55,11.44,21.88,17.07"/>
		<path class="st7" d="M349.09,936.21c1-2.03,2.53-3.76,4.43-5.01c0.88-0.57,1.83-1.03,2.82-1.36c0.49-0.21,1.01-0.34,1.54-0.4
			c0.14,0,0.23,0,0.09-0.13c0.19,0.12,0.27,0.48,0.35,0.66c0.82,2.21,1.97,4.28,3.41,6.14c1.7,1.86,3.6,3.53,5.68,4.97
			c3.54,2.57,8.1,5.44,9.28,10c0.7,2.7,0.41,5.15,2.57,7.26c2.18,1.95,4.47,3.78,6.86,5.47c5.55,4.35,11.13,8.67,16.73,12.95
			c1.15,0.67,2.62,0.28,3.3-0.86c0.64-1.15,0.26-2.61-0.86-3.3c-5.35-4.1-10.69-8.23-16-12.4l-3.71-2.93
			c-1.06-0.82-2.81-1.78-3.42-3.01c-0.35-1.13-0.55-2.31-0.58-3.5c-0.25-1.39-0.73-2.74-1.42-3.98c-2.57-4.75-7.3-7.47-11.38-10.71
			c-2.11-1.49-3.87-3.44-5.15-5.69c-1.13-2.28-1.51-5.05-4.45-5.68s-6.26,1.07-8.48,2.57c-2.43,1.63-4.42,3.84-5.78,6.44
			c-1.42,2.75,2.75,5.15,4.17,2.43V936.21z"/>
		<path class="st7" d="M404.89,975.14c5.31,0.79,10.72-0.51,15.09-3.63c5.32-3.86,8.44-9.9,12.5-15.03
			c4.05-5.14,10.12-9.76,16.57-8.61c6.72,1.2,10.7,7.9,14.7,13.43"/>
		<path class="st7" d="M404.21,977.47c5.22,0.8,10.55-0.16,15.16-2.73c4.47-2.57,7.72-6.6,10.58-10.72
			c4.65-6.54,12.46-18.02,21.88-12.52c4.25,2.48,6.93,7.13,9.73,11.02c0.73,1.08,2.15,1.45,3.31,0.86c1.14-0.69,1.52-2.15,0.86-3.31
			c-2.7-3.75-5.24-7.85-8.83-10.84c-3.72-3.34-8.84-4.63-13.7-3.46c-10.9,2.79-14.79,14.04-21.88,21.34
			c-4.07,4.31-9.95,6.42-15.83,5.7c-1.28-0.27-2.55,0.45-2.97,1.69C402.17,975.79,402.93,977.11,404.21,977.47L404.21,977.47z"/>
		<path class="st7" d="M465.77,962.32l60.02,28.95c5.99,2.9,12.2,5.96,16.27,11.22c6.53,8.43,5.96,20.27,4.05,30.78"/>
		<path class="st7" d="M464.56,964.41l45.3,21.88c7.03,3.4,14.26,6.54,21.07,10.3c5.91,3.31,10.76,7.72,12.76,14.35
			c2.11,7,1.38,14.58,0.12,21.68c-0.54,3.04,4.11,4.34,4.65,1.29c1.29-6.89,1.93-13.95,0.7-20.89c-1.24-7.01-5.15-13.27-10.9-17.47
			c-6.23-4.65-13.8-7.59-20.75-10.95l-23.66-11.34L467,960.38c-2.78-1.35-5.24,2.81-2.43,4.16V964.41z"/>
		<path class="st7" d="M547,1034.78c34.36,26.19,51.66,68.45,67.44,108.65"/>
		<path class="st7" d="M545.77,1036.87c26.62,20.38,42.81,50.86,55.75,81.09c3.69,8.64,7.16,17.38,10.58,26.12
			c0.39,1.26,1.69,2,2.97,1.69c1.28-0.36,2.03-1.69,1.69-2.97c-6.29-16.01-12.68-32.01-20.31-47.45
			c-7.63-15.43-16.41-30-27.51-42.99c-6.21-7.26-13.16-13.85-20.74-19.66c-1.15-0.66-2.62-0.27-3.3,0.88
			C544.27,1034.72,544.65,1036.18,545.77,1036.87L545.77,1036.87z"/>
		<path class="st7" d="M616.21,1144.45l29.85,74.81c0.29,0.53,0.36,1.15,0.19,1.72c-0.27,0.45-0.68,0.79-1.17,0.97
			c-7.94,3.84-16.29,6.77-24.89,8.74c-2.55,0.8-5.26,0.89-7.85,0.26c-8.07-2.68-8.39-16.44-16.73-18.19
			c-5.69-1.2-10.36,4.3-13.57,9.15c-1.97,2.97-3.99,6.06-4.56,9.58c-0.57,3.51,0.72,7.61,3.86,9.18"/>
		<path class="st7" d="M613.88,1145.06l16.27,40.68l8.12,20.51l4.03,10.09l0.95,2.38c0.11,0.41,0.27,0.81,0.48,1.18l0.15,0.42
			l0.32-0.64c-1.61,0.63-3.19,1.36-4.71,2.18c-6.23,2.69-12.7,4.81-19.31,6.35c-2.68,0.62-5.73,1.36-8.24-0.13
			c-1.43-0.96-2.61-2.24-3.45-3.73c-2.2-3.5-3.68-7.47-6.5-10.54c-3.2-3.6-8.42-4.6-12.73-2.45c-2.73,1.47-5.08,3.54-6.89,6.05
			c-2.16,2.65-4.02,5.53-5.53,8.6c-2.57,5.56-2.78,13.41,3.41,16.73c2.74,1.47,5.15-2.7,2.43-4.17c-5.3-2.83-2.05-9.9,0.27-13.55
			c2.32-3.66,6.05-10.01,11.13-10.01c3.75,0,5.78,3.73,7.35,6.6c1.96,3.6,3.75,7.49,7.12,10.01c4.85,3.62,11.08,1.8,16.4,0.39
			c6.59-1.77,13.02-4.1,19.22-6.94c1.32-0.45,2.55-1.14,3.62-2.03c1.05-1.21,1.3-2.93,0.63-4.39c-1.18-3.31-2.57-6.54-3.86-9.81
			l-7.98-19.93l-18.02-45.13c-0.39-1.26-1.69-2-2.97-1.69c-1.28,0.36-2.03,1.69-1.69,2.97H613.88z"/>
		<path class="st7" d="M581.07,1241.07c4.34,1.29,6.01,6.44,6.73,10.92c0.72,4.48,1.49,9.59,5.34,11.97
			c1.08-3.58,2.24-7.29,4.78-10.03c2.54-2.74,6.91-4.16,10.1-2.21c-6.43,15.83-13.89,31.22-22.33,46.07
			c-2.1,3.69-4.96,7.79-9.19,7.93c-1.52,0.06-3.13-0.41-4.51,0.22c-3.22,1.51-1.85,7.08-4.72,9.18c-3.21,2.33-7.07-1.94-8.73-5.55
			c-3.45,1.88-1.29,7.29-2.68,10.97c-1.09,2.91-4.33,4.39-7.24,3.3s-4.39-4.33-3.3-7.24c0.51-1.36,1.51-2.46,2.82-3.1
			c1.07-0.5,2.38-0.76,2.97-1.78c0.59-1.02,0-2.66-0.7-3.86c-11.81-19.96-26.75-37.89-44.25-53.11c-2.86-2.48-5.77-7.26-2.64-9.37"
			/>
		<path class="st7" d="M580.43,1243.4c3.98,1.29,4.66,6.87,5.23,10.3c0.77,4.72,2.05,9.51,6.27,12.29c1.18,0.66,2.67,0.25,3.33-0.93
			c0.09-0.17,0.17-0.34,0.22-0.53c0.95-3.17,1.93-6.67,4.31-9.1c1.76-1.8,4.66-3.01,7.03-1.69l-1.12-2.73
			c-5.05,12.43-10.76,24.58-17.08,36.42c-1.62,3.05-3.28,6.09-5.01,9.09c-1.07,2.2-2.59,4.14-4.47,5.72
			c-2.3,1.66-4.76,0.44-7.32,1.15c-2.18,0.74-3.8,2.58-4.29,4.83c-0.37,1.29-0.46,4.6-2,5.06c-0.84,0.26-1.81-0.7-2.36-1.22
			c-1.07-1.09-1.94-2.37-2.57-3.76c-0.68-1.14-2.16-1.53-3.31-0.86c-3.26,2-3.28,5.57-3.33,9.01c0.16,1.33-0.09,2.67-0.71,3.86
			c-0.85,1-2.15,1.49-3.45,1.29c-2.42-0.35-2.88-3.48-1.53-5.15c0.98-1.29,2.82-1.29,3.98-2.34c1.58-1.58,1.97-3.99,0.95-5.99
			c-0.88-1.82-1.89-3.58-3.02-5.25c-1.28-2.06-2.59-4.1-3.94-6.11c-2.38-3.58-4.87-7.08-7.47-10.49c-5.41-7.17-11.26-14-17.51-20.45
			c-3.37-3.48-6.87-6.85-10.48-10.1c-1.69-1.33-3.25-2.81-4.67-4.42c-0.4-0.5-2.29-3.08-1.38-3.77c1.11-0.7,1.49-2.14,0.86-3.3
			c-0.67-1.15-2.14-1.53-3.29-0.86c0,0,0,0,0,0c-3.62,2.75-2.79,7.04-0.36,10.36c1.36,1.71,2.9,3.27,4.6,4.65
			c1.81,1.62,3.6,3.26,5.35,4.94c7.03,6.7,13.6,13.87,19.67,21.46c6.05,7.57,11.57,15.55,16.5,23.89c0.38,0.48,0.67,1.02,0.85,1.61
			c0,0.55,0.24,0-0.12,0.39c-0.55,0.58-1.81,0.71-2.51,1.18c-1.54,1.06-2.67,2.63-3.19,4.43c-1.18,3.62,0.38,7.57,3.72,9.41
			c3.96,1.85,8.68,0.39,10.9-3.37c0.86-1.95,1.24-4.09,1.11-6.22c0-1.29-0.36-3.62,0.94-4.4l-3.31-0.88
			c2.16,4.52,8.55,10.81,13.25,5.34c1.56-1.83,1.79-4.18,2.43-6.44c0.17-0.62,0.35-1.29,0.97-1.62c0.61-0.14,1.25-0.14,1.87,0
			c0.95,0.08,1.9,0.06,2.84-0.08c6.19-1,9.35-7.81,12.06-12.7c3.6-6.49,7-13.08,10.22-19.77c3.67-7.6,7.11-15.33,10.3-23.17
			c0.29-1.06-0.16-2.17-1.11-2.73c-3.86-2.18-8.5-1.16-11.87,1.53c-3.69,2.97-5.24,7.72-6.56,12.15l3.54-1.44
			c-3.86-2.57-3.69-8.43-4.6-12.45c-1.02-4.6-3.3-9.13-8.05-10.68c-2.96-0.97-4.22,3.69-1.29,4.66L580.43,1243.4z"/>
		<path class="st7" d="M504.21,1245.56c-1.88-4.75-5.19-8.79-9.46-11.58c-0.58-0.46-1.3-0.71-2.05-0.7
			c-1.61,0.19-2.03,2.28-2.38,3.86c-0.35,1.58-1.96,3.44-3.24,2.45l-10.43-21.6c-0.56-1.35-1.35-2.59-2.33-3.67
			c-3.04-2.97-8.39-2.05-11.52,0.84c-3.13,2.88-4.61,7.08-6,11.1c-0.51,1.91-1.38,3.71-2.57,5.29c-1.21,1.22-2.6,2.25-4.11,3.08
			c-7.96,5.06-14.4,12.18-18.65,20.6c-2.91-2.04-4.68-5.33-4.78-8.88c-3.37,0.26-5.89,3.21-5.63,6.59c0.02,0.26,0.06,0.51,0.11,0.76
			c0.54,2.06,1.98,4.74,0.18,5.87c-0.71,0.35-1.51,0.45-2.28,0.28l-10.13-0.99c-2.75-0.27-6.44-2.66-4.69-4.76
			c-3.41,1.63-5.95,4.93-9.59,5.97c-3.64,1.04-8.55-2.92-6.22-5.91c0.86-1.12,2.41-1.52,3.39-2.57c2.27-2.38-0.99-7.08-4.02-5.81
			c4.49-8.99,6.48-19.02,5.77-29.04c-3.99-0.31-8,0.06-11.87,1.09"/>
		<path class="st7" d="M506.58,1244.92c-1.51-3.85-3.86-7.31-6.87-10.13c-2.69-2.47-7.62-6.23-10.43-1.76
			c-0.7,1.3-1.19,2.7-1.45,4.14l-0.13,0.22c-0.42,0.45,0,0.62,1.29,0.46c-0.22-0.59-0.49-1.16-0.82-1.7l-1.92-3.98l-6.41-13.07
			c-1.84-3.86-3.64-7.84-8.23-8.75c-3.81-0.65-7.69,0.52-10.52,3.15c-3.1,2.81-4.75,6.86-6.1,10.71c-0.49,1.87-1.24,3.66-2.23,5.32
			c-1.18,1.63-3.12,2.57-4.76,3.63c-7.91,5.25-14.34,12.46-18.65,20.92l3.3-0.86c-2.16-1.61-3.47-4.11-3.57-6.8
			c-0.02-1.33-1.09-2.4-2.42-2.42c-2.91,0.17-5.53,1.8-6.96,4.34c-1.62,2.83-1.04,5.39-0.18,8.33c0.14,0.39,0.24,0.81,0.28,1.22
			c0-0.19,0.48-0.23,0.19-0.32c-0.43-0.06-0.86-0.09-1.29-0.09c-2.01-0.18-4.02-0.39-6.02-0.59c-1.62-0.02-3.22-0.24-4.79-0.66
			c-0.52-0.25-1.02-0.52-1.51-0.82l-0.31-0.35c0.42-0.15-0.54,1.35,0.21,0.33c1.54-2.11-1.36-4.29-3.31-3.31
			c-1.6,0.88-3.11,1.9-4.52,3.06c-1.31,1.18-2.84,2.09-4.51,2.66c-1.07,0.2-2.18-0.11-3-0.82c-0.77-0.63-0.97-0.97-0.31-1.6
			c0.66-0.63,1.39-0.84,2-1.29c2.11-1.45,2.89-4.2,1.85-6.54c-1.12-2.9-4.25-5.08-7.38-3.99l2.72,3.55
			c4.67-9.37,6.77-19.81,6.09-30.26c-0.03-1.32-1.09-2.37-2.41-2.41c-4.18-0.33-8.39,0-12.46,0.99c-3.02,0.72-1.75,5.38,1.29,4.65
			c3.66-0.87,7.44-1.14,11.19-0.81l-2.42-2.42c0.69,9.59-1.19,19.19-5.43,27.82c-0.85,1.74,0.59,4.3,2.73,3.55
			c0.77-0.27,1.42,0.33,1.63,1.11c0.32,1.13-1.29,1.49-2.01,2.05c-2.57,1.6-3.36,4.98-1.76,7.55c0.22,0.35,0.48,0.68,0.77,0.97
			c2.18,2.42,5.56,3.37,8.68,2.43c3.71-1.29,6.27-4.32,9.71-6.06l-3.31-3.31c-2.47,3.37,1.09,6.64,4.08,7.72
			c1.9,0.57,3.87,0.88,5.86,0.91c2.39,0.24,4.8,0.54,7.21,0.71c1.86,0.27,3.71-0.56,4.74-2.14c0.73-1.6,0.76-3.42,0.09-5.05
			c-0.42-1.38-1.06-2.57-0.45-4.03c0.5-1.26,1.65-2.15,3-2.32l-2.43-2.37c0.16,4.39,2.37,8.44,5.96,10.97
			c1.16,0.66,2.63,0.27,3.31-0.88c3.42-6.8,8.33-12.75,14.37-17.39c3.04-2.3,6.86-3.86,9.01-7.17c2.15-3.31,2.72-7.22,4.43-10.65
			c1.48-2.97,3.72-5.81,7.23-6.29c4.05-0.57,5.32,2.86,6.81,5.95l6.04,12.51l2.74,5.68c0.97,2.01,2.18,3.73,4.72,3.03
			c1.91-0.71,3.33-2.35,3.76-4.34c0.18-0.67,0.42-1.39,0.55-2.06c0.21-1.08,0.17,0.14,0-0.06c-0.23,0.16-0.1,0.29,0.39,0.39
			l0.84,0.57c3.33,2.42,5.93,5.73,7.5,9.54c0.39,1.25,1.68,1.99,2.96,1.69c1.29-0.36,2.04-1.69,1.69-2.97H506.58z"/>
		<path class="st7" d="M387.77,1217.6l-13.55,0.18c-1.4-0.1-2.8,0.14-4.08,0.7c-1.5,1.05-2.67,2.5-3.37,4.18
			c-2.77,5.11-6.16,9.87-10.09,14.16c-1.01,1.25-2.3,2.25-3.76,2.93c-2.57,0.98-5.46-0.06-8.03-1.11c-1.09-0.32-2.05-0.96-2.75-1.85
			c-0.8-1.29-0.37-2.95,0-4.4l10.3-33.83c-3.65-0.22-7.31-0.02-10.92,0.59c-0.88,0.09-1.73,0.39-2.47,0.86
			c-1.61,1.18-1.66,3.5-1.84,5.5c-0.18,2-1.13,4.4-3.13,4.51c-2,0.1-3.32-2.51-3.1-4.62c0.22-2.11,1.29-4.12,1-6.23
			c-1.9-0.38-3.82,0.56-4.69,2.29c-0.8,1.71-1.21,3.57-1.18,5.46l-1.02,15.6"/>
		<path class="st7" d="M387.77,1215.25l-9.55,0.12c-2.86,0-6.15-0.35-8.83,0.88s-3.86,3.86-5.25,6.24
			c-1.43,2.53-3.01,4.97-4.74,7.31c-1.65,2.35-3.51,4.54-5.56,6.54c-2.3,2.15-4.85,1.4-7.53,0.36c-0.9-0.33-2.19-0.6-2.21-1.72
			c0.18-1.49,0.57-2.95,1.16-4.33l2.9-9.54l6.6-21.88c0.34-1.31-0.44-2.64-1.75-2.98c-0.19-0.05-0.39-0.08-0.58-0.08
			c-3.66-0.19-7.33,0.01-10.95,0.59c-3.35,0.53-5.74,2.25-6.35,5.73c-0.11,1.3-0.28,2.58-0.51,3.86c-0.07,0.48-0.27,0.93-0.59,1.29
			c-0.27,0.19,0,0.09-0.18,0c-0.73-0.62-0.46-2.14-0.3-2.88c0.54-1.77,0.82-3.61,0.85-5.46c-0.02-1.08-0.74-2.01-1.78-2.32
			c-2.37-0.55-4.85,0.27-6.44,2.12c-1.48,1.91-2.3,4.24-2.34,6.65c-0.5,5.61-0.71,11.25-1.06,16.88c-0.19,3.1,4.63,3.09,4.83,0
			l0.79-12.78c0.1-1.58-0.19-9.01,2.99-8.23l-1.76-2.33c0.12,2.14-0.84,4.12-1,6.23c-0.12,1.52,0.23,3.05,1,4.36
			c1.31,2.42,4.34,3.31,6.76,2c0.61-0.33,1.14-0.78,1.56-1.33c0.97-1.32,1.55-2.88,1.69-4.51c0.13-1.09,0-3.01,0.79-3.86
			c0.54-0.54,1.7-0.57,2.41-0.68c0.99-0.15,1.98-0.26,2.99-0.33c2.22-0.17,4.45-0.2,6.68-0.08l-2.32-3.05l-6.33,20.92l-3.17,10.45
			c-0.89,2.91-2.3,6.35-0.27,9.1c1.69,2.32,5.48,3.46,8.19,3.94c3.17,0.6,6.44-0.43,8.69-2.74c4.46-4.44,8.24-9.52,11.2-15.07
			c0.56-1.42,1.41-2.71,2.48-3.8c1.29-0.93,3.33-0.63,4.83-0.64l12.01-0.15c3.1,0,3.12-4.87,0-4.83L387.77,1215.25z"/>
		<path class="st7" d="M325.3,1223.72h-14.51c-1.11,0.1-2.23-0.1-3.24-0.57c-2.96-1.7-1.49-6.18,0.1-9.19
			c6.16-11.69,8.92-24.86,7.97-38.04c5.29-2.74,10.13,5.15,16.03,6.02c2.16,0.32,4.42-0.36,6.51,0.22c2.1,0.58,3.75,3.53,2.03,4.89
			c4.22,1.52,10.13,0.51,11.39-3.78c0.62-2.09,0-4.3,0-6.44c0-2.14,1.16-4.74,3.32-4.84c3.63-0.17,3.58,5.41,5.39,8.53
			c0.89,1.32,2.04,2.44,3.4,3.28c10.1,7.18,21.2,12.82,32.95,16.73c1.88,0.79,3.94,1.05,5.96,0.77c1.98-0.46,3.77-2.37,3.37-4.35
			c-0.58-2.82-4.89-4.07-4.7-6.94c0.08-1.22,1.03-2.21,1.49-3.36c2.1-5.15-5.68-9.32-5.9-14.84l17.16,14.65
			c1.59-7.1,4.66-13.78,9.01-19.62c-4.85-3.13-8.49-7.82-10.3-13.3c3.59-3.17,9.06-2.83,12.23,0.76c0.11,0.13,0.22,0.26,0.32,0.39"
			/>
		<path class="st7" d="M325.3,1221.3h-9.46c-1.69,0-3.36,0-5.05,0c-0.73,0-1.91,0.17-2.39-0.55c-0.75-1.08,0.36-3.5,0.79-4.47
			c1.06-2.38,2.34-4.66,3.35-7.07c4.41-10.51,6.29-21.91,5.5-33.29l-1.2,2.07c1.48-0.7,3.09,0.26,4.34,1.02
			c1.83,1.12,3.5,2.47,5.37,3.54c2.08,1.25,4.46,1.91,6.89,1.89c1.29,0,3.08-0.48,4.25,0.1c0.34,0.17,0.61,0.46,0.77,0.81
			c0.14,0.37,0.18-0.13,0,0c-0.94,0.97-0.91,2.52,0.07,3.46c0.28,0.27,0.63,0.47,1,0.58c3.58,1.3,7.56,0.96,10.86-0.93
			c1.61-1.02,2.82-2.57,3.42-4.38c0.85-2.57-0.15-5.07,0.1-7.72c0.03-0.69,0.29-1.34,0.75-1.85c0.3-0.26,0.37-0.21,0.51-0.09
			c0.94,0.81,1.21,2.78,1.58,3.93c0.52,1.96,1.5,3.78,2.87,5.28c1.86,1.69,3.89,3.18,6.05,4.47c8.62,5.7,17.9,10.33,27.64,13.79
			c4.31,1.54,9.99,3.6,13.58-0.51c1.5-1.63,1.93-3.99,1.08-6.04c-0.82-1.53-1.95-2.87-3.32-3.94c-0.3-0.28-0.91-0.77-0.97-1.15
			c-0.12-0.73,1.15-2.25,1.42-2.99c0.65-1.91,0.53-3.99-0.35-5.81c-0.87-1.75-1.92-3.4-3.14-4.92c-1.19-1.35-1.99-3-2.32-4.76
			l-4.12,1.71l17.15,14.65c0.99,0.93,2.54,0.89,3.48-0.1c0.26-0.28,0.46-0.61,0.57-0.97c1.58-6.89,4.56-13.37,8.75-19.05
			c0.65-1.15,0.26-2.61-0.88-3.3c-4.28-2.82-7.5-7-9.14-11.86l-0.62,2.34c2.61-2.21,6.52-1.91,8.77,0.67
			c0.7,1.11,2.14,1.48,3.3,0.86c1.15-0.67,1.54-2.14,0.88-3.3c-3.69-4.93-10.67-5.94-15.6-2.26c-0.26,0.19-0.51,0.4-0.75,0.61
			c-0.63,0.61-0.86,1.51-0.62,2.34c2,6.06,5.99,11.26,11.31,14.76l-0.86-3.31c-4.42,6.03-7.57,12.91-9.24,20.2l4.04-1.06
			l-17.16-14.67c-1.45-1.29-4.27-0.54-4.12,1.71c0.24,3.6,2.37,6.27,4.36,9.11c0.92,1.07,1.57,2.34,1.89,3.72
			c0.14,1.57-1.43,2.97-1.74,4.51c-0.32,1.79,0.25,3.63,1.52,4.93c0.8,0.94,2.68,1.92,3.02,3.13c0.42,1.47-1.83,1.89-2.82,1.81
			c-2.39-0.35-4.72-1.04-6.93-2.05c-9.19-3.36-17.94-7.81-26.07-13.26c-1.74-1.17-4-2.36-5.15-4.13c-0.75-1.4-1.31-2.9-1.66-4.45
			c-1.11-3.23-3.46-6.44-7.36-5.26c-2.12,0.83-3.67,2.69-4.08,4.93c-0.26,1.17-0.31,2.38-0.17,3.57c0.28,1.43,0.28,2.91,0,4.34
			c-1.07,3.24-5.86,2.97-8.42,2.1l1.07,4.04c2.57-2.46,1.29-6.44-1.47-8.19c-3.19-2.06-7.07-0.12-10.39-1.62
			c-5.15-2.37-9.42-8.08-15.65-5.15c-0.75,0.42-1.21,1.22-1.2,2.09c0.69,9.68-0.65,19.4-3.95,28.52c-0.81,2.22-1.74,4.39-2.78,6.51
			c-1.02,1.8-1.88,3.69-2.57,5.64c-1.08,3.64-0.37,8.08,3.86,9.23c2.57,0.7,5.48,0.3,8.07,0.28h9.46c1.33-0.1,2.33-1.26,2.24-2.59
			c-0.09-1.2-1.04-2.15-2.24-2.24H325.3z"/>
		<path class="st7" d="M426.37,1154.49c1.03-4.05,3.23-7.72,4.81-11.58c1.58-3.86,2.57-8.28,1.06-12.16
			c-1.91-4.88-7.07-7.5-11.82-9.72c-0.57-0.35-1.25-0.49-1.92-0.4c-0.72,0.3-1.29,0.87-1.57,1.6c-1.61,2.99-2.79,6.18-3.51,9.5
			c-6.58-3.92-12.96-8.17-19.12-12.74h9.62c0.73,0.06,1.46-0.07,2.12-0.37c0.59-0.43,1.04-1.03,1.29-1.72
			c1.47-2.95,1.68-6.38,0.58-9.49c-1.17-3.12-4.02-5.31-7.34-5.62c-1.1,0.05-2.2,0.01-3.3-0.12c-2.08-0.53-3.47-2.5-3.27-4.65"/>
		<path class="st7" d="M428.69,1155.12c1.44-5.34,4.79-9.96,6.1-15.36c1.31-5.39,0.44-10.63-3.44-14.62
			c-1.63-1.61-3.49-2.98-5.51-4.05c-1.89-1.07-4.35-2.69-6.53-2.84c-3.02-0.22-4.38,2.45-5.47,4.81c-1.2,2.58-2.12,5.28-2.75,8.06
			l3.55-1.44c-6.58-3.92-12.96-8.18-19.12-12.74l-1.22,4.51h7.04c2.1,0,4.47,0.31,6.28-0.95c1.47-1.29,2.48-3.03,2.87-4.94
			c0.6-2.09,0.74-4.29,0.41-6.44c-0.7-5.82-5.81-10.09-11.66-9.73c-1.63,0-2.88-0.51-2.75-2.36c0.19-3.1-4.63-3.09-4.83,0
			c-0.18,3.22,1.92,6.12,5.03,6.96c1.69,0.42,3.45-0.09,5.15,0.45c1.25,0.44,2.33,1.26,3.1,2.34c1.74,2.75,1.86,6.23,0.31,9.1
			c-0.35,0.72-0.51,0.68-1.29,0.71c-1.07,0-2.14,0-3.21,0h-6.44c-2.57,0-3.04,3.15-1.22,4.49c6.16,4.57,12.54,8.82,19.13,12.74
			c1.17,0.66,2.65,0.26,3.32-0.91c0.09-0.17,0.17-0.34,0.22-0.53c0.47-2.21,1.15-4.36,2.03-6.44c0.22-0.51,0.46-1.03,0.72-1.53
			c0.26-0.5,0.75-1.04,0.75-1.4l0.19-0.26c-0.67,0.09-0.8,0.18-0.42,0.27s0.94,0.41,1.29,0.55c3.1,1.48,6.51,3.15,8.6,5.97
			c2.57,3.48,1.83,7.85,0.42,11.58c-1.58,4.27-4.04,8.16-5.24,12.6c-0.81,3,3.86,4.29,4.65,1.29L428.69,1155.12z"/>
		<path class="st7" d="M394.37,1097c0.24-3.86-0.86-7.72-1.45-11.49c-0.59-3.77-0.59-8.03,1.61-11.22c1.29-1.8,3.1-3.15,4.03-5.15
			c1.06-2.23,0.75-4.83,0.41-7.26c-0.88-6.44-1.85-13.16-5.51-18.54c-1.05-1.69-2.58-3.03-4.39-3.86c-1.62-0.51-3.33-0.7-5.02-0.57
			l-12.56,0.19c-0.93,0.12-1.88-0.06-2.7-0.51c-1.51-1.04-1.65-3.75-3.45-4.03"/>
		<path class="st7" d="M396.79,1097c0.28-6.27-3.09-12.73-1.39-18.92c0.76-2.75,3.05-4.36,4.61-6.63c1.79-2.57,1.85-5.75,1.48-8.75
			c-0.76-6.05-1.61-12.24-4.34-17.75c-1.2-2.75-3.12-5.12-5.56-6.87c-2.81-1.84-6.22-1.61-9.42-1.56l-5.65,0.09
			c-1.91,0.13-3.83,0.15-5.74,0.08c-1.04-0.12-1.17-1.06-1.7-1.93c-0.63-1.25-1.76-2.18-3.1-2.57c-3.01-0.76-4.3,3.86-1.29,4.66
			c0.28,0,0.72,1.29,0.9,1.58c0.54,1.02,1.36,1.86,2.37,2.42c1.22,0.53,2.54,0.74,3.86,0.63l5.34-0.09c3.17,0,6.62-0.5,9.74,0
			c2.66,0.39,4.25,2.57,5.48,4.81c2.75,4.89,3.55,10.74,4.26,16.23c0.37,2.82,0.48,5.24-1.51,7.47c-1.99,1.92-3.48,4.28-4.36,6.9
			c-1.88,6.81,1.52,13.4,1.21,20.21c-0.14,3.1,4.69,3.09,4.83,0L396.79,1097z"/>
		<path class="st7" d="M364.1,1033.87c-5.98,0.71-11.77-2.37-14.53-7.72c-0.39-1.11-1.01-2.12-1.83-2.96
			c-2.03-1.66-5.06-0.26-7.66-0.55c-2.7-0.5-4.94-2.39-5.9-4.97c-0.9-2.54-1.34-5.22-1.29-7.92c-0.1-0.65-0.01-1.31,0.26-1.91
			c0.42-0.77,1.36-1.09,2.05-1.66c1.71-1.45,1.44-4.2,0.51-6.23c-0.93-2.03-2.34-3.94-2.57-6.18c-0.26-2.9,1.63-5.72,1.12-8.57
			c-0.39-2.1-1.97-3.73-3.17-5.48c-1.2-1.75-2.03-4.18-0.85-5.96c1.18-1.78,4.07-1.88,6.29-2.57c3.73-1.07,6.44-4.48,7.63-8.16
			c1.03-3.77,1.44-7.68,1.21-11.58"/>
		<path class="st7" d="M364.1,1031.46c-3.38,0.44-6.79-0.55-9.41-2.73c-1.26-1.06-2.29-2.38-3.01-3.86
			c-0.63-1.78-1.85-3.29-3.45-4.29c-3.19-1.62-7.16,0.95-9.98-1.38c-1.27-1.17-2.12-2.72-2.43-4.42c-0.2-0.92-0.34-1.85-0.41-2.78
			c-0.06-0.75-0.49-2.43-0.14-3.13c0.09-0.19,1.54-0.97,1.91-1.29c0.57-0.6,1-1.3,1.29-2.07c0.57-1.77,0.53-3.67-0.1-5.42
			c-0.57-1.7-1.6-3.18-2.29-4.81c-0.81-1.89-0.32-3.53,0.17-5.43c0.59-1.87,0.69-3.86,0.28-5.78c-0.7-1.88-1.72-3.62-3.01-5.15
			c-0.67-0.94-2.09-2.9-1.04-3.99c1.04-1.09,3.1-0.9,4.34-1.29c3.93-1.15,7.15-3.97,8.8-7.72c2.15-4.52,2.25-9.56,2.24-14.47
			c0-3.1-4.84-3.12-4.83,0c0,4.29,0.13,9.01-2.01,12.87c-0.74,1.43-1.82,2.66-3.14,3.58c-1.66,1.11-3.57,1.16-5.42,1.69
			c-3.48,0.72-5.72,4.12-5.01,7.6c0.09,0.44,0.23,0.88,0.41,1.29c0.89,1.82,1.97,3.55,3.22,5.15c1.16,1.83,0.89,3.31,0.37,5.34
			c-0.6,1.89-0.78,3.88-0.53,5.84c0.4,2.23,1.79,4,2.64,6.05c0.41,0.97,0.86,2.5,0.08,3.39s-1.69,1.03-2.3,1.91
			c-0.59,0.88-0.89,1.93-0.86,2.99c-0.09,4.25,0.66,9.1,3.48,12.43c1.13,1.36,2.61,2.39,4.27,2.97c2.07,0.7,4.09,0.24,6.2,0.13
			c0.71-0.16,1.45,0,2.03,0.44c0.63,0.91,1.15,1.9,1.53,2.95c1.04,1.77,2.42,3.33,4.04,4.58c3.42,2.73,7.78,4.01,12.14,3.57
			c1.31-0.05,2.37-1.11,2.41-2.42c-0.01-1.33-1.08-2.4-2.41-2.41L364.1,1031.46z"/>
		<path class="st7" d="M343.91,949.63c1.34-4.57,2.49-9.19,3.45-13.85"/>
		<path class="st7" d="M346.24,950.26c1.33-4.56,2.48-9.17,3.45-13.84c0.42-1.27-0.27-2.64-1.54-3.06
			c-1.27-0.42-2.64,0.27-3.06,1.54c-0.02,0.07-0.05,0.15-0.06,0.23c-0.96,4.66-2.11,9.28-3.44,13.85c-0.35,1.28,0.41,2.6,1.69,2.96
			C344.56,952.28,345.88,951.53,346.24,950.26z"/>
		<path class="st7" d="M-34.23,1184.39c4.08-1.59,8.38-2.56,12.74-2.88c4.36-0.12,9.01,1.13,11.98,4.3c1.35,1.64,2.6,3.36,3.75,5.15
			c1.17,1.78,2.94,3.09,4.99,3.69c2.13,0.54,4.32-0.63,5.06-2.7c0.59-2.47-1.79-4.85-1.45-7.38c0.35-2.75,3.62-4.05,6.44-4.31
			c3.61-0.24,7.24,0.08,10.76,0.94c7.9,1.76,15.39,5.03,22.05,9.64c3.23,2.24,6.36,4.93,7.9,8.53c1.54,3.6,1.09,8.34-1.97,10.8
			c-0.41,0.37-0.92,0.6-1.47,0.67c-2,0.09-2.3-2.91-3.76-4.26c-1.88-1.75-5.07-0.12-6.44,2.11c-1.36,2.23-1.7,4.96-3.37,6.9
			c-0.38,0.51-0.93,0.86-1.56,0.99c-0.37,0.03-0.74-0.04-1.08-0.19c-2.65-1.02-3.86-4.23-6.53-5.34c-1.97-0.7-4.14-0.44-5.9,0.7
			c-1.71,1.13-3.28,2.46-4.69,3.95c-3.75,3.57-7.99,6.61-12.58,9.01c-1.35,0.88-2.96,1.27-4.57,1.12c-1.21-0.35-2.31-1.02-3.19-1.93
			c-12.28-10.9-21.54-24.78-26.86-40.32"/>
		<path class="st7" d="M-33.53,1186.71c6.86-2.3,16.5-5.33,22.37,0.81c2.75,2.87,4.11,6.84,7.85,8.73c3.06,1.56,7.31,1.07,9.26-2.02
			c0.91-1.53,1.14-3.38,0.62-5.08c-0.33-1.29-1.65-3.06-1.29-4.42c0.32-1.15,1.92-1.61,2.93-1.85c2.12-0.4,4.3-0.45,6.44-0.14
			c8.5,1.04,16.65,3.99,23.84,8.65c3.13,1.96,6.44,4.21,8.44,7.41c1.58,2.57,2.27,6.22,0.27,8.77c-0.17,0.22-0.44,0.4-0.59,0.62
			l-0.18,0.15c-0.32,0.17-0.19,0.24,0.4,0.21c-0.16-0.35-0.35-0.68-0.57-1c-0.66-1.63-1.9-2.96-3.49-3.73
			c-3.24-1.29-6.78,0.93-8.46,3.67c-1,1.62-1.42,3.53-2.28,5.15c-0.22,0.42-0.5,0.8-0.73,1.21c-0.41,0.76-0.08,0.22-0.28,0.15
			c-0.75-0.42-1.41-0.99-1.92-1.69c-2.57-2.79-5.34-4.8-9.38-3.86c-4.25,0.97-7.07,4.67-10.21,7.38c-3.06,2.65-6.43,4.92-10.03,6.77
			c-0.81,0.53-1.75,0.84-2.72,0.88c-1.13-0.13-2.14-1.29-2.92-2.01c-1.57-1.44-3.1-2.93-4.58-4.45c-3.06-3.17-5.89-6.56-8.47-10.14
			c-5.27-7.35-9.44-15.41-12.4-23.95c-1-2.91-5.66-1.66-4.65,1.29c2.83,8.27,6.75,16.13,11.65,23.36c2.43,3.54,5.07,6.92,7.92,10.13
			c2.77,3.3,5.86,6.32,9.23,9.01c4.14,3.09,8.39,0.8,12.27-1.53c3.89-2.36,7.51-5.16,10.77-8.33c1.33-1.57,3.02-2.79,4.92-3.58
			c2.06-0.6,3.27,0.45,4.6,1.89c2.7,2.91,6.69,5.79,9.94,1.76c1.12-1.6,1.99-3.36,2.57-5.23c0.51-1.29,1.4-3.32,3.05-3.42
			c0.9,0,1.39,1.83,1.94,2.68c0.9,1.61,2.7,2.5,4.53,2.23c3.77-0.72,5.75-5.15,6.04-8.61c0.17-4.14-1.4-8.17-4.33-11.11
			c-3.03-3.1-6.54-5.71-10.37-7.72c-3.94-2.23-8.11-4.05-12.42-5.43c-4.47-1.51-9.13-2.38-13.84-2.57
			c-3.76-0.08-8.38,0.45-10.72,3.86c-1.22,1.87-1.44,4.22-0.59,6.28c0.37,1.08,1.79,3.21,0.57,4.12c-3.32,2.47-7.07-5.24-8.59-7.07
			c-6.99-8.42-18.82-5.83-27.77-2.83c-2.93,0.98-1.67,5.64,1.29,4.65L-33.53,1186.71z"/>
		<path class="st7" d="M54.59,1201.67c2.01-4,5.7-6.88,10.07-7.85c0.63-0.19,1.3-0.19,1.93,0c1.18,0.48,1.54,1.91,1.97,3.1
			c1.61,4.48,5.82,7.4,9.67,10.19s7.84,6.24,8.57,10.94c0.04,1.39,0.32,2.77,0.82,4.07c0.54,0.84,1.24,1.57,2.07,2.14
			c7.26,5.75,14.55,11.44,21.88,17.07"/>
		<path class="st7" d="M56.72,1202.89c1-2.03,2.53-3.76,4.43-5.01c0.88-0.57,1.83-1.03,2.82-1.36c0.49-0.21,1.01-0.34,1.54-0.4
			c0.14,0,0.23,0,0.09-0.13c0.19,0.12,0.27,0.48,0.35,0.66c0.82,2.21,1.97,4.28,3.41,6.14c1.7,1.86,3.6,3.53,5.68,4.97
			c3.54,2.57,8.1,5.44,9.28,10c0.7,2.7,0.41,5.15,2.57,7.26c2.18,1.95,4.47,3.78,6.86,5.47c5.55,4.35,11.13,8.67,16.73,12.95
			c1.15,0.67,2.62,0.28,3.3-0.86c0.64-1.15,0.26-2.61-0.86-3.3c-5.35-4.1-10.69-8.23-16-12.4l-3.71-2.93
			c-1.06-0.82-2.81-1.78-3.42-3.01c-0.35-1.13-0.55-2.31-0.58-3.5c-0.25-1.39-0.73-2.74-1.42-3.98c-2.57-4.75-7.3-7.47-11.38-10.71
			c-2.11-1.49-3.87-3.44-5.15-5.69c-1.13-2.28-1.51-5.05-4.45-5.68c-2.95-0.63-6.26,1.07-8.48,2.57c-2.43,1.63-4.42,3.84-5.78,6.44
			c-1.42,2.75,2.75,5.15,4.17,2.43V1202.89z"/>
		<path class="st7" d="M112.52,1241.83c5.31,0.79,10.72-0.51,15.09-3.63c5.32-3.86,8.44-9.9,12.5-15.03s10.12-9.76,16.57-8.61
			c6.72,1.2,10.7,7.9,14.7,13.43"/>
		<path class="st7" d="M111.83,1244.16c5.22,0.8,10.55-0.16,15.16-2.73c4.47-2.57,7.72-6.6,10.58-10.72
			c4.65-6.54,12.46-18.02,21.88-12.52c4.25,2.48,6.93,7.13,9.73,11.02c0.73,1.08,2.15,1.45,3.31,0.86c1.14-0.69,1.52-2.15,0.86-3.31
			c-2.7-3.75-5.24-7.85-8.83-10.84c-3.72-3.34-8.84-4.63-13.7-3.46c-10.9,2.79-14.79,14.04-21.88,21.34
			c-4.07,4.31-9.95,6.42-15.83,5.7c-1.28-0.27-2.55,0.45-2.97,1.69C109.8,1242.47,110.55,1243.79,111.83,1244.16L111.83,1244.16z"/>
		<path class="st7" d="M173.4,1229.01l60.02,28.95c5.99,2.9,12.2,5.96,16.27,11.22c6.53,8.43,5.96,20.27,4.05,30.78"/>
		<path class="st7" d="M172.19,1231.09l45.3,21.88c7.03,3.4,14.26,6.54,21.07,10.3c5.91,3.31,10.76,7.72,12.76,14.35
			c2.11,7,1.38,14.58,0.12,21.68c-0.54,3.04,4.11,4.34,4.65,1.29c1.29-6.89,1.93-13.95,0.7-20.89c-1.24-7.01-5.15-13.27-10.9-17.47
			c-6.23-4.65-13.8-7.59-20.75-10.95l-23.66-11.34l-26.84-12.87c-2.78-1.35-5.24,2.81-2.43,4.16V1231.09z"/>
		<path class="st7" d="M254.62,1301.46c34.36,26.19,51.66,68.45,67.44,108.65"/>
		<path class="st7" d="M253.4,1303.55c26.62,20.38,42.81,50.86,55.75,81.09c3.69,8.64,7.16,17.38,10.58,26.12
			c0.39,1.26,1.69,2,2.97,1.69c1.28-0.36,2.03-1.69,1.69-2.97c-6.29-16.01-12.68-32.01-20.31-47.45
			c-7.63-15.43-16.41-30-27.51-42.99c-6.21-7.26-13.16-13.85-20.74-19.66c-1.15-0.66-2.62-0.27-3.3,0.88
			C251.9,1301.4,252.28,1302.86,253.4,1303.55L253.4,1303.55z"/>
		<path class="st7" d="M102,1363.69c0.24-3.86-0.86-7.72-1.45-11.49c-0.59-3.77-0.59-8.03,1.61-11.22c1.29-1.8,3.1-3.15,4.03-5.15
			c1.06-2.23,0.75-4.83,0.41-7.26c-0.88-6.44-1.85-13.16-5.51-18.54c-1.05-1.69-2.58-3.03-4.39-3.86c-1.62-0.51-3.33-0.7-5.02-0.57
			l-12.56,0.19c-0.93,0.12-1.88-0.06-2.7-0.51c-1.51-1.04-1.65-3.75-3.45-4.03"/>
		<path class="st7" d="M104.42,1363.69c0.28-6.27-3.09-12.73-1.39-18.92c0.76-2.75,3.05-4.36,4.61-6.63
			c1.79-2.57,1.85-5.75,1.48-8.75c-0.76-6.05-1.61-12.24-4.34-17.75c-1.2-2.75-3.12-5.12-5.56-6.87c-2.81-1.84-6.22-1.61-9.42-1.56
			l-5.65,0.09c-1.91,0.13-3.83,0.15-5.74,0.08c-1.04-0.12-1.17-1.06-1.7-1.93c-0.63-1.25-1.76-2.18-3.1-2.57
			c-3.01-0.76-4.3,3.86-1.29,4.66c0.28,0,0.72,1.29,0.9,1.58c0.54,1.02,1.36,1.86,2.37,2.42c1.22,0.53,2.54,0.74,3.86,0.63
			l5.34-0.09c3.17,0,6.62-0.5,9.74,0c2.66,0.39,4.25,2.57,5.48,4.81c2.75,4.89,3.55,10.74,4.26,16.23c0.37,2.82,0.48,5.24-1.51,7.47
			c-1.99,1.92-3.48,4.28-4.36,6.9c-1.88,6.81,1.52,13.4,1.21,20.21c-0.14,3.1,4.69,3.09,4.83,0L104.42,1363.69z"/>
		<path class="st7" d="M71.72,1300.55c-5.98,0.71-11.77-2.37-14.53-7.72c-0.39-1.11-1.01-2.12-1.83-2.96
			c-2.03-1.66-5.06-0.26-7.66-0.55c-2.7-0.5-4.94-2.39-5.9-4.97c-0.9-2.54-1.34-5.22-1.29-7.92c-0.1-0.65-0.01-1.31,0.26-1.91
			c0.42-0.77,1.36-1.09,2.05-1.66c1.71-1.45,1.44-4.2,0.51-6.23s-2.34-3.94-2.57-6.18c-0.26-2.9,1.63-5.72,1.12-8.57
			c-0.39-2.1-1.97-3.73-3.17-5.48c-1.2-1.75-2.03-4.18-0.85-5.96c1.18-1.78,4.07-1.88,6.29-2.57c3.73-1.07,6.44-4.48,7.63-8.16
			c1.03-3.77,1.44-7.68,1.21-11.58"/>
		<path class="st7" d="M71.72,1298.14c-3.38,0.44-6.79-0.55-9.41-2.73c-1.26-1.06-2.29-2.38-3.01-3.86
			c-0.63-1.78-1.85-3.29-3.45-4.29c-3.19-1.62-7.16,0.95-9.98-1.38c-1.27-1.17-2.12-2.72-2.43-4.42c-0.2-0.92-0.34-1.85-0.41-2.78
			c-0.06-0.75-0.49-2.43-0.14-3.13c0.09-0.19,1.54-0.97,1.91-1.29c0.57-0.6,1-1.3,1.29-2.07c0.56-1.77,0.53-3.67-0.1-5.42
			c-0.57-1.7-1.6-3.18-2.29-4.81c-0.81-1.89-0.32-3.53,0.17-5.43c0.59-1.87,0.69-3.86,0.28-5.78c-0.7-1.88-1.72-3.62-3.01-5.15
			c-0.67-0.94-2.09-2.9-1.04-3.99c1.04-1.09,3.1-0.9,4.34-1.29c3.93-1.15,7.15-3.97,8.8-7.72c2.15-4.52,2.25-9.56,2.24-14.47
			c0-3.1-4.84-3.11-4.83,0c0,4.29,0.13,9.01-2.01,12.87c-0.74,1.43-1.82,2.66-3.14,3.58c-1.66,1.11-3.57,1.16-5.42,1.69
			c-3.48,0.72-5.72,4.12-5.01,7.6c0.09,0.44,0.23,0.88,0.41,1.29c0.89,1.82,1.97,3.55,3.22,5.15c1.16,1.83,0.89,3.31,0.37,5.34
			c-0.6,1.89-0.78,3.88-0.53,5.84c0.4,2.23,1.79,4,2.64,6.05c0.41,0.97,0.86,2.5,0.08,3.39c-0.79,0.89-1.69,1.03-2.3,1.91
			c-0.59,0.88-0.89,1.93-0.86,2.99c-0.09,4.25,0.66,9.1,3.48,12.43c1.13,1.36,2.61,2.39,4.27,2.97c2.07,0.7,4.09,0.24,6.2,0.13
			c0.71-0.16,1.45,0,2.03,0.44c0.63,0.91,1.15,1.9,1.53,2.95c1.04,1.77,2.42,3.33,4.04,4.58c3.42,2.73,7.78,4.01,12.14,3.57
			c1.31-0.05,2.37-1.11,2.41-2.42c-0.01-1.33-1.08-2.4-2.41-2.41L71.72,1298.14z"/>
		<path class="st7" d="M51.54,1216.31c1.34-4.57,2.49-9.19,3.45-13.85"/>
		<path class="st7" d="M53.87,1216.94c1.33-4.56,2.48-9.17,3.45-13.84c0.42-1.27-0.27-2.64-1.54-3.06
			c-1.27-0.42-2.64,0.27-3.06,1.54c-0.02,0.07-0.05,0.15-0.06,0.23c-0.96,4.66-2.11,9.28-3.44,13.85c-0.35,1.28,0.41,2.6,1.69,2.96
			C52.19,1218.96,53.5,1218.21,53.87,1216.94z"/>
	</g>
</g>
</svg>
